<?xml version="1.0" encoding="utf-8"?>
<!-- Generator: Adobe Illustrator 26.1.0, SVG Export Plug-In . SVG Version: 6.00 Build 0)  -->
<svg version="1.1" id="Layer_1" xmlns="http://www.w3.org/2000/svg" xmlns:xlink="http://www.w3.org/1999/xlink" x="0px" y="0px"
	 viewBox="0 0 419.5 163.1" style="enable-background:new 0 0 419.5 163.1;" xml:space="preserve">

<g id="a">
</g>
<g>
	<path style="fill:#FAB816;" d="M231.2,124.2c-6.1-1.9-11.6-5.4-16.2-10.2c-7.4-7.8-10.9-17.5-10.3-28.9c0.6-12.1,4.8-21.9,12.5-29.2
		c7.8-7.4,17.8-10.8,29.6-10.2c3.4,0.2,6.6,0.7,9.3,1.5c2.5,0.8,4.8,1.9,6.7,3.3c4.3,3.2,6.4,7.6,6.1,13l-0.3,7.1l-2.4-0.1l-0.4-0.5
		c-1.9-2.7-4.9-4.9-9-6.5c-0.6-0.2-1.3-0.5-2-0.7c-2.8-0.9-5.7-1.4-8.7-1.5c-6.5-0.3-12.1,1.6-16.4,5.7c-4.5,4.1-6.9,9.7-7.2,16.7
		c-0.4,8.4,1.5,15,5.6,19.6c2.4,2.8,5.5,4.8,9.2,6c2.1,0.7,4.6,1.1,7.1,1.2c8.4,0.4,15-1.7,19.6-6.1l0.4-0.4l2.3,0.1l-0.3,6.9
		c-0.2,5.3-3.1,9.3-8.6,12.1c-4.5,2.3-10,3.3-16.2,3C238.1,125.9,234.5,125.3,231.2,124.2L231.2,124.2z"/>
	<path style="fill:#C32126;" d="M255.8,48.3c2.4,0.8,4.6,1.8,6.3,3.2c4,2.9,5.8,6.9,5.6,12l-0.3,5.9l-0.6,0c-2-2.9-5.2-5.2-9.5-6.9
		c-0.7-0.3-1.4-0.5-2.1-0.7c-2.9-0.9-5.9-1.4-9-1.6c-6.9-0.3-12.7,1.7-17.3,6c-4.8,4.3-7.3,10.2-7.6,17.5
		c-0.4,8.8,1.6,15.6,5.9,20.5c2.6,3,5.8,5.1,9.7,6.3c2.3,0.7,4.8,1.1,7.5,1.2c8.8,0.4,15.6-1.7,20.5-6.4l0.6,0l-0.3,5.7
		c-0.2,4.8-2.9,8.5-7.9,11c-4.4,2.2-9.5,3.1-15.6,2.8c-3.6-0.2-7.1-0.8-10.3-1.8c-6-1.9-11.2-5.2-15.6-9.9c-7.2-7.6-10.5-16.9-10-28
		c0.5-11.8,4.6-21.2,12.1-28.3c7.6-7.2,17.1-10.5,28.7-9.9C250.2,47,253.1,47.5,255.8,48.3 M256.5,46L256.5,46
		c-2.8-0.9-6.1-1.4-9.6-1.6c-12.2-0.6-22.5,3-30.6,10.6c-8,7.5-12.4,17.6-12.9,30c-0.5,11.8,3.1,21.8,10.7,29.8
		c4.7,5,10.4,8.6,16.7,10.6c3.4,1.1,7.1,1.7,10.9,1.9c6.4,0.3,12.1-0.7,16.8-3.1c5.9-2.9,9-7.3,9.2-13.1l0.3-5.7l0.1-2.5l-2.5-0.1
		l-0.6,0l-1-0.1l-0.8,0.7c-4.4,4.2-10.7,6.1-18.7,5.7c-2.5-0.1-4.8-0.5-6.8-1.1c-3.5-1.1-6.3-2.9-8.6-5.6
		c-3.9-4.4-5.7-10.7-5.3-18.8c0.3-6.7,2.5-11.9,6.8-15.8c4.2-3.9,9.2-5.7,15.5-5.4c2.9,0.1,5.7,0.6,8.4,1.5c0.6,0.2,1.3,0.4,1.9,0.7
		c3.8,1.5,6.6,3.5,8.4,6l0.7,1l1.2,0.1l0.6,0l2.5,0.1l0.1-2.5l0.3-5.9c0.3-5.9-2-10.6-6.6-14.1C261.6,48,259.2,46.8,256.5,46
		L256.5,46L256.5,46z"/>
</g>
<g>
	<g>
		<path style="fill:#FCEE21;" d="M266.9,69.3c-2-2.9-5.2-5.2-9.5-6.9c-3.5-1.3-7.2-2.1-11.1-2.3c-6.9-0.3-12.7,1.7-17.3,6
			c-4.8,4.3-7.3,10.2-7.6,17.5c-0.4,8.8,1.6,15.6,5.9,20.5c4,4.7,9.8,7.3,17.2,7.6c8.8,0.4,15.6-1.7,20.5-6.4l0.6,0l-0.3,5.7
			c-0.2,4.8-2.9,8.5-7.9,11c-4.4,2.2-9.5,3.1-15.6,2.8c-10.4-0.5-19.1-4.4-25.9-11.7c-7.2-7.6-10.5-16.9-10-28
			c0.5-11.8,4.6-21.2,12.1-28.3c7.6-7.2,17.1-10.5,28.7-9.9c6.5,0.3,11.6,1.8,15.3,4.6c4,2.9,5.8,6.9,5.6,12l-0.3,5.9L266.9,69.3
			L266.9,69.3z"/>
	</g>
</g>
<path style="fill:#9D1D20;" d="M181.6,106c-13.5,43-59.2,66.9-102.2,53.4c-43-13.5-66.9-59.3-53.4-102.2c13.5-43,59.3-66.9,102.2-53.4
	S195,63,181.6,106L181.6,106z"/>
<radialGradient id="SVGID_1_" cx="227.6951" cy="171.8373" r="81.5529" gradientTransform="matrix(0.9541 0.2994 0.2994 -0.9541 -164.9492 177.3607)" gradientUnits="userSpaceOnUse">
	<stop  offset="0.28" style="stop-color:#9D1D20;stop-opacity:0"/>
	<stop  offset="0.4" style="stop-color:#9D1D20;stop-opacity:2.000000e-02"/>
	<stop  offset="0.52" style="stop-color:#9D1D20;stop-opacity:0.1"/>
	<stop  offset="0.63" style="stop-color:#9D1D20;stop-opacity:0.22"/>
	<stop  offset="0.74" style="stop-color:#9D1D20;stop-opacity:0.39"/>
	<stop  offset="0.85" style="stop-color:#9D1D20;stop-opacity:0.6"/>
	<stop  offset="0.95" style="stop-color:#9D1D20;stop-opacity:0.87"/>
	<stop  offset="1" style="stop-color:#9D1D20"/>
</radialGradient>
<path style="fill:url(#SVGID_1_);" d="M181.6,106c-13.5,43-59.2,66.9-102.2,53.4c-43-13.5-66.9-59.3-53.4-102.2c13.5-43,59.3-66.9,102.2-53.4
	S195,63,181.6,106L181.6,106z"/>
<g>
	<g>
		<path style="fill:#9D1D20;" d="M21.7,108.4c0.9-0.6,1.2-1.7,0.7-2.6c-0.1-0.1-0.1-0.3-0.2-0.4c-0.7-1-2.1-1.2-3-0.6c-1,0.7-1.2,2-0.5,3
			C19.4,108.8,20.7,109.1,21.7,108.4L21.7,108.4z"/>
		<path style="fill:#9D1D20;" d="M20.1,100.7c0.9-0.6,1.2-1.7,0.8-2.6c-0.1-0.1-0.1-0.3-0.2-0.4c-0.7-1-2.1-1.2-3-0.6s-1.2,2-0.5,3
			S19.1,101.4,20.1,100.7L20.1,100.7z"/>
		<path style="fill:#E01F26;" d="M19.2,92.9c0.9-0.6,1.2-1.7,0.8-2.6c-0.1-0.1-0.1-0.3-0.2-0.4c-0.7-1-2.1-1.2-3-0.6c-0.9,0.7-1.2,2-0.5,3
			C16.8,93.4,18.2,93.6,19.2,92.9L19.2,92.9z"/>
		<path style="fill:#E01F26;" d="M18.9,85.1c0.9-0.6,1.2-1.7,0.8-2.6c-0.1-0.1-0.1-0.3-0.2-0.4c-0.7-1-2.1-1.2-3-0.6c-0.9,0.7-1.2,2-0.5,3
			C16.5,85.6,17.9,85.8,18.9,85.1L18.9,85.1z"/>
		<path style="fill:#E01F26;" d="M19,77.3c0.9-0.6,1.2-1.7,0.8-2.6c-0.1-0.1-0.1-0.3-0.2-0.4c-0.7-1-2.1-1.2-3-0.6c-0.9,0.7-1.2,2-0.5,3
			C16.6,77.8,18,78,19,77.3L19,77.3z"/>
		<path style="fill:#9D1D20;" d="M20,69.5c0.9-0.6,1.2-1.7,0.8-2.6c-0.1-0.1-0.1-0.3-0.2-0.4c-0.7-1-2.1-1.2-3-0.6c-1,0.7-1.2,2-0.5,3
			S19,70.2,20,69.5L20,69.5z"/>
		<path style="fill:#9D1D20;" d="M21.4,61.8c0.9-0.6,1.2-1.7,0.7-2.6c-0.1-0.1-0.1-0.3-0.2-0.4c-0.7-1-2.1-1.2-3-0.6c-1,0.7-1.2,2-0.5,3
			S20.4,62.5,21.4,61.8L21.4,61.8z"/>
		<path style="fill:#9D1D20;" d="M23.5,54.2c0.9-0.6,1.2-1.7,0.7-2.6c-0.1-0.1-0.1-0.3-0.2-0.4c-0.7-1-2.1-1.2-3-0.6c-1,0.7-1.2,2-0.5,3
			C21.1,54.7,22.5,54.9,23.5,54.2L23.5,54.2z"/>
	</g>
	<g>
		<path style="fill:#9D1D20;" d="M11.8,96.2c0.9-0.6,1.2-1.7,0.7-2.6c-0.1-0.1-0.1-0.3-0.2-0.4c-0.7-0.9-2.1-1.2-3-0.6c-0.9,0.7-1.2,2-0.5,3
			C9.4,96.7,10.8,96.9,11.8,96.2L11.8,96.2z"/>
		<path style="fill:#9D1D20;" d="M11.5,88.4c0.9-0.6,1.2-1.7,0.7-2.6c-0.1-0.1-0.1-0.3-0.2-0.4c-0.7-1-2.1-1.2-3-0.6s-1.2,2-0.5,3
			C9.1,88.9,10.5,89.1,11.5,88.4L11.5,88.4z"/>
	</g>
</g>
<g>
	<path style="fill:#E01F26;" d="M193.3,82.8c0.1-1.1-0.6-2-1.5-2.3c-0.1,0-0.3-0.1-0.4-0.1c-1.2-0.1-2.3,0.8-2.4,1.9s0.8,2.2,2,2.3
		C192.2,84.8,193.2,84,193.3,82.8L193.3,82.8z"/>
	<path style="fill:#9D1D20;" d="M192.3,90.4c0.1-1.1-0.6-2-1.5-2.3c-0.1,0-0.3-0.1-0.4-0.1c-1.2-0.1-2.3,0.8-2.4,1.9c-0.1,1.2,0.8,2.2,2,2.3
		C191.1,92.5,192.2,91.6,192.3,90.4L192.3,90.4z"/>
	<path style="fill:#E01F26;" d="M190.8,98.2c0.1-1.1-0.6-2-1.5-2.3c-0.1,0-0.3-0.1-0.4-0.1c-1.2-0.1-2.3,0.8-2.4,1.9s0.8,2.2,2,2.3
		S190.7,99.4,190.8,98.2L190.8,98.2z"/>
	<path style="fill:#9D1D20;" d="M188.9,105.7c0.1-1.1-0.6-2-1.5-2.3c-0.1,0-0.3-0.1-0.4-0.1c-1.2-0.1-2.3,0.8-2.4,1.9s0.8,2.2,2,2.3
		C187.7,107.8,188.8,106.9,188.9,105.7L188.9,105.7z"/>
	<path style="fill:#9D1D20;" d="M179.2,127c0.1-1.1-0.6-2-1.5-2.3c-0.1,0-0.3-0.1-0.4-0.1c-1.2-0.1-2.3,0.8-2.4,1.9s0.8,2.2,2,2.3
		S179.1,128.3,179.2,127L179.2,127z"/>
	<path style="fill:#9D1D20;" d="M174.9,133.6c0.1-1.1-0.6-2-1.5-2.3c-0.1,0-0.3-0.1-0.4-0.1c-1.2-0.1-2.3,0.8-2.4,1.9c-0.1,1.1,0.8,2.2,2,2.3
		C173.7,135.7,174.8,134.8,174.9,133.6L174.9,133.6z"/>
	<path style="fill:#9D1D20;" d="M170.1,139.9c0.1-1.1-0.6-2-1.5-2.3c-0.1,0-0.3-0.1-0.4-0.1c-1.2-0.1-2.3,0.8-2.4,1.9c-0.1,1.1,0.8,2.2,2,2.3
		C169,142,170,141.1,170.1,139.9L170.1,139.9z"/>
	<path style="fill:#9D1D20;" d="M164.9,145.7c0.1-1.1-0.6-2-1.5-2.3c-0.1,0-0.3-0.1-0.4-0.1c-1.2-0.1-2.3,0.8-2.4,1.9c-0.1,1.1,0.8,2.2,2,2.3
		C163.8,147.7,164.8,146.9,164.9,145.7L164.9,145.7z"/>
	<path style="fill:#E01F26;" d="M159.2,150.9c0.1-1.1-0.6-2-1.5-2.3c-0.1,0-0.3-0.1-0.4-0.1c-1.2-0.1-2.3,0.8-2.4,1.9c-0.1,1.1,0.8,2.2,2,2.3
		C158,153,159.1,152.2,159.2,150.9L159.2,150.9z"/>
	<path style="fill:#9D1D20;" d="M153.2,155.9c0.1-1.1-0.6-2-1.5-2.3c-0.1,0-0.3-0.1-0.4-0.1c-1.2-0.1-2.3,0.8-2.4,1.9c-0.1,1.1,0.8,2.2,2,2.3
		C152,158,153,157.2,153.2,155.9L153.2,155.9z"/>
	<path style="fill:#9D1D20;" d="M158.4,160.4c0.1-1.1-0.6-2-1.5-2.3c-0.1,0-0.3-0.1-0.4-0.1c-1.2-0.1-2.3,0.8-2.4,1.9c-0.1,1.1,0.8,2.2,2,2.3
		C157.3,162.5,158.3,161.6,158.4,160.4L158.4,160.4z"/>
	<path style="fill:#E01F26;" d="M164.6,155.3c0.1-1.1-0.6-2-1.5-2.3c-0.1,0-0.3-0.1-0.4-0.1c-1.2-0.1-2.3,0.8-2.4,1.9c-0.1,1.1,0.8,2.2,2,2.3
		C163.4,157.4,164.5,156.5,164.6,155.3L164.6,155.3z"/>
	<path style="fill:#9D1D20;" d="M170.6,149.5c0.1-1.1-0.6-2-1.5-2.3c-0.1,0-0.3-0.1-0.4-0.1c-1.2-0.1-2.3,0.8-2.4,1.9c-0.1,1.1,0.8,2.2,2,2.3
		C169.4,151.5,170.5,150.7,170.6,149.5L170.6,149.5z"/>
	<path style="fill:#E01F26;" d="M175.6,143.6c0.1-1.1-0.6-2-1.5-2.3c-0.1,0-0.3-0.1-0.4-0.1c-1.2-0.1-2.3,0.8-2.4,1.9c-0.1,1.1,0.8,2.2,2,2.3
		C174.5,145.7,175.5,144.8,175.6,143.6L175.6,143.6z"/>
	<path style="fill:#E01F26;" d="M180.9,137.6c0.1-1.1-0.6-2-1.5-2.3c-0.1,0-0.3-0.1-0.4-0.1c-1.2-0.1-2.3,0.8-2.4,1.9c-0.1,1.1,0.8,2.2,2,2.3
		S180.8,138.9,180.9,137.6L180.9,137.6z"/>
	<path style="fill:#9D1D20;" d="M186.8,151.5c0.1-1.1-0.6-2-1.5-2.3c-0.1,0-0.3-0.1-0.4-0.1c-1.2-0.1-2.3,0.8-2.4,1.9c-0.1,1.1,0.8,2.2,2,2.3
		C185.7,153.6,186.7,152.7,186.8,151.5L186.8,151.5z"/>
	<path style="fill:#9D1D20;" d="M191.8,145.4c0.1-1.1-0.6-2-1.5-2.3c-0.1,0-0.3-0.1-0.4-0.1c-1.2-0.1-2.3,0.8-2.4,1.9c-0.1,1.1,0.8,2.2,2,2.3
		C190.6,147.5,191.7,146.6,191.8,145.4L191.8,145.4z"/>
	<path style="fill:#9D1D20;" d="M184.7,131c0.1-1.1-0.6-2-1.5-2.3c-0.1,0-0.3-0.1-0.4-0.1c-1.2-0.1-2.3,0.8-2.4,1.9c-0.1,1.1,0.8,2.2,2,2.3
		C183.6,133.1,184.6,132.2,184.7,131L184.7,131z"/>
	<path style="fill:#9D1D20;" d="M188.4,124.2c0.1-1.1-0.6-2-1.5-2.3c-0.1,0-0.3-0.1-0.4-0.1c-1.2-0.1-2.3,0.8-2.4,1.9s0.8,2.2,2,2.3
		S188.2,125.4,188.4,124.2L188.4,124.2z"/>
	<path style="fill:#9D1D20;" d="M192,117.4c0.1-1.1-0.6-2-1.5-2.3c-0.1,0-0.3-0.1-0.4-0.1c-1.2-0.1-2.3,0.8-2.4,1.9c-0.1,1.2,0.8,2.2,2,2.3
		C190.8,119.5,191.9,118.6,192,117.4L192,117.4z"/>
	<path style="fill:#9D1D20;" d="M194.8,110.2c0.1-1.1-0.6-2-1.5-2.3c-0.1,0-0.3-0.1-0.4-0.1c-1.2-0.1-2.3,0.8-2.4,1.9s0.8,2.2,2,2.3
		C193.6,112.3,194.7,111.4,194.8,110.2L194.8,110.2z"/>
	<path style="fill:#E01F26;" d="M200.6,114.4c0.1-1.1-0.6-2-1.5-2.3c-0.1,0-0.3-0.1-0.4-0.1c-1.2-0.1-2.3,0.8-2.4,1.9c-0.1,1.2,0.8,2.2,2,2.3
		C199.4,116.5,200.5,115.6,200.6,114.4L200.6,114.4z"/>
	<path style="fill:#9D1D20;" d="M197.4,121.5c0.1-1.1-0.6-2-1.5-2.3c-0.1,0-0.3-0.1-0.4-0.1c-1.2-0.1-2.3,0.8-2.4,1.9c-0.1,1.2,0.8,2.2,2,2.3
		S197.3,122.7,197.4,121.5L197.4,121.5z"/>
	<path style="fill:#9D1D20;" d="M203.2,125.7c0.1-1.1-0.6-2-1.5-2.3c-0.1,0-0.3-0.1-0.4-0.1c-1.2-0.1-2.3,0.8-2.4,1.9c-0.1,1.2,0.8,2.2,2,2.3
		S203.1,126.9,203.2,125.7L203.2,125.7z"/>
	<path style="fill:#9D1D20;" d="M199.7,132c0.1-1.1-0.6-2-1.5-2.3c-0.1,0-0.3-0.1-0.4-0.1c-1.2-0.1-2.3,0.8-2.4,1.9c-0.1,1.1,0.8,2.2,2,2.3
		C198.5,134.1,199.6,133.2,199.7,132L199.7,132z"/>
	<path style="fill:#9D1D20;" d="M195.7,138.8c0.1-1.1-0.6-2-1.5-2.3c-0.1,0-0.3-0.1-0.4-0.1c-1.2-0.1-2.3,0.8-2.4,1.9c-0.1,1.1,0.8,2.2,2,2.3
		C194.6,140.8,195.6,140,195.7,138.8z"/>
	<path style="fill:#E01F26;" d="M197,101.5c0.1-1.1-0.6-2-1.5-2.3c-0.1,0-0.3-0.1-0.4-0.1c-1.2-0.1-2.3,0.8-2.4,1.9s0.8,2.2,2,2.3
		C195.9,103.6,196.9,102.7,197,101.5L197,101.5z"/>
	<path style="fill:#9D1D20;" d="M198.7,93.7c0.1-1.1-0.6-2-1.5-2.3c-0.1,0-0.3-0.1-0.4-0.1c-1.2-0.1-2.3,0.8-2.4,1.9c-0.1,1.2,0.8,2.2,2,2.3
		S198.6,95,198.7,93.7L198.7,93.7z"/>
	<path style="fill:#9D1D20;" d="M199.9,85.9c0.1-1.1-0.6-2-1.5-2.3c-0.1,0-0.3-0.1-0.4-0.1c-1.2-0.1-2.3,0.8-2.4,1.9c-0.1,1.2,0.8,2.2,2,2.3
		C198.7,88,199.8,87.1,199.9,85.9L199.9,85.9z"/>
</g>
<g>
	<path style="fill:#E01F26;" d="M63.1,53.3c0.6-0.9,0.4-2.1-0.5-2.8c-0.9-0.7-2.2-0.5-2.9,0.5c-0.7,1-0.4,2.3,0.5,2.9
		C61.2,54.5,62.5,54.2,63.1,53.3z"/>
	<path style="fill:#E01F26;" d="M155,76.4c1.1-0.1,1.9-1.2,1.8-2.3c-0.2-1.2-1.2-1.9-2.4-1.7s-1.9,1.2-1.7,2.3C152.9,75.7,153.9,76.5,155,76.4
		L155,76.4z"/>
	<path style="fill:#F69321;" d="M37.8,36.2c-0.6,1-0.4,2.2,0.5,2.9c1,0.6,2.2,0.4,2.8-0.5c0.6-0.9,0.4-2.2-0.5-2.8
		C39.8,35.1,38.5,35.3,37.8,36.2z"/>
	<path style="fill:#E01F26;" d="M54.1,43.3c0.7-0.8,0.5-2.1-0.3-2.8c-0.9-0.7-2.2-0.6-2.9,0.3c-0.7,0.9-0.5,2.2,0.4,2.9
		C52.2,44.3,53.4,44.1,54.1,43.3z"/>
	<path style="fill:#E01F26;" d="M72,64.1c0.5-0.9,0.2-2.1-0.8-2.7c-0.9-0.6-2.2-0.3-2.8,0.8c-0.6,1-0.2,2.3,0.9,2.8C70.3,65.3,71.5,65,72,64.1
		z"/>
	<path style="fill:#E01F26;" d="M56.6,66.6c0.4-1-0.2-2.2-1.3-2.6s-2.2,0.2-2.6,1.3c-0.3,1.1,0.3,2.3,1.4,2.6C55.2,68.2,56.3,67.6,56.6,66.6z"
		/>
	<path style="fill:#E01F26;" d="M46.6,55.8c0.5-1,0-2.2-1-2.7s-2.2-0.1-2.7,1c-0.5,1,0,2.3,1.1,2.7C45,57.2,46.1,56.7,46.6,55.8z"/>
	<path style="fill:#E01F26;" d="M59.3,59.7c0.5-1,0.1-2.2-0.9-2.7c-1-0.5-2.2-0.1-2.8,0.9c-0.5,1.1-0.1,2.3,1,2.8
		C57.7,61.1,58.9,60.7,59.3,59.7L59.3,59.7z"/>
	<path style="fill:#E01F26;" d="M37.7,60.6c0.4-1-0.2-2.2-1.3-2.6s-2.2,0.2-2.6,1.3c-0.3,1.1,0.3,2.3,1.4,2.6C36.2,62.2,37.4,61.6,37.7,60.6z"
		/>
	<path style="fill:#F69321;" d="M56.4,22.2c0.8-0.7,1-1.9,0.3-2.8c-0.7-0.9-2-1.1-2.9-0.4c-0.9,0.7-1,2-0.3,2.9S55.5,22.9,56.4,22.2z"/>
	<path style="fill:#F69321;" d="M71.1,18.1c-0.5-1-1.8-1.4-2.8-0.8c-1,0.5-1.4,1.8-0.8,2.8c0.6,1,1.8,1.3,2.8,0.8
		C71.2,20.4,71.6,19.1,71.1,18.1z"/>
	<path style="fill:#F69321;" d="M62.4,17.9c0.9-0.6,1.2-1.8,0.6-2.8c-0.6-1-1.9-1.3-2.8-0.6c-1,0.6-1.2,1.9-0.6,2.9
		C60.2,18.2,61.5,18.5,62.4,17.9L62.4,17.9z"/>
	<path style="fill:#E01F26;" d="M181.7,80.6c-1.1,0-2,0.9-2,2s0.9,2,2,2.1c1.1,0.1,2.1-0.8,2.1-2C183.8,81.5,182.8,80.6,181.7,80.6z"/>
	<path style="fill:#E01F26;" d="M81.5,42.6c-0.6-1-1.8-1.3-2.9-0.6c-1,0.7-1.3,2-0.7,2.9c0.7,0.9,1.9,1.2,2.8,0.6
		C81.7,44.8,82.1,43.5,81.5,42.6L81.5,42.6z"/>
	<path style="fill:#E01F26;" d="M73.2,42.6c0.9-0.7,1-1.9,0.4-2.8c-0.7-0.9-1.9-1.1-2.9-0.4c-0.9,0.7-1.1,2.1-0.3,2.9
		C71.1,43.2,72.4,43.3,73.2,42.6L73.2,42.6z"/>
	<path style="fill:#E01F26;" d="M175.1,78.3c-1.1,0.1-2,1-2,2.1s0.9,2,2.1,2c1.1,0,2.1-0.9,2-2.1C177.1,79.2,176.2,78.2,175.1,78.3z"/>
	<path style="fill:#E01F26;" d="M64.3,32.9c0.8-0.7,1-1.9,0.3-2.8c-0.7-0.9-2-1.1-2.9-0.4c-0.9,0.7-1,2-0.3,2.9S63.4,33.5,64.3,32.9L64.3,32.9
		z"/>
	<path style="fill:#E01F26;" d="M80.2,35.8c-0.5-1-1.8-1.4-2.8-0.8s-1.4,1.9-0.8,2.8c0.6,1,1.8,1.2,2.8,0.7S80.7,36.8,80.2,35.8L80.2,35.8z"/>
	<path style="fill:#E01F26;" d="M82.6,128.6c-0.5,1,0,2.3,1.1,2.7c1.1,0.5,2.3-0.1,2.7-1.2s-0.2-2.2-1.2-2.6C84.2,127.1,83.1,127.5,82.6,128.6
		z"/>
	<path style="fill:#E01F26;" d="M64.7,124.7c-0.8,0.8-0.7,2.2,0.2,2.9c0.9,0.7,2.2,0.6,2.9-0.3c0.7-0.9,0.6-2.2-0.3-2.8
		C66.7,123.8,65.5,123.9,64.7,124.7L64.7,124.7z"/>
	<path style="fill:#F69321;" d="M88.1,137.6c0.3-1.1-0.3-2.2-1.3-2.5c-1-0.4-2.2,0.2-2.5,1.3s0.2,2.2,1.3,2.6
		C86.6,139.3,87.8,138.6,88.1,137.6z"/>
	<path style="fill:#E01F26;" d="M76.6,127.7c1,0.6,2.3,0.2,2.8-0.8c0.5-1,0.2-2.2-0.8-2.8c-0.9-0.5-2.2-0.2-2.8,0.7
		C75.2,125.9,75.5,127.1,76.6,127.7z"/>
	<path style="fill:#F69321;" d="M149.5,133.6c-0.8,0.7-0.9,2-0.2,2.9c0.7,0.9,2,1,2.9,0.2c0.9-0.8,0.9-2.1,0.2-2.9
		C151.6,133,150.3,132.9,149.5,133.6L149.5,133.6z"/>
	<path style="fill:#F69321;" d="M34.8,100.1c1.1-0.3,1.7-1.4,1.5-2.5c-0.2-1.1-1.3-1.8-2.4-1.5c-1.1,0.2-1.8,1.3-1.5,2.5
		C32.6,99.7,33.8,100.4,34.8,100.1L34.8,100.1z"/>
	<path style="fill:#F69321;" d="M80.4,149c0.4-1.1-0.2-2.2-1.2-2.6c-1-0.4-2.2,0.1-2.6,1.1c-0.4,1,0.1,2.2,1.2,2.7
		C78.8,150.6,80,150.1,80.4,149L80.4,149z"/>
	<path style="fill:#F69321;" d="M51.9,139.8c-0.8,0.8-0.7,2.2,0.2,2.9c0.9,0.7,2.2,0.6,2.9-0.3c0.7-0.9,0.6-2.2-0.3-2.9
		C53.9,138.9,52.7,139,51.9,139.8z"/>
	<path style="fill:#E01F26;" d="M58.4,147.5c1,0.6,2.2,0.4,2.9-0.6s0.4-2.2-0.5-2.8c-0.9-0.6-2.1-0.4-2.8,0.5
		C57.2,145.5,57.4,146.9,58.4,147.5z"/>
	<path style="fill:#E01F26;" d="M54.6,123.7c-0.9,0.7-1,2-0.2,2.9c0.8,0.8,2.1,0.9,2.9,0.1c0.8-0.8,0.9-2.1,0.1-2.8
		C56.7,123,55.4,123,54.6,123.7z"/>
	<path style="fill:#E01F26;" d="M70.7,129.4c-0.7,0.9-0.4,2.2,0.6,2.8c1,0.6,2.3,0.3,2.8-0.7c0.6-1,0.3-2.2-0.6-2.8
		C72.6,128.2,71.3,128.5,70.7,129.4z"/>
	<path style="fill:#F69321;" d="M85.8,143.8c-0.3,1.1,0.3,2.2,1.4,2.5c1.1,0.3,2.2-0.4,2.5-1.5c0.2-1.1-0.4-2.2-1.4-2.4
		C87.2,142.1,86.1,142.7,85.8,143.8L85.8,143.8z"/>
	<path style="fill:#F69321;" d="M78.7,141.3c-0.4,1,0.1,2.2,1.1,2.7c1.1,0.4,2.3-0.2,2.6-1.2c0.4-1.1-0.2-2.2-1.2-2.6
		C80.3,139.7,79.1,140.2,78.7,141.3L78.7,141.3z"/>
	<path style="fill:#E01F26;" d="M26.1,74.9c1.1,0.1,2.1-0.7,2.2-1.8s-0.6-2.1-1.8-2.3c-1.1-0.2-2.1,0.6-2.3,1.8C24.1,73.8,24.9,74.8,26.1,74.9
		z"/>
	<path style="fill:#E01F26;" d="M50.2,81.1c0,1.2,1,2.1,2.1,2.1c1.1,0,2-1,2-2c0-1.1-0.8-2-2-2.1C51.1,79,50.2,79.9,50.2,81.1z"/>
	<path style="fill:#E01F26;" d="M60.9,83.3c0-1.1-1-2-2.1-2c-1.1,0-2,1-2,2.2c0.1,1.2,1.1,2.1,2.2,2S61,84.4,60.9,83.3z"/>
	<path style="fill:#E01F26;" d="M35.8,67.8c0.2-1.1-0.4-2.2-1.5-2.4c-1.1-0.3-2.2,0.4-2.5,1.6c-0.2,1.2,0.5,2.2,1.6,2.4S35.6,68.9,35.8,67.8
		L35.8,67.8z"/>
	<path style="fill:#F69321;" d="M154.9,128.4c-0.7,0.8-0.7,2.1,0.1,2.9c0.8,0.8,2.1,0.8,2.9-0.1c0.8-0.9,0.7-2.2-0.1-2.9
		C156.9,127.5,155.6,127.6,154.9,128.4L154.9,128.4z"/>
	<path style="fill:#E01F26;" d="M52.5,86.8c-1.1,0.1-1.9,1.2-1.8,2.3c0.2,1.2,1.2,2,2.4,1.7c1.1-0.2,1.9-1.2,1.7-2.3
		C54.6,87.4,53.6,86.7,52.5,86.8L52.5,86.8z"/>
	<path style="fill:#F69321;" d="M161.8,130.5c-0.7,0.9-0.6,2.1,0.2,2.9c0.8,0.7,2.2,0.7,2.9-0.2s0.6-2.2-0.3-2.9
		C163.8,129.6,162.5,129.7,161.8,130.5L161.8,130.5z"/>
	<path d="M146.6,117.8c-0.7,0.8-0.6,2.1,0.2,2.8c0.8,0.8,2.1,0.7,2.9-0.2c0.7-0.9,0.6-2.2-0.3-2.9S147.3,116.9,146.6,117.8z"/>
	<path style="fill:#E01F26;" d="M113.6,26.4c1.1,0.2,2.1-0.5,2.4-1.6c0.2-1.1-0.5-2.2-1.6-2.4c-1.2-0.2-2.2,0.6-2.4,1.7
		C111.8,25.1,112.6,26.2,113.6,26.4L113.6,26.4z"/>
	<path style="fill:#F69321;" d="M102.8,16.8c0,1.1,0.9,2,2,2c1.1,0,2-0.9,2.1-2c0.1-1.1-0.8-2.1-2-2.1C103.8,14.7,102.8,15.7,102.8,16.8z"/>
	<path style="fill:#E01F26;" d="M95.3,17.4c0.2,1.1,1.1,1.9,2.2,1.8s1.9-1,1.8-2.2c-0.1-1.1-1.1-2-2.2-1.9C96,15.2,95.2,16.3,95.3,17.4
		L95.3,17.4z"/>
	<path style="fill:#E01F26;" d="M119.7,12c-0.2,1.1,0.4,2.2,1.5,2.4c1.1,0.3,2.2-0.3,2.5-1.4c0.3-1.1-0.3-2.2-1.5-2.5
		C121,10.2,119.9,10.9,119.7,12z"/>
	<path style="fill:#F69321;" d="M137.9,18.9c0.5-1,0.1-2.2-0.9-2.8c-1-0.6-2.3-0.1-2.8,0.9c-0.5,1,0,2.2,0.9,2.7
		C136.2,20.3,137.4,19.9,137.9,18.9z"/>
	<path style="fill:#F69321;" d="M129.8,12.9c-1.1-0.4-2.3,0.2-2.7,1.2c-0.4,1.1,0.2,2.2,1.2,2.6c1,0.4,2.2-0.1,2.6-1.1
		C131.4,14.6,130.8,13.4,129.8,12.9L129.8,12.9z"/>
	<path style="fill:#F69321;" d="M104.3,10.2c0,1.1,0.9,2.1,2,2.1c1.1,0,2.1-0.8,2.1-1.9c0.1-1.1-0.8-2.1-2-2.1C105.3,8.2,104.3,9.1,104.3,10.2
		L104.3,10.2z"/>
	<path style="fill:#F69321;" d="M95.1,4.1c0.1,1.1,1.1,1.9,2.2,1.8c1.1-0.1,1.9-1,1.9-2.2s-1.1-2-2.2-1.9C95.8,1.9,95,3,95.1,4.1L95.1,4.1z"/>
	<path style="fill:#E01F26;" d="M130.9,35.4c-1-0.6-2.3-0.2-2.8,0.8c-0.5,1-0.2,2.2,0.8,2.8c0.9,0.5,2.2,0.2,2.8-0.7
		C132.3,37.3,132,36,130.9,35.4L130.9,35.4z"/>
	<path style="fill:#E01F26;" d="M142.8,38.5c0.8-0.8,0.7-2.2-0.2-2.9c-0.9-0.7-2.2-0.6-2.9,0.3c-0.7,0.9-0.6,2.2,0.3,2.8
		C140.7,39.4,142,39.3,142.8,38.5L142.8,38.5z"/>
	<path style="fill:#E01F26;" d="M147.6,31.1c-0.9-0.8-2.2-0.6-2.9,0.2c-0.7,0.9-0.6,2.1,0.2,2.8c0.8,0.7,2.1,0.6,2.8-0.2
		C148.5,33.2,148.4,31.9,147.6,31.1L147.6,31.1z"/>
	<path style="fill:#E01F26;" d="M152.9,39.5c0.9-0.7,1-2,0.2-2.9c-0.8-0.8-2.1-0.9-2.9-0.1c-0.8,0.8-0.9,2.1-0.1,2.8
		C150.8,40.1,152.1,40.2,152.9,39.5L152.9,39.5z"/>
	<path style="fill:#E01F26;" d="M96.8,23.9c0.1,1.1,1.1,1.9,2.2,1.8c1.1-0.1,1.9-1,1.9-2.2c-0.1-1.1-1-2-2.2-1.9
		C97.5,21.7,96.7,22.7,96.8,23.9z"/>
	<path style="fill:#E01F26;" d="M106,30.1c0,1.1,0.8,2.1,1.9,2.2c1.1,0.1,2.1-0.7,2.2-1.8c0.2-1.1-0.7-2.2-1.9-2.2C107,28.1,106,29,106,30.1
		L106,30.1z"/>
	<path style="fill:#E01F26;" d="M107.6,36.8c-0.1,1.1,0.7,2.1,1.8,2.2c1.1,0.1,2.1-0.6,2.3-1.7c0.2-1-0.4-1.9-1.4-2.3c-0.1,0-0.3-0.1-0.4-0.1
		C108.8,34.9,107.7,35.7,107.6,36.8z"/>
	<path style="fill:#E01F26;" d="M115.3,38.2c-0.3,1.1,0.3,2.2,1.4,2.5c1,0.4,2.2-0.2,2.6-1.3c0.3-0.9-0.1-1.9-1-2.5c-0.1-0.1-0.3-0.1-0.4-0.2
		C116.8,36.5,115.6,37.1,115.3,38.2z"/>
	<path style="fill:#E01F26;" d="M45.7,32.6c0.7-0.9,0.6-2.1-0.2-2.9c-0.8-0.8-2.2-0.7-2.9,0.2c-0.7,0.9-0.6,2.2,0.3,2.9
		C43.7,33.6,45,33.5,45.7,32.6L45.7,32.6z"/>
	<path style="fill:#E01F26;" d="M93.7,46.7c1-0.3,1.6-1.4,1.4-2.5c-0.2-1.1-1.4-1.8-2.5-1.5c-1.1,0.3-1.7,1.5-1.3,2.6
		C91.6,46.4,92.7,47,93.7,46.7z"/>
	<path style="fill:#9D1D20;" d="M50.8,27.2c0.8-0.8,0.8-2,0.1-2.9c-0.8-0.8-2.1-0.9-2.9-0.1c-0.8,0.8-0.8,2.1,0,2.9
		C48.7,27.9,50,27.9,50.8,27.2z"/>
	<path style="fill:#E01F26;" d="M102.8,3.6c0,1.1,0.9,2,2,2c1.1,0,2-0.8,2.1-2s-0.8-2.1-2-2.1C103.7,1.5,102.7,2.5,102.8,3.6z"/>
	<path style="fill:#E01F26;" d="M118,4.9c-0.2,1.1,0.5,2.2,1.6,2.4c1.1,0.2,2.2-0.4,2.4-1.5s-0.4-2.2-1.6-2.5C119.3,3.1,118.2,3.8,118,4.9z"/>
	<path style="fill:#E01F26;" d="M125.4,6.7c-0.3,1.1,0.3,2.2,1.3,2.5c1,0.4,2.2-0.2,2.6-1.3c0.4-1.1-0.2-2.2-1.3-2.6
		C126.9,5,125.7,5.6,125.4,6.7z"/>
	<path style="fill:#F69321;" d="M135.4,8.1c-1.1-0.4-2.3,0.1-2.7,1.1s0.1,2.2,1.1,2.6c1,0.4,2.2,0,2.7-1C136.9,9.8,136.4,8.5,135.4,8.1z"/>
	<path style="fill:#F69321;" d="M134.7,22.4c-1-0.5-2.2-0.1-2.7,0.9c-0.5,1-0.1,2.2,0.9,2.7c0.9,0.5,2.2,0.1,2.7-0.9
		C136.1,24.2,135.8,23,134.7,22.4L134.7,22.4z"/>
	<path style="fill:#E01F26;" d="M124,49.1c0.6-1,0.3-2.2-0.8-2.8c-1-0.5-2.3-0.2-2.8,0.9c-0.5,1-0.1,2.2,0.8,2.7C122.2,50.3,123.4,50,124,49.1
		L124,49.1z"/>
	<path style="fill:#F69321;" d="M156.2,30.2c-0.8-0.8-2.1-0.8-2.9,0c-0.8,0.8-0.8,2.1,0,2.9c0.8,0.8,2,0.8,2.9,0.1
		C156.9,32.4,157,31,156.2,30.2L156.2,30.2z"/>
	<path style="fill:#F69321;" d="M161.1,25.8c-0.8-0.8-2.1-0.8-2.9,0c-0.8,0.8-0.8,2.1,0,2.9c0.8,0.8,2,0.8,2.9,0.1
		C161.9,27.9,161.9,26.6,161.1,25.8L161.1,25.8z"/>
	<path style="fill:#F69321;" d="M165.9,34.5c0.9-0.7,1.1-2,0.4-2.9c-0.7-0.9-2-1-2.9-0.3s-1,2-0.3,2.9C163.8,35.1,165,35.2,165.9,34.5
		L165.9,34.5z"/>
	<path style="fill:#E01F26;" d="M153.1,47.2c-0.6-1-2-1.2-2.9-0.5c-0.9,0.7-1.1,1.9-0.5,2.8c0.6,0.9,1.9,1.1,2.8,0.5
		C153.6,49.4,153.8,48.2,153.1,47.2L153.1,47.2z"/>
	<path style="fill:#E01F26;" d="M174.8,44.8c-0.6-1-1.8-1.4-2.8-0.9c-1,0.5-1.4,1.8-0.8,2.7c0.5,1,1.7,1.4,2.7,0.9
		C174.9,47.1,175.3,45.9,174.8,44.8L174.8,44.8z"/>
	<path style="fill:#E01F26;" d="M148.3,51.8c-0.7-1-1.9-1.2-2.9-0.6c-0.9,0.7-1.1,1.9-0.5,2.8c0.6,0.9,1.8,1.2,2.8,0.6
		C148.6,54.1,148.9,52.8,148.3,51.8L148.3,51.8z"/>
	<path style="fill:#E01F26;" d="M148.2,41c-0.8-0.9-2.1-0.9-2.9-0.1c-0.8,0.8-0.8,2-0.1,2.9c0.7,0.8,2,0.9,2.9,0.2
		C148.9,43.2,149,41.9,148.2,41L148.2,41z"/>
	<path style="fill:#E01F26;" d="M86.1,35.4c1-0.4,1.6-1.5,1.2-2.6c-0.4-1.1-1.6-1.6-2.7-1.2c-1.1,0.4-1.6,1.7-1.2,2.7
		C83.9,35.3,85.1,35.7,86.1,35.4L86.1,35.4z"/>
	<path style="fill:#9D1D20;" d="M84.7,28.8c1-0.4,1.6-1.5,1.2-2.6c-0.3-1.1-1.5-1.7-2.6-1.3c-1.1,0.4-1.6,1.6-1.2,2.6
		C82.5,28.7,83.7,29.2,84.7,28.8L84.7,28.8z"/>
	<path style="fill:#E01F26;" d="M98.5,43.6c0.2,1.1,1.1,1.9,2.2,1.8c1-0.1,1.9-1,1.8-2.2c0-1.1-1-2-2.2-1.9C99.2,41.5,98.3,42.5,98.5,43.6
		L98.5,43.6z"/>
	<path style="fill:#E01F26;" d="M84.1,15.1c1.1-0.3,1.7-1.4,1.4-2.5c-0.3-1.1-1.4-1.7-2.6-1.4c-1.1,0.4-1.7,1.5-1.4,2.6
		C81.9,14.9,83,15.4,84.1,15.1L84.1,15.1z"/>
	<path style="fill:#E01F26;" d="M80.8,21c0.4,1,1.6,1.6,2.6,1.2c1-0.3,1.6-1.5,1.2-2.5c-0.3-1.1-1.5-1.7-2.6-1.3C80.9,18.8,80.4,20,80.8,21
		L80.8,21z"/>
	<path style="fill:#E01F26;" d="M151,111.8c-0.6,0.9-0.3,2.2,0.6,2.8c0.9,0.7,2.2,0.4,2.8-0.6c0.6-1,0.3-2.3-0.7-2.8
		C152.8,110.6,151.6,111,151,111.8L151,111.8z"/>
	<path style="fill:#E01F26;" d="M63.5,85c0.1,1.2,1.2,2,2.2,1.8c1.1-0.2,1.9-1.1,1.8-2.2c-0.1-1-1-1.9-2.2-1.8C64.3,82.8,63.4,83.8,63.5,85
		L63.5,85z"/>
	<path style="fill:#E01F26;" d="M157.5,113.9c-0.5,0.9-0.2,2.2,0.7,2.8c0.9,0.6,2.2,0.3,2.8-0.7c0.6-1,0.3-2.2-0.7-2.8
		C159.3,112.6,158,112.9,157.5,113.9L157.5,113.9z"/>
	<path style="fill:#E01F26;" d="M170.2,118.3c-0.5,1-0.2,2.2,0.8,2.8c1,0.6,2.3,0.2,2.8-0.8s0.2-2.3-0.8-2.8S170.7,117.3,170.2,118.3
		L170.2,118.3z"/>
	<path style="fill:#E01F26;" d="M167.3,118.3c0.6-1,0.2-2.3-0.8-2.8c-1-0.5-2.2-0.2-2.8,0.8c-0.6,0.9-0.2,2.2,0.7,2.8
		C165.4,119.7,166.7,119.4,167.3,118.3L167.3,118.3z"/>
	<path style="fill:#E01F26;" d="M163.5,100.6c-0.4,1,0.2,2.1,1.3,2.5c1.1,0.4,2.2-0.2,2.6-1.3c0.3-1.1-0.3-2.2-1.4-2.6S163.8,99.6,163.5,100.6
		L163.5,100.6z"/>
	<path style="fill:#E01F26;" d="M169.8,102.6c-0.4,1,0.2,2.2,1.3,2.6s2.2-0.2,2.6-1.3c0.3-1.1-0.3-2.3-1.4-2.6
		C171.2,100.9,170.1,101.5,169.8,102.6z"/>
	<path style="fill:#E01F26;" d="M150.9,96.6c-0.4,1,0.2,2.2,1.3,2.6c1.1,0.4,2.2-0.2,2.6-1.3c0.3-1.1-0.3-2.3-1.4-2.6
		C152.3,94.9,151.2,95.5,150.9,96.6L150.9,96.6z"/>
	<path style="fill:#E01F26;" d="M176.1,104.6c-0.4,1,0.2,2.2,1.3,2.6s2.2-0.2,2.6-1.3c0.3-1.1-0.3-2.3-1.4-2.6
		C177.5,102.9,176.4,103.5,176.1,104.6L176.1,104.6z"/>
	<path style="fill:#E01F26;" d="M145.1,145.3c-0.9,0.6-1.2,1.8-0.6,2.8c0.6,1,1.9,1.3,2.9,0.6c1-0.7,1.2-1.9,0.6-2.9
		C147.2,144.9,146,144.7,145.1,145.3L145.1,145.3z"/>
	<path style="fill:#E01F26;" d="M59,67.3c-0.3,1.2,0.3,2.3,1.4,2.6c1.1,0.3,2.2-0.3,2.5-1.4c0.4-1-0.2-2.2-1.3-2.6S59.4,66.2,59,67.3z"/>
	<path style="fill:#E01F26;" d="M75.8,72.7c0.4-1-0.2-2.2-1.3-2.6c-1.1-0.4-2.2,0.2-2.6,1.3c-0.3,1.1,0.3,2.3,1.4,2.6
		C74.4,74.4,75.5,73.7,75.8,72.7L75.8,72.7z"/>
	<path style="fill:#E01F26;" d="M82.5,74.8c0.3-1-0.2-2.2-1.3-2.5c-1.1-0.4-2.2,0.2-2.6,1.3c-0.3,1.1,0.3,2.2,1.4,2.6
		C81,76.4,82.1,75.8,82.5,74.8L82.5,74.8z"/>
	<path d="M95.7,79c0.4-1-0.2-2.2-1.3-2.6c-1.1-0.4-2.2,0.2-2.6,1.3c-0.3,1.1,0.3,2.3,1.4,2.6C94.3,80.7,95.4,80.1,95.7,79L95.7,79z"
		/>
	<path style="fill:#E01F26;" d="M89.1,76.9c0.4-1-0.2-2.2-1.3-2.5c-1.1-0.4-2.2,0.2-2.6,1.3c-0.3,1.1,0.3,2.2,1.4,2.6
		C87.7,78.6,88.8,78,89.1,76.9L89.1,76.9z"/>
	<path d="M102.4,81.1c0.4-1-0.2-2.2-1.3-2.6s-2.2,0.2-2.6,1.3c-0.3,1.1,0.3,2.3,1.4,2.6C100.9,82.8,102.1,82.2,102.4,81.1z"/>
	<path d="M115.7,85.4c0.3-1-0.2-2.1-1.3-2.5c-1.1-0.4-2.2,0.2-2.6,1.3c-0.3,1.1,0.3,2.3,1.4,2.6C114.2,86.9,115.4,86.4,115.7,85.4z"
		/>
	<path d="M105.1,82c-0.3,1.2,0.3,2.3,1.4,2.6c1.1,0.3,2.2-0.3,2.5-1.4c0.4-1-0.2-2.2-1.3-2.6C106.7,80.2,105.5,80.9,105.1,82z"/>
	<path d="M122.3,87.5c0.4-1-0.2-2.2-1.3-2.6s-2.2,0.2-2.6,1.3c-0.3,1.1,0.3,2.3,1.4,2.6C120.8,89.1,122,88.5,122.3,87.5L122.3,87.5z
		"/>
	<path d="M128.9,89.6c0.4-1-0.2-2.2-1.3-2.5c-1.1-0.4-2.2,0.2-2.6,1.3c-0.3,1.1,0.3,2.3,1.4,2.6S128.6,90.6,128.9,89.6z"/>
	<path style="fill:#E01F26;" d="M135.6,91.7c0.4-1-0.2-2.2-1.3-2.6c-1.1-0.4-2.2,0.2-2.6,1.3c-0.3,1.1,0.3,2.3,1.4,2.6S135.2,92.8,135.6,91.7
		L135.6,91.7z"/>
	<path style="fill:#E01F26;" d="M74.8,80.2c0.4-1-0.2-2.2-1.3-2.6s-2.2,0.2-2.6,1.3c-0.3,1.1,0.3,2.3,1.4,2.6C73.3,81.9,74.5,81.3,74.8,80.2z"
		/>
	<path style="fill:#E01F26;" d="M81.9,82.5c0.4-1-0.2-2.2-1.3-2.5c-1.1-0.4-2.2,0.2-2.6,1.3c-0.3,1.1,0.3,2.2,1.4,2.6
		C80.5,84.1,81.6,83.5,81.9,82.5L81.9,82.5z"/>
	<path style="fill:#E01F26;" d="M89.1,84.8c0.4-1-0.2-2.2-1.3-2.5c-1.1-0.4-2.2,0.2-2.6,1.3c-0.3,1.1,0.3,2.2,1.4,2.6
		C87.7,86.4,88.8,85.8,89.1,84.8L89.1,84.8z"/>
	<path style="fill:#E01F26;" d="M117.7,93.9c0.4-1-0.2-2.2-1.3-2.6s-2.2,0.2-2.6,1.3c-0.3,1.1,0.3,2.3,1.4,2.6
		C116.3,95.5,117.4,94.9,117.7,93.9L117.7,93.9z"/>
	<path style="fill:#E01F26;" d="M132.1,98.4c0.4-1-0.2-2.2-1.3-2.6s-2.2,0.2-2.6,1.3c-0.3,1.1,0.3,2.3,1.4,2.6S131.8,99.5,132.1,98.4
		L132.1,98.4z"/>
	<path style="fill:#E01F26;" d="M75,87.8c0.4-1-0.2-2.2-1.3-2.6c-1.1-0.4-2.2,0.2-2.6,1.3c-0.3,1.1,0.3,2.3,1.4,2.6
		C73.6,89.5,74.7,88.9,75,87.8z"/>
	<path style="fill:#E01F26;" d="M82.5,90.2c0.4-1-0.2-2.2-1.3-2.5c-1.1-0.4-2.2,0.2-2.6,1.3c-0.3,1.1,0.3,2.2,1.4,2.6
		C81.1,91.9,82.2,91.3,82.5,90.2L82.5,90.2z"/>
	<path style="fill:#E01F26;" d="M90,92.6c0.4-1-0.2-2.2-1.3-2.5c-1.1-0.4-2.2,0.2-2.6,1.3c-0.3,1.1,0.3,2.2,1.4,2.6
		C88.6,94.2,89.7,93.7,90,92.6z"/>
	<path style="fill:#E01F26;" d="M76.5,95.2c0.4-1-0.2-2.2-1.3-2.6S73,92.9,72.6,94c-0.3,1.1,0.3,2.3,1.4,2.6C75,96.9,76.2,96.3,76.5,95.2
		L76.5,95.2z"/>
	<path style="fill:#E01F26;" d="M84.1,97.7c0.3-1-0.2-2.2-1.3-2.5c-1.1-0.4-2.2,0.2-2.6,1.3c-0.3,1.1,0.3,2.2,1.4,2.6
		C82.6,99.3,83.7,98.7,84.1,97.7L84.1,97.7z"/>
	<path style="fill:#E01F26;" d="M91.6,100.1c0.4-1-0.2-2.2-1.3-2.5s-2.2,0.2-2.6,1.3c-0.3,1.1,0.3,2.2,1.4,2.6
		C90.2,101.7,91.3,101.1,91.6,100.1L91.6,100.1z"/>
	<path style="fill:#E01F26;" d="M80.2,102.5c0.3-1-0.2-2.2-1.3-2.5c-1.1-0.4-2.2,0.2-2.6,1.3c-0.3,1.1,0.3,2.2,1.4,2.6
		C78.8,104.2,79.9,103.6,80.2,102.5z"/>
	<path style="fill:#E01F26;" d="M88.9,105.3c0.4-1-0.2-2.2-1.3-2.5c-1.1-0.4-2.2,0.2-2.6,1.3c-0.3,1.1,0.3,2.2,1.4,2.6
		C87.4,106.9,88.5,106.3,88.9,105.3L88.9,105.3z"/>
	<path style="fill:#E01F26;" d="M91.6,111.6c0.4-1-0.2-2.2-1.3-2.5c-1.1-0.4-2.2,0.2-2.6,1.3c-0.3,1.1,0.3,2.2,1.4,2.6
		C90.2,113.3,91.3,112.7,91.6,111.6z"/>
	<path style="fill:#E01F26;" d="M96.8,50.4c-0.3,1-1.4,1.6-2.5,1.3c-1.1-0.3-1.7-1.5-1.4-2.5c0.4-1.1,1.5-1.7,2.6-1.3
		C96.6,48.3,97.2,49.4,96.8,50.4L96.8,50.4z"/>
	<path style="fill:#E01F26;" d="M105.4,53.1c-0.3,1-1.4,1.6-2.5,1.3c-1.1-0.3-1.7-1.5-1.4-2.6c0.4-1.1,1.5-1.7,2.6-1.3
		C105.2,51,105.8,52.1,105.4,53.1z"/>
	<path style="fill:#E01F26;" d="M111.3,49.5c-0.3,1-1.4,1.6-2.5,1.3c-1.1-0.3-1.7-1.5-1.4-2.6c0.4-1.1,1.5-1.7,2.6-1.3
		C111.1,47.4,111.7,48.5,111.3,49.5L111.3,49.5z"/>
	<path style="fill:#E01F26;" d="M127.5,104.5c0.4-1-0.2-2.2-1.3-2.6s-2.2,0.2-2.6,1.3c-0.3,1.1,0.3,2.3,1.4,2.6
		C126,106.2,127.2,105.6,127.5,104.5z"/>
	<path style="fill:#E01F26;" d="M79.4,65.7c-0.3,1-1.4,1.7-2.5,1.4s-1.7-1.5-1.4-2.6c0.4-1.1,1.6-1.7,2.6-1.3C79.2,63.5,79.8,64.7,79.4,65.7
		L79.4,65.7z"/>
	<path style="fill:#E01F26;" d="M86.6,67.9c-0.3,1-1.4,1.6-2.5,1.3c-1.1-0.3-1.7-1.5-1.4-2.6c0.4-1.1,1.5-1.7,2.6-1.3
		C86.3,65.8,86.9,66.9,86.6,67.9z"/>
	<path d="M100.9,72.5c-0.3,1.1-1.4,1.7-2.5,1.3c-1.1-0.3-1.7-1.5-1.4-2.6c0.4-1.1,1.6-1.7,2.6-1.3C100.7,70.3,101.2,71.5,100.9,72.5
		L100.9,72.5z"/>
	<path style="fill:#E01F26;" d="M93.7,70.2c-0.3,1-1.4,1.6-2.5,1.3s-1.7-1.5-1.4-2.6c0.4-1.1,1.5-1.7,2.6-1.3C93.5,68.1,94.1,69.2,93.7,70.2z"
		/>
	<path d="M115.2,77.1c-0.3,1-1.4,1.6-2.5,1.3c-1.1-0.3-1.7-1.4-1.4-2.6c0.4-1.1,1.6-1.7,2.6-1.3C115,74.9,115.5,76.1,115.2,77.1z"/>
	<path d="M104.2,73.6c0.4-1.2,1.6-1.8,2.6-1.4c1.1,0.4,1.6,1.6,1.3,2.6c-0.3,1.1-1.4,1.7-2.5,1.4C104.4,75.9,103.8,74.7,104.2,73.6z
		"/>
	<path d="M122.4,79.3c-0.3,1-1.4,1.7-2.5,1.4s-1.7-1.5-1.4-2.6c0.4-1.1,1.6-1.7,2.6-1.3C122.2,77.2,122.7,78.3,122.4,79.3
		L122.4,79.3z"/>
	<path d="M129.5,81.6c-0.3,1-1.4,1.6-2.5,1.3c-1.1-0.3-1.7-1.4-1.4-2.6c0.4-1.1,1.6-1.7,2.6-1.3S129.9,80.6,129.5,81.6z"/>
	<path style="fill:#E01F26;" d="M136.7,83.9c-0.3,1-1.4,1.7-2.5,1.4c-1.1-0.3-1.7-1.4-1.4-2.6c0.4-1.1,1.6-1.7,2.6-1.3S137,82.9,136.7,83.9z"
		/>
	<path style="fill:#E01F26;" d="M84,59.6c-0.3,1-1.4,1.7-2.5,1.4s-1.7-1.5-1.4-2.6c0.4-1.1,1.6-1.7,2.6-1.3C83.8,57.4,84.3,58.6,84,59.6
		L84,59.6z"/>
	<path style="fill:#E01F26;" d="M91.5,62c-0.3,1-1.4,1.6-2.5,1.3c-1.1-0.3-1.7-1.5-1.4-2.5c0.4-1.1,1.5-1.7,2.6-1.3C91.3,59.8,91.8,61,91.5,62
		L91.5,62z"/>
	<path d="M106.5,66.7c-0.3,1.1-1.4,1.7-2.5,1.3c-1.1-0.3-1.7-1.5-1.4-2.6c0.4-1.1,1.6-1.7,2.6-1.3C106.3,64.6,106.8,65.7,106.5,66.7
		L106.5,66.7z"/>
	<path style="fill:#E01F26;" d="M99,64.4c-0.3,1.1-1.4,1.6-2.5,1.3s-1.7-1.5-1.4-2.6c0.4-1.1,1.5-1.7,2.6-1.3C98.8,62.2,99.3,63.3,99,64.4
		L99,64.4z"/>
	<path d="M121.5,71.5c-0.3,1-1.4,1.6-2.5,1.3c-1.1-0.3-1.7-1.4-1.4-2.6c0.4-1.1,1.6-1.7,2.6-1.3C121.2,69.4,121.8,70.5,121.5,71.5z"
		/>
	<path d="M110.1,67.9c0.4-1.2,1.6-1.8,2.6-1.4c1.1,0.4,1.6,1.6,1.3,2.6c-0.3,1.1-1.4,1.7-2.5,1.4S109.8,69.1,110.1,67.9z"/>
	<path d="M129,73.9c-0.3,1-1.4,1.6-2.5,1.3c-1.1-0.3-1.7-1.4-1.4-2.6c0.4-1.1,1.6-1.7,2.6-1.3C128.8,71.8,129.3,72.9,129,73.9z"/>
	<path style="fill:#E01F26;" d="M89.5,54.4c-0.3,1-1.4,1.7-2.5,1.4s-1.7-1.5-1.4-2.6c0.4-1.1,1.6-1.7,2.6-1.3C89.2,52.2,89.8,53.4,89.5,54.4
		L89.5,54.4z"/>
	<path style="fill:#E01F26;" d="M97.1,56.8c-0.3,1-1.4,1.6-2.5,1.3c-1.1-0.3-1.7-1.5-1.4-2.5c0.4-1.1,1.5-1.7,2.6-1.3
		C96.8,54.6,97.4,55.8,97.1,56.8z"/>
	<path d="M112.2,61.6c-0.3,1-1.4,1.7-2.5,1.3c-1.1-0.3-1.7-1.5-1.4-2.6c0.4-1.1,1.6-1.7,2.6-1.3C112,59.4,112.6,60.6,112.2,61.6z"/>
	<path style="fill:#E01F26;" d="M104.6,59.2c-0.3,1-1.4,1.6-2.5,1.3c-1.1-0.3-1.7-1.5-1.4-2.6c0.4-1.1,1.5-1.7,2.6-1.3
		C104.4,57,105,58.2,104.6,59.2z"/>
	<path d="M127.4,66.5c-0.3,1-1.4,1.6-2.5,1.3c-1.1-0.3-1.7-1.4-1.4-2.6c0.4-1.1,1.6-1.7,2.6-1.3C127.2,64.3,127.8,65.5,127.4,66.5z"
		/>
	<path d="M115.9,62.8c0.4-1.2,1.6-1.8,2.6-1.4c1.1,0.4,1.6,1.6,1.3,2.6c-0.3,1.1-1.4,1.7-2.5,1.4S115.6,64,115.9,62.8z"/>
	<path d="M135,68.9c-0.3,1-1.4,1.6-2.5,1.3c-1.1-0.3-1.7-1.4-1.4-2.6c0.4-1.1,1.6-1.7,2.6-1.3S135.4,67.8,135,68.9z"/>
	<path style="fill:#E01F26;" d="M136.5,76.3c-0.3,1-1.4,1.7-2.5,1.4c-1.1-0.3-1.7-1.4-1.4-2.6c0.4-1.1,1.6-1.7,2.6-1.3
		C136.2,74.1,136.8,75.2,136.5,76.3L136.5,76.3z"/>
	<path style="fill:#E01F26;" d="M153.4,119.9c-0.7,0.8-0.5,2.1,0.4,2.8c0.9,0.7,2.2,0.6,2.9-0.3c0.7-0.9,0.5-2.2-0.4-2.9S154,119,153.4,119.9
		L153.4,119.9z"/>
	<path style="fill:#E01F26;" d="M127.3,127.4c0.5,1,1.8,1.4,2.8,0.8c1-0.6,1.4-1.9,0.8-2.8c-0.6-1-1.8-1.2-2.8-0.7
		C127.1,125.2,126.8,126.4,127.3,127.4L127.3,127.4z"/>
	<path d="M148.6,125.4c-0.8,0.8-0.7,2,0,2.9c0.8,0.8,2.1,0.8,2.9,0c0.8-0.8,0.8-2.1-0.1-2.9C150.6,124.6,149.4,124.6,148.6,125.4
		L148.6,125.4z"/>
	<path style="fill:#E01F26;" d="M178.1,52c-0.4-1.1-1.7-1.6-2.7-1.1s-1.5,1.6-1.1,2.6c0.4,1,1.6,1.5,2.6,1.2C178,54.2,178.5,53,178.1,52
		L178.1,52z"/>
	<path style="fill:#E01F26;" d="M169.8,49.6c-0.5-1.1-1.7-1.5-2.8-1c-1,0.5-1.4,1.8-0.9,2.7c0.5,1,1.7,1.4,2.7,1
		C169.9,51.9,170.3,50.7,169.8,49.6L169.8,49.6z"/>
	<path style="fill:#E01F26;" d="M180.6,59.4c-0.3-1.1-1.5-1.7-2.6-1.4c-1.1,0.3-1.7,1.5-1.4,2.5c0.3,1.1,1.4,1.7,2.5,1.4
		C180.3,61.7,180.9,60.5,180.6,59.4L180.6,59.4z"/>
	<path style="fill:#E01F26;" d="M165.5,56.2c-0.5-1.1-1.6-1.5-2.7-1.1s-1.5,1.6-1.1,2.6c0.4,1,1.6,1.5,2.6,1.1C165.4,58.4,166,57.2,165.5,56.2
		L165.5,56.2z"/>
	<path style="fill:#E01F26;" d="M155.2,80c-1.1,0-2,1-2,2c0,1.1,0.9,2,2,2.1c1.1,0.1,2.1-0.8,2.1-2C157.3,80.9,156.4,79.9,155.2,80z"/>
	<path style="fill:#F69321;" d="M180.4,95.8c-1.1-0.2-2.1,0.5-2.4,1.6c-0.2,1.1,0.4,2.2,1.5,2.4c1.1,0.3,2.2-0.4,2.5-1.6
		C182.2,97.1,181.5,96,180.4,95.8L180.4,95.8z"/>
	<path style="fill:#F69321;" d="M171.7,95.3c-0.2,1.1,0.4,2.2,1.6,2.4c1.1,0.3,2.2-0.4,2.4-1.6c0.2-1.2-0.5-2.2-1.6-2.4S171.9,94.2,171.7,95.3
		L171.7,95.3z"/>
	<path style="fill:#E01F26;" d="M62.2,59.8c-0.6,1.1-0.1,2.4,0.9,2.8c1,0.5,2.2,0,2.7-0.9c0.5-1,0.2-2.2-0.8-2.8C64,58.3,62.7,58.7,62.2,59.8z
		"/>
	<path style="fill:#E01F26;" d="M72,63.9c0.5-1,0.1-2.2-0.9-2.7c-1-0.5-2.2-0.1-2.8,0.9c-0.5,1.1-0.1,2.3,1,2.8S71.5,64.9,72,63.9z"/>
	<path style="fill:#E01F26;" d="M147,65.7c0.4-0.6,0.5-1.3,0.2-2c-0.2-0.6-0.7-1-1.2-1.2c-0.5-0.2-1.1-0.2-1.6,0c-0.8,0.4-1.2,1.1-1.2,1.9
		c0,0.3,0.1,0.5,0.2,0.8c0.3,0.6,0.8,1.1,1.4,1.2c0.4,0.1,0.8,0.1,1.2-0.1C146.4,66.3,146.7,66.1,147,65.7L147,65.7z"/>
	<path style="fill:#E01F26;" d="M158.5,69.6c0.2,1.1,1.3,1.8,2.4,1.6c1.1-0.2,1.8-1.3,1.6-2.4c-0.2-1.2-1.4-1.8-2.5-1.5
		C159,67.5,158.3,68.5,158.5,69.6L158.5,69.6z"/>
	<path style="fill:#E01F26;" d="M139.6,63c-0.6-1-1.8-1.4-2.8-0.8c-0.9,0.6-1.3,1.8-0.8,2.7c0.4,0.9,1.7,1.3,2.7,0.9
		C139.7,65.3,140.1,64.1,139.6,63L139.6,63z"/>
	<path style="fill:#E01F26;" d="M143.2,130.3c-0.8,0.7-1,1.9-0.3,2.8c0.7,0.9,2,1.1,2.9,0.4c0.9-0.7,1-2,0.3-2.9
		C145.3,129.8,144,129.6,143.2,130.3L143.2,130.3z"/>
	<path style="fill:#E01F26;" d="M46.4,137.4c0.8,0.8,2.1,0.8,2.9,0s0.8-2.1,0-2.9c-0.8-0.8-2-0.8-2.9-0.1C45.6,135.2,45.6,136.6,46.4,137.4
		L46.4,137.4z"/>
	<path style="fill:#F69321;" d="M134.5,153.2c-0.4-1-1.6-1.5-2.6-1.1c-1,0.4-1.6,1.6-1.2,2.6c0.4,1.1,1.6,1.6,2.7,1.2
		C134.4,155.5,134.9,154.2,134.5,153.2z"/>
	<path style="fill:#E01F26;" d="M41.5,120.5c0.6,1,1.9,1.3,2.8,0.7c0.9-0.6,1.2-1.9,0.6-2.8c-0.6-0.9-1.8-1.2-2.8-0.7S40.9,119.5,41.5,120.5
		L41.5,120.5z"/>
	<path style="fill:#E01F26;" d="M50,117.7c-0.9,0.6-1.2,1.9-0.5,2.8c0.7,0.9,2,1.1,2.9,0.4s1.1-1.9,0.5-2.8C52.2,117.3,51,117.1,50,117.7
		L50,117.7z"/>
	<path style="fill:#E01F26;" d="M59.3,122.1c0.8,0.9,2.1,0.9,2.9,0.1c0.8-0.8,0.8-2.1,0.1-2.9c-0.7-0.8-2-0.9-2.8-0.2
		C58.6,119.9,58.5,121.3,59.3,122.1z"/>
	<path d="M117.6,156.3c-1.1,0.2-1.8,1.2-1.7,2.3s1.2,1.9,2.4,1.7c1.2-0.2,1.9-1.3,1.6-2.4C119.7,156.7,118.6,156.1,117.6,156.3z"/>
	<path style="fill:#F69321;" d="M116.1,149.8c-1.1,0.2-1.8,1.2-1.7,2.4c0.2,1.1,1.2,1.9,2.4,1.7c1.2-0.2,1.9-1.3,1.7-2.4
		C118.3,150.3,117.2,149.6,116.1,149.8L116.1,149.8z"/>
	<path d="M124.8,154.5c-1.1,0.3-1.7,1.4-1.4,2.5c0.3,1.1,1.4,1.7,2.5,1.4c1.1-0.3,1.7-1.5,1.4-2.6
		C127,154.8,125.8,154.2,124.8,154.5L124.8,154.5z"/>
	<path style="fill:#E01F26;" d="M104.7,159.6c0-1.1-0.9-2-2-2c-1.1,0-2,0.9-2.1,2c-0.1,1.1,0.8,2.1,2,2.1C103.8,161.6,104.8,160.7,104.7,159.6
		z"/>
	<path style="fill:#E01F26;" d="M103.2,153c0-1.1-0.9-2.1-2-2.1c-1.1,0-2.1,0.8-2.1,1.9c-0.1,1.1,0.8,2.1,2,2.1
		C102.2,155,103.1,154.1,103.2,153L103.2,153z"/>
	<path d="M112.4,159.1c-0.1-1.1-1.1-1.9-2.2-1.8c-1.1,0.1-1.9,1.1-1.9,2.2c0.1,1.1,1.1,2,2.2,1.9
		C111.7,161.2,112.5,160.2,112.4,159.1L112.4,159.1z"/>
	<path style="fill:#E01F26;" d="M97.1,159.3c0.1-1.1-0.7-2.1-1.8-2.2c-1.1-0.1-2.1,0.6-2.3,1.8c-0.2,1.1,0.6,2.1,1.8,2.3
		C96,161.3,97,160.4,97.1,159.3z"/>
	<path style="fill:#F69321;" d="M104.7,146.3c0-1.1-0.9-2-2-2c-1.1,0-2,0.9-2,2c-0.1,1.1,0.8,2.1,2,2.1C103.8,148.4,104.7,147.4,104.7,146.3
		L104.7,146.3z"/>
	<path style="fill:#E01F26;" d="M69.2,110.2c-0.1,0.1-0.2,0.2-0.3,0.3c-0.2,0.2-0.3,0.5-0.3,0.7c-0.2,0.7,0,1.4,0.5,1.9
		c0.1,0.1,0.2,0.2,0.3,0.3c0.2,0.2,0.5,0.3,0.8,0.4c0.7,0.2,1.4,0,1.9-0.5c0.8-0.8,0.8-2.1,0.1-2.9
		C71.3,109.7,70.1,109.5,69.2,110.2L69.2,110.2z"/>
	<path style="fill:#E01F26;" d="M109.2,132.8c-0.1-1.1-1.1-1.9-2.2-1.9c-1.1,0.1-1.9,1-1.9,2.1c0,1.1,1,2,2.2,1.9
		C108.5,135,109.3,134,109.2,132.8z"/>
	<path style="fill:#E01F26;" d="M123.4,148.1c-1.1,0.3-1.7,1.4-1.4,2.5c0.3,1.1,1.4,1.7,2.6,1.4c1.1-0.4,1.7-1.5,1.4-2.6
		C125.6,148.3,124.5,147.7,123.4,148.1z"/>
	<path style="fill:#F69321;" d="M33.2,92.5c1.1-0.2,1.8-1.2,1.7-2.3c-0.1-1.1-1.1-1.9-2.3-1.8c-1.1,0.1-1.9,1.1-1.8,2.3
		C31,91.9,32.1,92.7,33.2,92.5L33.2,92.5z"/>
	<path style="fill:#E01F26;" d="M130.5,145.5c-1,0.4-1.5,1.6-1.1,2.6c0.4,1,1.6,1.6,2.7,1.1c1.1-0.5,1.6-1.7,1.1-2.7
		C132.7,145.6,131.5,145.1,130.5,145.5L130.5,145.5z"/>
	<path d="M141.4,149.9c-0.6-1-1.8-1.4-2.7-0.8c-1,0.5-1.4,1.7-0.9,2.7s1.7,1.4,2.8,0.9C141.5,152.1,141.9,150.9,141.4,149.9
		L141.4,149.9z"/>
	<path style="fill:#E01F26;" d="M132.2,132.2c-0.6-1-1.8-1.4-2.7-0.8c-1,0.5-1.4,1.7-0.9,2.7s1.7,1.4,2.8,0.9
		C132.4,134.5,132.8,133.2,132.2,132.2L132.2,132.2z"/>
	<path style="fill:#E01F26;" d="M133.6,139c-0.5-1-1.7-1.4-2.7-0.9c-0.9,0.5-1.4,1.6-0.9,2.7c0.4,1,1.7,1.5,2.7,1
		C133.7,141.2,134.1,140,133.6,139L133.6,139z"/>
	<path style="fill:#E01F26;" d="M122.8,134.3c-1,0.4-1.6,1.5-1.2,2.6c0.3,1.1,1.5,1.7,2.6,1.3c1.1-0.4,1.6-1.6,1.2-2.6
		C125,134.5,123.8,133.9,122.8,134.3z"/>
	<path style="fill:#E01F26;" d="M49,93.6c-0.2-1.1-1.3-1.7-2.4-1.6c-1.1,0.2-1.8,1.3-1.6,2.4c0.2,1.2,1.4,1.8,2.5,1.5S49.2,94.6,49,93.6
		L49,93.6z"/>
	<path style="fill:#F69321;" d="M26.9,103.8c0.3,1.1,1.5,1.7,2.6,1.4c1.1-0.3,1.7-1.5,1.4-2.5c-0.3-1.1-1.4-1.7-2.5-1.4S26.6,102.6,26.9,103.8
		L26.9,103.8z"/>
	<path style="fill:#E01F26;" d="M55.3,104.4c0.5,1.1,1.8,1.5,2.8,1c1-0.5,1.4-1.7,0.9-2.7c-0.5-1-1.6-1.4-2.7-1
		C55.3,102.1,54.8,103.3,55.3,104.4z"/>
	<path d="M161.8,78.7c1.1-0.1,2-1,1.9-2.2c-0.1-1.2-1.1-2-2.2-1.8c-1.1,0.1-1.9,1.1-1.8,2.2C159.7,77.9,160.7,78.7,161.8,78.7
		L161.8,78.7z"/>
	<path d="M156.7,136c-0.8,0.8-0.8,2-0.1,2.9c0.8,0.8,2.1,0.9,2.9,0.1c0.8-0.8,0.8-2.1,0-2.9C158.8,135.2,157.5,135.2,156.7,136
		L156.7,136z"/>
	<path d="M166.3,124.6c-0.6,0.9-0.4,2.1,0.5,2.8c0.9,0.7,2.2,0.5,2.9-0.5c0.6-1,0.4-2.2-0.6-2.9
		C168.2,123.5,166.9,123.7,166.3,124.6z"/>
	<path d="M159.6,122.6c-0.7,0.9-0.5,2.2,0.4,2.9c0.9,0.7,2.2,0.5,2.9-0.4c0.7-0.9,0.5-2.2-0.4-2.9
		C161.6,121.5,160.3,121.7,159.6,122.6L159.6,122.6z"/>
	<path d="M174.3,70.6c-1.1,0.2-1.8,1.2-1.7,2.3c0.1,1.1,1.1,1.9,2.3,1.8c1.1-0.1,1.9-1.1,1.8-2.3C176.4,71.2,175.4,70.4,174.3,70.6z
		"/>
	<path d="M181.2,72.9c-1.1,0.1-1.9,1.1-1.8,2.2c0.1,1.1,1,1.9,2.2,1.9c1.1-0.1,2-1.1,1.9-2.2C183.4,73.7,182.3,72.8,181.2,72.9
		L181.2,72.9z"/>
	<path d="M180,65.4c-1.1,0.2-1.8,1.3-1.6,2.4c0.2,1.1,1.2,1.8,2.3,1.6c1.1-0.2,1.9-1.2,1.7-2.4C182.2,65.9,181.1,65.2,180,65.4
		L180,65.4z"/>
	<path d="M154.5,105.4c-0.4,1,0,2.2,1,2.7c1,0.5,2.3,0.1,2.7-1c0.5-1.1,0-2.3-1-2.7C156.2,104,155,104.5,154.5,105.4L154.5,105.4z"
		/>
	<path d="M173.5,111.6c-0.4,1,0,2.2,1,2.7c1,0.5,2.3,0,2.7-1.1c0.4-1.1-0.1-2.3-1.1-2.7C175.1,110.1,173.9,110.6,173.5,111.6z"/>
	<path d="M170.9,111.3c0.5-1.1,0-2.3-1.1-2.7c-1.1-0.4-2.2,0.1-2.7,1.1c-0.5,1,0,2.2,1,2.7S170.4,112.3,170.9,111.3L170.9,111.3z"/>
	<path d="M157.2,98.6c-0.4,1,0.2,2.2,1.3,2.5s2.2-0.2,2.6-1.3c0.3-1.1-0.3-2.3-1.4-2.6C158.6,97,157.5,97.6,157.2,98.6z"/>
	<path d="M160.9,107.4c-0.4,1,0,2.2,1,2.7c1,0.5,2.2,0.1,2.7-1c0.5-1,0-2.3-1.1-2.7C162.5,106,161.4,106.4,160.9,107.4L160.9,107.4z
		"/>
	<path d="M151.1,140.9c-0.9,0.7-1,1.9-0.4,2.8c0.7,0.9,2,1.1,2.9,0.4c0.9-0.7,1-2,0.3-2.9S152,140.2,151.1,140.9L151.1,140.9z"/>
	<path d="M143.6,138.3c-0.9,0.6-1.1,1.9-0.5,2.8c0.6,0.9,1.9,1.2,2.9,0.5s1.2-2,0.5-2.9C145.8,137.8,144.5,137.7,143.6,138.3
		L143.6,138.3z"/>
	<path d="M159.8,84.2c0,1.1,0.8,2,1.9,2.1c1.1,0.1,2.1-0.8,2.2-1.9s-0.9-2.1-2-2.1C160.8,82.2,159.8,83.1,159.8,84.2L159.8,84.2z"/>
	<path d="M170.3,86.6c0.1-1.2-0.8-2.1-1.9-2.2c-1.1-0.1-2.1,0.8-2.2,1.8c-0.1,1.1,0.8,2,1.9,2.2C169.3,88.6,170.2,87.8,170.3,86.6
		L170.3,86.6z"/>
	<path d="M181.4,88.2c-1.1-0.1-2.1,0.7-2.2,1.8c-0.1,1.1,0.6,2.1,1.8,2.3c1.1,0.2,2.1-0.6,2.3-1.8C183.4,89.3,182.6,88.3,181.4,88.2
		L181.4,88.2z"/>
	<path d="M169.3,94.3c0.2-1.1-0.5-2.2-1.6-2.4s-2.2,0.5-2.4,1.6c-0.2,1.1,0.5,2.1,1.6,2.4C168,96.1,169.1,95.4,169.3,94.3z"/>
	<path d="M159,91.5c-0.2,1.1,0.5,2.1,1.6,2.4c1.1,0.2,2.2-0.5,2.4-1.6c0.2-1.2-0.6-2.2-1.7-2.4C160.2,89.7,159.2,90.4,159,91.5
		L159,91.5z"/>
	<path d="M154.9,87.7c-1.1-0.1-2.1,0.6-2.3,1.7c-0.2,1.1,0.5,2.1,1.6,2.3c1.1,0.2,2.2-0.5,2.4-1.7C156.8,88.8,156,87.8,154.9,87.7
		L154.9,87.7z"/>
	<path d="M169.7,71.1c-0.2-1.1-1.2-1.9-2.3-1.7c-1.1,0.2-1.9,1.2-1.7,2.3c0.2,1.1,1.2,1.8,2.3,1.7C169.1,73.3,169.9,72.2,169.7,71.1
		L169.7,71.1z"/>
	<path d="M172.8,87.9c-0.1,1.1,0.7,2.1,1.8,2.2c1.1,0.1,2.2-0.7,2.2-1.9c0.1-1.2-0.7-2.2-1.9-2.2C173.8,86,172.9,86.8,172.8,87.9z"
		/>
	<path d="M170.5,78.8c-0.1-1.2-1.1-2-2.2-1.9c-1.1,0.1-2,1-1.9,2.1c0,1.1,0.9,1.9,2.1,1.9C169.6,80.9,170.5,80,170.5,78.8
		L170.5,78.8z"/>
	<path d="M145.6,72.4c0.2,1.1,1.3,1.8,2.4,1.6c0.3,0,0.5-0.2,0.8-0.3c0.7-0.4,1-1.3,0.8-2.2c-0.1-0.8-0.7-1.3-1.3-1.5
		c-0.1-0.1-0.3-0.1-0.4-0.1c-0.3,0-0.5,0-0.8,0C146,70.2,145.4,71.3,145.6,72.4L145.6,72.4z"/>
	<path d="M74.8,154c0.4-1.1-0.1-2.2-1.1-2.6c-1-0.4-2.2,0-2.7,1c-0.5,1,0,2.3,1.1,2.7C73.2,155.5,74.4,155,74.8,154L74.8,154z"/>
	<path d="M69.7,120.2c-0.8,0.8-0.7,2.2,0.3,2.9c0.9,0.8,2.2,0.6,2.9-0.3c0.7-0.9,0.5-2.2-0.3-2.8C71.7,119.3,70.4,119.4,69.7,120.2z
		"/>
	<path d="M89.8,131.2c-0.3,1.1,0.4,2.2,1.5,2.5c1.2,0.3,2.3-0.4,2.5-1.5c0.2-1.1-0.5-2.2-1.5-2.4C91.2,129.5,90.2,130.1,89.8,131.2
		L89.8,131.2z"/>
	<path d="M95.5,139.1c0.2-1.1-0.6-2.1-1.6-2.3c-1.1-0.2-2.1,0.5-2.4,1.6c-0.2,1.1,0.5,2.2,1.6,2.4C94.3,141,95.3,140.2,95.5,139.1
		L95.5,139.1z"/>
	<path d="M113.8,116.4c-1,0.3-1.6,1.4-1.4,2.5c0.2,1.1,1.4,1.8,2.5,1.4c1.1-0.3,1.7-1.5,1.3-2.6
		C115.9,116.7,114.8,116.1,113.8,116.4z"/>
	<path d="M89.5,126.3c1.2,0.3,2.3-0.3,2.6-1.4c0-0.1,0.1-0.3,0.1-0.4c0.1-0.9-0.5-1.8-1.5-2.1c-1-0.4-2.2,0.2-2.6,1.3
		S88.4,125.9,89.5,126.3z"/>
	<path d="M80.9,135c0.4-1,0-2.2-1-2.7c-1-0.4-2.2,0-2.7,1c-0.5,1-0.1,2.3,1,2.7C79.2,136.5,80.4,136.1,80.9,135L80.9,135z"/>
	<path d="M78,118.4c0.6-0.9,0.4-2.2-0.4-2.8c-0.8-0.7-2.1-0.6-2.9,0.3c-0.7,0.8-0.6,2.2,0.4,2.9C76,119.5,77.3,119.3,78,118.4
		L78,118.4z"/>
	<path d="M82,123.2c1.1,0.6,2.4,0.1,2.8-0.9c0.5-1,0-2.2-0.9-2.7c-1-0.5-2.2-0.2-2.8,0.8S80.9,122.6,82,123.2L82,123.2z"/>
	<path d="M69.6,144.2c-0.6,1-0.1,2.2,0.9,2.8c1,0.6,2.3,0.1,2.8-0.9c0.5-1,0-2.2-0.9-2.7C71.3,142.9,70.1,143.2,69.6,144.2z"/>
	<path d="M63.6,143c1,0.7,2.3,0.4,2.9-0.6c0.6-1,0.3-2.2-0.6-2.8c-0.9-0.6-2.2-0.4-2.8,0.6C62.3,141.1,62.6,142.4,63.6,143L63.6,143
		z"/>
	<path d="M87.8,151.1c0.2-1.1-0.4-2.2-1.5-2.4c-1.1-0.3-2.2,0.3-2.5,1.4c-0.3,1.1,0.3,2.2,1.5,2.5C86.5,152.9,87.6,152.2,87.8,151.1
		L87.8,151.1z"/>
	<path d="M95.4,152.5c0.1-1.1-0.7-2.1-1.8-2.3c-1.1-0.1-2.1,0.6-2.3,1.7c-0.2,1.1,0.6,2.2,1.7,2.4S95.3,153.6,95.4,152.5z"/>
	<path d="M82.1,156.5c0.3-1.1-0.3-2.2-1.3-2.5c-1-0.4-2.2,0.2-2.6,1.3c-0.4,1.1,0.2,2.2,1.3,2.6C80.6,158.2,81.8,157.6,82.1,156.5
		L82.1,156.5z"/>
	<path d="M103.1,139.7c0-1.1-0.9-2.1-1.9-2.1c-1.1,0-2,0.8-2.1,1.9c-0.1,1.1,0.8,2.1,1.9,2.2S103.1,140.8,103.1,139.7L103.1,139.7z"
		/>
	<path d="M66.1,136.8c1,0.6,2.2,0.4,2.8-0.6c0.6-0.9,0.4-2.2-0.5-2.8c-0.9-0.6-2.1-0.4-2.8,0.5C64.9,134.8,65.1,136.1,66.1,136.8
		L66.1,136.8z"/>
	<path d="M59.9,132c0.9,0.8,2.2,0.6,2.9-0.2c0.7-0.9,0.6-2.1-0.2-2.8c-0.8-0.7-2.1-0.6-2.8,0.2S59.1,131.2,59.9,132L59.9,132z"/>
	<path d="M56.9,135.4c-0.8,0.9-0.6,2.2,0.3,2.9c0.9,0.7,2.2,0.6,2.9-0.3c0.7-0.9,0.5-2.2-0.3-2.9C58.9,134.5,57.6,134.6,56.9,135.4z
		"/>
	<path d="M72.8,140.7c1,0.6,2.2,0.1,2.7-0.9c0.5-1,0.1-2.2-0.8-2.7c-0.9-0.5-2.2-0.1-2.7,0.9C71.4,139,71.7,140.2,72.8,140.7
		L72.8,140.7z"/>
	<path d="M132.6,113.3c-0.8,0.8-0.9,2-0.2,2.9c0.2,0.2,0.4,0.4,0.6,0.5c0.1,0.1,0.2,0.1,0.4,0.1c0.6,0.2,1.4,0,1.9-0.5
		c0.7-0.6,0.9-1.5,0.6-2.3c-0.1-0.2-0.2-0.5-0.4-0.7C134.7,112.5,133.4,112.5,132.6,113.3L132.6,113.3z"/>
	<path d="M139.7,115.6c-0.8,0.8-0.8,2.1,0,2.9s2.1,0.8,2.9-0.1c0.8-0.9,0.8-2.2-0.1-2.9S140.5,114.8,139.7,115.6L139.7,115.6z"/>
	<path d="M148.1,103.4c-0.5,1-0.1,2.2,0.9,2.7c1,0.5,2.2,0.1,2.8-0.9c0.5-1.1,0.1-2.3-1-2.8C149.8,102,148.6,102.5,148.1,103.4z"/>
	<path d="M131.5,105c-0.7,0.8-0.6,2,0.2,2.8c0.8,0.8,2.1,0.7,2.9-0.2c0.8-0.9,0.6-2.2-0.3-2.9C133.4,104,132.1,104.1,131.5,105
		L131.5,105z"/>
	<path d="M145.3,103.4c0.1-0.1,0.1-0.3,0.2-0.4c0.3-1-0.2-2-1.1-2.4c-0.1-0.1-0.3-0.1-0.4-0.1c-0.9-0.2-1.9,0.2-2.3,1.1
		c-0.3,0.6-0.3,1.3,0,1.9c0.2,0.3,0.4,0.7,0.8,0.9c0.1,0.1,0.2,0.1,0.4,0.2C143.8,104.7,144.8,104.3,145.3,103.4L145.3,103.4z"/>
	<path d="M144.4,109.8c-0.6,0.9-0.4,2.1,0.5,2.8c0.9,0.7,2.2,0.5,2.9-0.5c0.7-1,0.4-2.3-0.5-2.9C146.2,108.7,145,108.9,144.4,109.8
		L144.4,109.8z"/>
	<path d="M140.9,110.3c0.7-1,0.6-2.3-0.4-2.9c-0.2-0.2-0.5-0.3-0.8-0.3c-0.8-0.2-1.6,0.1-2.1,0.8c-0.5,0.6-0.6,1.5-0.2,2.2
		c0.1,0.2,0.3,0.5,0.5,0.6c0.1,0.1,0.2,0.2,0.3,0.2c0.1,0.1,0.2,0.1,0.4,0.2C139.5,111.2,140.3,111,140.9,110.3L140.9,110.3z"/>
	<path d="M142.2,93.8c0.3-1.1-0.3-2.3-1.4-2.6c-1.1-0.3-2.2,0.3-2.5,1.3c-0.3,1,0.2,2.1,1.3,2.5C140.6,95.5,141.8,94.9,142.2,93.8z"
		/>
	<path d="M144.8,94.2c-0.1,0.1-0.1,0.2-0.1,0.4c-0.4,1,0.2,2.2,1.3,2.6c0.3,0.1,0.5,0.1,0.8,0.1c0.8-0.1,1.5-0.6,1.8-1.5
		c0.3-0.9,0-1.8-0.6-2.3c-0.2-0.2-0.4-0.3-0.7-0.4C146.2,92.9,145.2,93.4,144.8,94.2L144.8,94.2z"/>
	<path d="M135.5,99.1c-0.5,0.9-0.2,2.1,0.8,2.7c0.9,0.6,2.2,0.3,2.8-0.8c0.6-1,0.2-2.3-0.9-2.8C137.2,97.8,136,98.2,135.5,99.1
		L135.5,99.1z"/>
	<path d="M136.4,145c0.5,1,1.8,1.4,2.8,0.8c1-0.6,1.4-1.8,0.8-2.8c-0.6-1-1.8-1.3-2.8-0.8C136.3,142.8,135.9,144,136.4,145z"/>
	<path d="M136.7,137.3c0.6,1,1.8,1.3,2.8,0.7c1-0.6,1.2-1.9,0.6-2.8c-0.6-0.9-1.9-1.2-2.8-0.6C136.4,135.1,136.1,136.3,136.7,137.3
		L136.7,137.3z"/>
	<path d="M126.4,109.9c-0.8,0.6-1,1.9-0.3,2.8c0.6,0.9,1.9,1.1,2.9,0.4c0.9-0.8,1-2,0.3-2.9C128.4,109.4,127.2,109.3,126.4,109.9
		L126.4,109.9z"/>
	<path d="M96.3,87.1c0.4-1-0.2-2.2-1.3-2.6c-1.1-0.4-2.2,0.2-2.6,1.3c-0.3,1.1,0.3,2.3,1.4,2.6C94.8,88.7,96,88.1,96.3,87.1
		L96.3,87.1z"/>
	<path d="M110.6,91.6c0.3-1-0.2-2.1-1.3-2.5c-1.1-0.4-2.2,0.2-2.6,1.3c-0.3,1.1,0.3,2.3,1.4,2.6C109.2,93.2,110.3,92.6,110.6,91.6
		L110.6,91.6z"/>
	<path d="M99.5,88.1c-0.3,1.2,0.3,2.3,1.4,2.6c1.1,0.3,2.2-0.3,2.5-1.4c0.4-1-0.2-2.2-1.3-2.6S99.9,86.9,99.5,88.1z"/>
	<path d="M124.9,96.2c0.3-1-0.2-2.2-1.3-2.5c-1.1-0.4-2.2,0.2-2.6,1.3c-0.3,1.1,0.3,2.3,1.4,2.6S124.6,97.2,124.9,96.2z"/>
	<path d="M97.5,95c0.4-1-0.2-2.2-1.3-2.6s-2.2,0.2-2.6,1.3c-0.3,1.1,0.3,2.3,1.4,2.6C96.1,96.6,97.2,96,97.5,95z"/>
	<path d="M112.5,99.8c0.3-1-0.2-2.1-1.3-2.5c-1.1-0.4-2.2,0.2-2.6,1.3c-0.3,1.1,0.3,2.3,1.4,2.6C111.1,101.4,112.2,100.8,112.5,99.8
		L112.5,99.8z"/>
	<path d="M101.1,96.1c-0.3,1.2,0.3,2.3,1.4,2.6c1.1,0.3,2.2-0.3,2.5-1.4c0.4-1-0.2-2.2-1.3-2.6C102.7,94.4,101.5,95,101.1,96.1z"/>
	<path d="M120,102.1c0.3-1-0.2-2.2-1.3-2.5s-2.2,0.2-2.6,1.3c-0.3,1.1,0.3,2.3,1.4,2.6S119.7,103.2,120,102.1L120,102.1z"/>
	<path d="M99.2,102.5c0.4-1-0.2-2.2-1.3-2.6c-1.1-0.4-2.2,0.2-2.6,1.3c-0.3,1.1,0.3,2.3,1.4,2.6C97.8,104.1,98.9,103.5,99.2,102.5z"
		/>
	<path d="M114.4,107.3c0.3-1-0.2-2.1-1.3-2.5c-1.1-0.4-2.2,0.2-2.6,1.3c-0.3,1.1,0.3,2.3,1.4,2.6C113,108.9,114.1,108.3,114.4,107.3
		z"/>
	<path d="M102.9,103.7c-0.3,1.2,0.3,2.3,1.4,2.6c1.1,0.3,2.2-0.3,2.5-1.4c0.4-1-0.2-2.2-1.3-2.6
		C104.5,101.9,103.3,102.5,102.9,103.7z"/>
	<path d="M97.5,108c0.4-1-0.2-2.2-1.3-2.6c-1.1-0.4-2.2,0.2-2.6,1.3c-0.3,1.1,0.3,2.3,1.4,2.6C96,109.7,97.2,109.1,97.5,108
		L97.5,108z"/>
	<path d="M114.7,113.5c0.3-1-0.2-2.1-1.3-2.5c-1.1-0.4-2.2,0.2-2.6,1.3c-0.3,1.1,0.3,2.3,1.4,2.6
		C113.3,115.1,114.4,114.5,114.7,113.5L114.7,113.5z"/>
	<path d="M102.2,109.5c-0.3,1.2,0.3,2.3,1.4,2.6c1.1,0.3,2.2-0.3,2.5-1.4c0.4-1-0.2-2.2-1.3-2.6
		C103.8,107.8,102.6,108.4,102.2,109.5z"/>
	<path d="M100.3,113.9c0.4-1-0.2-2.2-1.3-2.6c-1.1-0.4-2.2,0.2-2.6,1.3c-0.3,1.1,0.3,2.3,1.4,2.6C98.9,115.6,100,115,100.3,113.9
		L100.3,113.9z"/>
	<path d="M122,109.7c0.3-1-0.2-2.2-1.3-2.5s-2.2,0.2-2.6,1.3c-0.3,1.1,0.3,2.3,1.4,2.6S121.7,110.8,122,109.7z"/>
	<path d="M119.5,116.5c0.5,1.1,1.7,1.4,2.8,0.9c1-0.6,1.4-1.8,0.8-2.8c-0.6-0.9-1.8-1.3-2.7-0.8
		C119.5,114.2,119.1,115.5,119.5,116.5L119.5,116.5z"/>
	<path d="M134.3,120.5c-0.9,0.7-1,1.9-0.4,2.8s1.9,1.1,2.9,0.4c0.9-0.7,1.1-2.1,0.3-2.9C136.4,120,135.1,119.9,134.3,120.5
		L134.3,120.5z"/>
	<path d="M144.3,126.1c0.9-0.8,0.9-2.1,0.1-2.9c-0.8-0.8-2.1-0.8-2.9-0.1c-0.8,0.7-0.9,2-0.1,2.8
		C142.1,126.7,143.4,126.8,144.3,126.1L144.3,126.1z"/>
	<path d="M126.7,117.8c-0.2,0.2-0.4,0.3-0.6,0.5s-0.3,0.4-0.3,0.7c-0.1,0.5-0.1,1.1,0.2,1.6c0.4,0.7,1.2,1.1,2.1,0.9
		c0.3-0.1,0.6-0.2,0.8-0.3c1-0.7,1.3-2,0.6-2.9c-0.2-0.3-0.6-0.6-0.9-0.7c-0.4-0.1-0.8-0.2-1.2-0.1
		C127.2,117.5,126.9,117.6,126.7,117.8L126.7,117.8z"/>
	<path d="M135.8,127.6c-0.9,0.6-1.1,1.9-0.5,2.8c0.6,0.9,1.9,1.2,2.8,0.5c1-0.6,1.1-2,0.5-2.9C137.9,127.2,136.7,127,135.8,127.6
		L135.8,127.6z"/>
	<path d="M89.5,158.2c0.2-1.1-0.5-2.1-1.6-2.4c-1.1-0.2-2.1,0.4-2.4,1.5c-0.3,1.1,0.4,2.2,1.6,2.5C88.2,160.1,89.3,159.3,89.5,158.2
		L89.5,158.2z"/>
	<path d="M119.7,121.4c-0.8,0.5-1.2,1.5-0.8,2.4c0.4,1.1,1.6,1.6,2.7,1.1c1.1-0.5,1.6-1.7,1.1-2.7c-0.5-1-1.7-1.5-2.7-1.1
		C119.9,121.3,119.8,121.3,119.7,121.4z"/>
	<path d="M143.8,86.1c0.1-1.2-0.7-2.2-1.9-2.2c-1.1-0.1-2.1,0.7-2.2,1.8c-0.1,1,0.6,2,1.8,2.2C142.7,88,143.7,87.2,143.8,86.1
		L143.8,86.1z"/>
	<path d="M160.3,61.1c-0.4-1.1-1.6-1.6-2.6-1.2c-1,0.4-1.6,1.6-1.2,2.6c0.4,1,1.5,1.6,2.6,1.2C160.1,63.4,160.8,62.2,160.3,61.1z"/>
	<path d="M143.9,78.2c-0.1-1.2-1.1-2-2.3-1.8c-1.1,0.2-1.9,1.1-1.8,2.2c0.1,1,1,1.8,2.1,1.8C143.2,80.3,144,79.3,143.9,78.2z"/>
	<path d="M147.3,85.7c-0.6,0.3-1,0.9-1.1,1.6c-0.1,0.9,0.4,1.9,1.3,2.2c0.1,0.1,0.3,0.1,0.4,0.1c1,0.2,1.9-0.4,2.3-1.4
		c0.1-0.1,0.1-0.3,0.1-0.4c0.2-1.1-0.5-2-1.4-2.3c-0.1,0-0.3-0.1-0.4-0.1C148.1,85.5,147.7,85.5,147.3,85.7L147.3,85.7z"/>
	<path d="M143.8,86.2c0.2-1.1-0.5-2.2-1.6-2.4s-2.2,0.5-2.4,1.6c-0.2,1.1,0.5,2.1,1.6,2.4C142.5,88,143.6,87.3,143.8,86.2z"/>
	<path d="M146.6,79.8c0,1.1,0.9,2,2.1,2c1.1,0,2-1,2-2.2c-0.1-1.2-1.1-2.1-2.2-2C147.4,77.8,146.5,78.7,146.6,79.8L146.6,79.8z"/>
	<path d="M142.5,70.4c-0.3-1.1-1.5-1.7-2.6-1.3c-1.1,0.4-1.7,1.5-1.4,2.5c0.3,1,1.4,1.6,2.5,1.4C142.2,72.7,142.8,71.5,142.5,70.4
		L142.5,70.4z"/>
	<path d="M46.4,124.1c-0.9,0.7-1.1,2-0.4,2.9c0.7,0.9,2.1,1.1,2.9,0.3c0.9-0.7,1-2,0.3-2.8C48.6,123.6,47.3,123.4,46.4,124.1z"/>
	<path d="M41.6,128.6c-0.9,0.7-1.1,2-0.4,2.9c0.8,0.9,2,1,2.9,0.3s1-2,0.3-2.8C43.7,128.1,42.5,127.9,41.6,128.6L41.6,128.6z"/>
	<path d="M51.3,133c0.8,0.8,2.1,0.8,2.9,0s0.8-2.1,0-2.9c-0.8-0.8-2-0.8-2.9-0.1C50.5,130.8,50.5,132.1,51.3,133L51.3,133z"/>
	<path d="M36.6,125.1c0.7,1,1.9,1.2,2.9,0.6c0.9-0.6,1.2-1.9,0.6-2.8c-0.6-0.9-1.8-1.2-2.8-0.6C36.3,122.9,36,124.2,36.6,125.1
		L36.6,125.1z"/>
	<path d="M110.9,152.6c-0.1-1.1-1.1-1.9-2.2-1.9c-1.1,0.1-1.9,1.1-1.9,2.2c0,1.1,1,2,2.2,1.9C110.2,154.7,111,153.7,110.9,152.6
		L110.9,152.6z"/>
	<path d="M64.3,148.8c-0.6,1-0.2,2.3,0.8,2.8c1,0.5,2.3,0.2,2.8-0.8s0.1-2.2-0.8-2.7C66.1,147.6,64.9,147.9,64.3,148.8L64.3,148.8z"
		/>
	<path d="M97.1,146c0.1-1.1-0.7-2.1-1.7-2.3c-1.1-0.1-2.1,0.6-2.3,1.7c-0.2,1.1,0.6,2.2,1.7,2.3C96,147.9,97,147.1,97.1,146
		L97.1,146z"/>
	<path d="M101.5,133.1c0-1.1-0.8-2.1-1.9-2.2c-1.1-0.1-2.1,0.7-2.2,1.8c-0.2,1.1,0.7,2.2,1.9,2.2
		C100.5,135.1,101.5,134.2,101.5,133.1L101.5,133.1z"/>
	<path d="M83.5,114.1c-0.6,0.9-0.3,2.2,0.8,2.8c1,0.6,2.3,0.2,2.8-0.9c0.5-1,0.1-2.2-0.8-2.7C85.3,112.8,84.1,113.1,83.5,114.1z"/>
	<path d="M101.5,119.8c0.1-1.1-0.7-2.1-1.8-2.2c-1-0.1-2,0.7-2.2,1.8c-0.2,1.1,0.6,2.2,1.8,2.3C100.4,121.8,101.4,120.9,101.5,119.8
		L101.5,119.8z"/>
	<path d="M64.3,114.7c-0.9,0.7-1,2.1-0.2,2.9c0.8,0.9,2.1,0.9,2.9,0.1c0.8-0.8,0.8-2.1,0.1-2.9C66.4,114.1,65.2,114,64.3,114.7z"/>
	<path d="M94.1,118.6c0.3-1.1-0.3-2.2-1.3-2.5c-1-0.3-2.1,0.2-2.5,1.3c-0.4,1.1,0.2,2.2,1.3,2.6C92.6,120.3,93.8,119.7,94.1,118.6z"
		/>
	<path d="M80.4,109.3c-0.8-0.7-2-0.6-2.8,0.2c-0.8,0.8-0.7,2.1,0.2,2.9c0.9,0.8,2.2,0.6,2.9-0.3C81.3,111.2,81.2,110,80.4,109.3
		L80.4,109.3z"/>
	<path d="M119.6,144.4c-0.3-1.1-1.3-1.8-2.4-1.5c-1,0.2-1.7,1.3-1.5,2.4c0.2,1.1,1.3,1.8,2.4,1.6
		C119.2,146.6,119.8,145.5,119.6,144.4L119.6,144.4z"/>
	<path d="M110.7,139.3c-0.1-1.1-1.1-1.9-2.2-1.8c-1.1,0.1-1.9,1-1.8,2.2c0.1,1.1,1,2,2.2,1.9C110,141.4,110.8,140.4,110.7,139.3
		L110.7,139.3z"/>
	<path d="M112.2,145.8c-0.2-1.1-1.1-1.9-2.2-1.8s-1.9,1.1-1.8,2.2c0.1,1.1,1.1,2,2.2,1.9C111.5,147.9,112.3,146.9,112.2,145.8z"/>
	<path d="M99.8,126.3c0.1-1.1-0.7-2.1-1.8-2.3c-1.1-0.1-2.1,0.6-2.3,1.7c-0.2,1.1,0.6,2.2,1.8,2.4C98.7,128.3,99.8,127.4,99.8,126.3
		L99.8,126.3z"/>
	<path d="M107.7,126.3c-0.1-1.1-1.1-2-2.2-1.9c-1.1,0-2,0.9-2,2.1c0,1.1,1,2,2.2,2C106.9,128.4,107.8,127.5,107.7,126.3L107.7,126.3
		z"/>
	<path d="M72.6,103.9c-0.9,0.7-1.1,1.9-0.4,2.9c0.8,0.9,2,1,2.9,0.3c0.8-0.8,1-2,0.3-2.8C74.8,103.4,73.5,103.2,72.6,103.9
		L72.6,103.9z"/>
	<path d="M109,119.5c-0.2-1.1-1.1-1.9-2.2-1.8c-1,0.1-1.9,1-1.8,2.2c0,1.1,1,2,2.2,1.9C108.3,121.7,109.2,120.7,109,119.5L109,119.5
		z"/>
	<path d="M121.4,127.8c-1,0.4-1.6,1.5-1.2,2.6c0.4,1.1,1.6,1.6,2.7,1.2c1.1-0.4,1.6-1.7,1.2-2.7
		C123.6,127.9,122.4,127.4,121.4,127.8z"/>
	<path d="M114.7,123.9c-0.5-0.4-1.1-0.6-1.8-0.4c-0.8,0.2-1.4,0.8-1.6,1.6c-0.1,0.3-0.1,0.5,0,0.8c0.2,1.1,1.3,1.9,2.5,1.6
		c0.3-0.1,0.6-0.2,0.8-0.3c0.7-0.5,1-1.3,0.8-2.2C115.3,124.5,115,124.2,114.7,123.9L114.7,123.9z"/>
	<path d="M126.7,142.1c-0.4-1.1-1.6-1.6-2.6-1.2c-1,0.3-1.6,1.5-1.2,2.5c0.3,1.1,1.5,1.7,2.6,1.3
		C126.6,144.3,127.1,143.1,126.7,142.1L126.7,142.1z"/>
	<path d="M115.7,136.4c-1.1,0.2-1.8,1.3-1.6,2.4c0.2,1.1,1.3,1.8,2.4,1.6c1.2-0.2,1.8-1.4,1.5-2.5
		C117.9,136.8,116.8,136.1,115.7,136.4L115.7,136.4z"/>
	<path d="M114.3,129.9c-1.1,0.2-1.8,1.3-1.6,2.4c0.2,1.1,1.3,1.9,2.5,1.6c1.2-0.2,1.8-1.4,1.6-2.5
		C116.5,130.3,115.4,129.7,114.3,129.9L114.3,129.9z"/>
	<path d="M37.3,44.9c0.5-1,0.2-2.2-0.8-2.8c-1-0.6-2.3-0.2-2.8,0.8c-0.5,1-0.2,2.3,0.8,2.8C35.5,46.2,36.8,45.8,37.3,44.9z"/>
	<path d="M40.2,44.8c-0.6,1-0.2,2.3,0.8,2.8c1,0.5,2.2,0.2,2.8-0.8c0.6-1,0.2-2.2-0.7-2.8C42.1,43.5,40.8,43.8,40.2,44.8z"/>
	<path d="M56.5,51.3c0.6-0.9,0.3-2.2-0.6-2.8c-0.9-0.6-2.2-0.4-2.8,0.6c-0.6,1-0.3,2.3,0.7,2.8C54.7,52.5,55.9,52.2,56.5,51.3
		L56.5,51.3z"/>
	<path d="M50,49.3c0.5-0.9,0.2-2.2-0.7-2.8c-1-0.6-2.2-0.3-2.8,0.7c-0.6,1-0.3,2.2,0.7,2.8C48.2,50.5,49.4,50.2,50,49.3z"/>
	<path d="M81.1,53.2c0.8-0.6,1-1.9,0.3-2.8c-0.6-0.9-1.9-1.1-2.9-0.4c-0.9,0.8-1,2-0.3,2.9C79.1,53.8,80.3,53.9,81.1,53.2z"/>
	<path style="fill:#F69321;" d="M44.6,38.2c-0.7,0.9-0.5,2.2,0.4,2.9c0.9,0.6,2.2,0.4,2.8-0.5c0.7-0.9,0.5-2.2-0.4-2.9
		C46.5,37,45.3,37.2,44.6,38.2z"/>
	<path d="M31.4,58.5c0.4-1-0.2-2.2-1.3-2.5c-1.1-0.4-2.2,0.2-2.6,1.3c-0.3,1.1,0.3,2.3,1.4,2.6C29.9,60.2,31.1,59.6,31.4,58.5z"/>
	<path d="M74.9,49.9c0.8-0.8,0.9-2,0.2-2.9c-0.7-0.9-2.1-1-2.9-0.1c-0.1,0.1-0.2,0.2-0.3,0.3c-0.2,0.2-0.3,0.5-0.4,0.8
		c-0.2,0.7,0,1.4,0.5,1.9C72.8,50.6,74,50.6,74.9,49.9z"/>
	<path d="M44,62.6c0.3-1-0.2-2.1-1.3-2.5c-1.1-0.4-2.2,0.2-2.6,1.3c-0.3,1.1,0.3,2.2,1.4,2.5C42.6,64.2,43.7,63.6,44,62.6L44,62.6z"
		/>
	<path d="M50.3,64.6c0.3-1-0.2-2.2-1.3-2.5c-1.1-0.4-2.2,0.2-2.6,1.3c-0.3,1.1,0.3,2.3,1.4,2.6S50,65.6,50.3,64.6z"/>
	<path d="M53,57.7c0.4-1,0-2.2-1-2.7c-1-0.5-2.3-0.1-2.7,1c-0.5,1.1,0,2.3,1,2.7C51.3,59.2,52.5,58.7,53,57.7L53,57.7z"/>
	<path d="M34,51.6c0.4-1,0-2.2-1-2.7c-1-0.5-2.3,0-2.7,1.1c-0.4,1.1,0.1,2.3,1.1,2.7S33.6,52.6,34,51.6z"/>
	<path d="M36.6,51.9c-0.5,1.1,0,2.3,1.1,2.7c1,0.4,2.2-0.1,2.7-1.1c0.5-1,0-2.2-1-2.7S37.1,50.8,36.6,51.9z"/>
	<path d="M76,58.2c0.7-0.8,0.6-2-0.2-2.8c-0.8-0.8-2.1-0.7-2.9,0.2c-0.8,0.9-0.6,2.2,0.3,2.9C74.1,59.1,75.4,59,76,58.2z"/>
	<path d="M70.8,25.8c-0.6-1-1.8-1.3-2.8-0.7c-1,0.6-1.2,1.9-0.6,2.8c0.6,0.9,1.8,1.2,2.8,0.6C71.1,28.1,71.4,26.8,70.8,25.8
		L70.8,25.8z"/>
	<path d="M63.9,24.9c0.9-0.6,1.1-1.9,0.5-2.8c-0.6-0.9-1.9-1.2-2.9-0.5c-1,0.7-1.2,2-0.5,2.9C61.7,25.3,63,25.5,63.9,24.9z"/>
	<path d="M60.9,45.4c0.7-0.8,0.6-2.1-0.2-2.8c-0.8-0.8-2.2-0.7-2.9,0.2C57,43.7,57.1,45,58,45.7S60.2,46.2,60.9,45.4L60.9,45.4z"/>
	<path d="M88,46.7c-0.5-1-1.7-1.5-2.7-0.9c-1,0.6-1.4,1.8-0.8,2.8c0.6,1,1.8,1.3,2.7,0.8C88,48.9,88.4,47.7,88,46.7L88,46.7z"/>
	<path d="M67.8,47.6c0.8-0.8,0.8-2,0-2.9c-0.8-0.8-2.1-0.8-2.9,0.1c-0.8,0.9-0.8,2.2,0.1,2.9C65.8,48.5,67,48.4,67.8,47.6L67.8,47.6
		z"/>
	<path d="M71.7,35.5c0.9-0.6,1.1-1.9,0.5-2.8c-0.6-1-1.9-1.2-2.8-0.5c-1,0.6-1.2,2-0.5,2.9C69.6,36,70.8,36.1,71.7,35.5z"/>
	<path d="M63.2,37.1c-0.9,0.8-0.9,2.1-0.1,2.9c0.8,0.8,2.1,0.8,2.9,0.1c0.8-0.7,0.9-2,0.2-2.8C65.4,36.4,64.1,36.3,63.2,37.1z"/>
	<path d="M88.6,39.3c-0.1-0.1-0.1-0.2-0.2-0.4c-0.5-0.8-1.6-1.2-2.6-0.8c-1.1,0.5-1.6,1.7-1.1,2.7c0.5,1,1.7,1.5,2.7,1
		C88.5,41.5,89,40.4,88.6,39.3L88.6,39.3z"/>
	<path d="M58.9,37.8c0.8-0.8,0.7-2,0-2.8c-0.8-0.8-2.1-0.8-2.9,0c-0.8,0.8-0.8,2.1,0.1,2.9C56.9,38.6,58.1,38.5,58.9,37.8L58.9,37.8
		z"/>
	<path d="M27.5,97.8c1.1-0.2,1.8-1.3,1.6-2.4c-0.2-1.1-1.2-1.8-2.3-1.6c-1.1,0.2-1.9,1.2-1.7,2.4C25.2,97.3,26.4,98,27.5,97.8
		L27.5,97.8z"/>
	<path d="M50.8,73.1c-0.2,1.2,0.6,2.2,1.7,2.4c1.1,0.1,2.1-0.6,2.3-1.7c0.2-1.1-0.5-2.1-1.6-2.3C52.1,71.2,51.1,72,50.8,73.1z"/>
	<path d="M34.7,75.2c0.1-1.1-0.7-2.1-1.8-2.2c-1.1-0.1-2.2,0.7-2.2,1.9c-0.1,1.2,0.7,2.2,1.9,2.2C33.6,77.2,34.6,76.4,34.7,75.2z"/>
	<path d="M45.8,76.9c-1.1-0.1-2.1,0.8-2.2,1.9s0.8,2.1,2,2.1c1.1,0,2.1-0.9,2.1-1.9C47.7,77.9,46.9,77,45.8,76.9z"/>
	<path d="M37.1,76.6c-0.1,1.2,0.8,2.1,1.9,2.2c1.1,0,2.1-0.8,2.2-1.8c0.1-1.1-0.8-2-1.9-2.2C38.2,74.6,37.2,75.4,37.1,76.6z"/>
	<path d="M27.1,67.3c1.1,0.2,2.1-0.5,2.4-1.6c0.2-1.1-0.4-2.2-1.5-2.4c-1.1-0.3-2.2,0.4-2.5,1.6C25.2,66,26,67.1,27.1,67.3
		L27.1,67.3z"/>
	<path d="M38.2,68.8C38,70,38.7,71,39.8,71.2c1.1,0.2,2.2-0.5,2.4-1.6c0.2-1.1-0.5-2.1-1.6-2.4C39.5,67,38.4,67.7,38.2,68.8z"/>
	<path d="M44.5,71c-0.2,1.2,0.6,2.2,1.7,2.4c1.1,0.2,2.1-0.6,2.3-1.6c0.2-1.1-0.5-2.1-1.6-2.4C45.8,69.1,44.7,69.8,44.5,71L44.5,71z
		"/>
	<path d="M37,84.3c0.1,1.2,1,2,2.2,1.9c1.1-0.1,2-1,1.9-2.1c0-1.1-1-1.9-2.1-1.9C37.9,82.2,37,83.2,37,84.3L37,84.3z"/>
	<path d="M45.7,84.5c-1.1,0.1-2,1-1.9,2.2c0.1,1.2,1.1,2,2.2,1.8c1.1-0.1,1.9-1.1,1.8-2.2C47.8,85.2,46.8,84.4,45.7,84.5z"/>
	<path d="M61.9,90.7c-0.2-0.8-0.8-1.4-1.6-1.6c-0.3-0.1-0.5-0.1-0.8,0c-1.1,0.2-1.9,1.3-1.6,2.5c0.2,1.2,1.4,1.9,2.5,1.6
		C61.5,92.9,62.1,91.8,61.9,90.7z"/>
	<path d="M25.8,82.6c1.1,0,2-0.9,2-2c0-1.1-0.9-2-2-2.1c-1.1-0.1-2.1,0.8-2.1,2C23.7,81.7,24.7,82.6,25.8,82.6L25.8,82.6z"/>
	<path d="M32.4,84.8c1.1-0.1,2-1,2-2.1c0-1.1-1-2-2.1-2c-1.1,0-2,0.9-2,2.1C30.4,84,31.3,84.9,32.4,84.8z"/>
	<path d="M136.8,33.7c0.6-0.9,0.4-2.2-0.6-2.8c-1-0.6-2.3-0.3-2.8,0.7c-0.6,1-0.3,2.2,0.6,2.8C134.9,34.9,136.2,34.7,136.8,33.7z"/>
	<path d="M87.9,18.8c0.3,1.1,1.3,1.8,2.4,1.5c1.1-0.2,1.7-1.3,1.5-2.4c-0.2-1.1-1.3-1.8-2.4-1.6C88.3,16.6,87.7,17.7,87.9,18.8z"/>
	<path d="M110.4,17.1c-0.1,1.1,0.7,2.1,1.7,2.3c1.1,0.1,2.1-0.6,2.3-1.7c0.2-1.1-0.6-2.2-1.7-2.3C111.5,15.2,110.5,16,110.4,17.1z"
		/>
	<path d="M119.4,25.6c-0.3,1.1,0.3,2.2,1.3,2.5c1,0.4,2.2-0.2,2.5-1.3c0.4-1.1-0.2-2.2-1.3-2.6C120.9,23.9,119.7,24.5,119.4,25.6z"
		/>
	<path d="M129.3,27.1c-1.1-0.5-2.3,0-2.7,1c-0.4,1,0,2.2,1,2.7c1,0.4,2.2,0,2.7-1C130.8,28.9,130.4,27.6,129.3,27.1L129.3,27.1z"/>
	<path d="M104.4,23.4c0,1.1,0.9,2.1,1.9,2.1c1.1,0,2-0.8,2.1-1.9c0.1-1.1-0.8-2.1-1.9-2.2S104.4,22.3,104.4,23.4L104.4,23.4z"/>
	<path d="M125,20.4c-0.4,1.1,0.2,2.2,1.2,2.6c1,0.4,2.2-0.1,2.6-1.1s-0.1-2.2-1.1-2.7C126.6,18.8,125.4,19.4,125,20.4L125,20.4z"/>
	<path d="M116.1,11.3c0.2-1.1-0.6-2.2-1.7-2.4c-1.2-0.1-2.2,0.6-2.3,1.8c-0.1,1.1,0.7,2.1,1.8,2.3C114.9,13.1,115.9,12.4,116.1,11.3
		L116.1,11.3z"/>
	<path d="M117.8,18.4c-0.2,1.1,0.4,2.2,1.4,2.4c1,0.3,2.1-0.4,2.4-1.4c0.3-1.1-0.3-2.2-1.4-2.5C119.1,16.6,118,17.3,117.8,18.4
		L117.8,18.4z"/>
	<path d="M96.6,10.6c0.1,1.1,1.1,1.9,2.2,1.9c1.1-0.1,2-1.1,1.9-2.2c0-1.1-1-2-2.2-1.9C97.3,8.4,96.5,9.4,96.6,10.6L96.6,10.6z"/>
	<path d="M132.8,47.3c0.7-0.8,0.6-2.2-0.4-2.9c-1-0.7-2.3-0.5-2.9,0.4s-0.4,2.2,0.4,2.8C130.8,48.3,132.1,48.2,132.8,47.3z"/>
	<path d="M137.8,42.9c0.8-0.8,0.6-2.2-0.3-2.9c-0.9-0.8-2.2-0.6-2.9,0.3s-0.5,2.2,0.3,2.8C135.8,43.8,137.1,43.7,137.8,42.9z"/>
	<path d="M125.5,40c-1.1-0.6-2.4-0.1-2.8,0.9c-0.1,0.1-0.1,0.3-0.1,0.4c-0.2,0.9,0.2,1.9,1.1,2.3c0.1,0.1,0.2,0.1,0.4,0.2
		c0.8,0.2,1.6,0,2.2-0.6c0.1-0.1,0.2-0.2,0.2-0.3C127,41.8,126.6,40.5,125.5,40L125.5,40z"/>
	<path d="M141.4,26.4c-1-0.6-2.2-0.4-2.8,0.6c-0.6,1-0.4,2.2,0.5,2.8c0.9,0.6,2.1,0.4,2.8-0.5C142.5,28.4,142.4,27,141.4,26.4
		L141.4,26.4z"/>
	<path d="M121.1,33.1c-0.4,1.1,0.2,2.2,1.2,2.6c1,0.4,2.2-0.1,2.7-1.1c0.5-1,0-2.3-1.1-2.7C122.6,31.4,121.4,32,121.1,33.1z"/>
	<path d="M113.6,31c-0.2,1.1,0.5,2.2,1.5,2.4c1.1,0.2,2.2-0.4,2.5-1.5s-0.4-2.2-1.5-2.5C115,29.2,113.9,29.9,113.6,31z"/>
	<path d="M98.3,30.3c0.1,1.1,1.1,1.9,2.2,1.9c1.1-0.1,1.9-1,1.9-2.1c0-1.1-1-2-2.2-1.9C99,28.2,98.2,29.2,98.3,30.3z"/>
	<path d="M99.8,36.8c0.1,1.1,1.1,2,2.2,1.9c1.1,0,2-1,2-2.1c0-1.1-1-2-2.2-2C100.6,34.7,99.7,35.7,99.8,36.8z"/>
	<path d="M116,43.1c-1.1-0.3-2.3,0.3-2.6,1.4c-0.3,1.1,0.3,2.2,1.3,2.5c1,0.3,2.1-0.2,2.5-1.3C117.7,44.7,117.1,43.5,116,43.1z"/>
	<path d="M135.3,56.4c-0.8-0.9-2-1-2.9-0.3c-0.8,0.8-1,2-0.3,2.8c0.6,0.8,1.9,1,2.8,0.3C135.8,58.6,136,57.3,135.3,56.4z"/>
	<path d="M52.6,34.8c0.7-0.8,0.7-2.1-0.1-2.9c-0.8-0.8-2.2-0.8-2.9,0.1c-0.8,0.9-0.7,2.2,0.1,2.9C50.6,35.6,51.9,35.6,52.6,34.8z"/>
	<path d="M172.6,63.1c-1.1,0.3-1.7,1.4-1.5,2.5c0.2,1.1,1.3,1.8,2.4,1.5c1.1-0.2,1.8-1.3,1.6-2.5C174.9,63.4,173.7,62.8,172.6,63.1z
		"/>
	<path d="M110.4,3.9c-0.1,1.1,0.7,2.1,1.8,2.2c1.1,0.1,2.1-0.7,2.3-1.8c0.2-1.1-0.6-2.1-1.8-2.3C111.5,1.9,110.5,2.8,110.4,3.9
		L110.4,3.9z"/>
	<path d="M143.2,14.3c0.6-1,0.2-2.3-0.8-2.8c-1-0.5-2.3-0.2-2.8,0.8c-0.5,1-0.1,2.2,0.8,2.7C141.4,15.6,142.6,15.3,143.2,14.3
		L143.2,14.3z"/>
	<path d="M58,29.5c0.8-0.7,1-2,0.2-2.9s-2-1-2.9-0.2c-0.9,0.8-1,2.1-0.2,2.9S57.2,30.2,58,29.5z"/>
	<path d="M110,43.8c0.2-1.1-0.6-2.2-1.8-2.3c-1.2-0.1-2.2,0.7-2.2,1.8c-0.1,1.1,0.7,2.1,1.8,2.2C108.8,45.7,109.8,44.9,110,43.8
		L110,43.8z"/>
	<path d="M170.9,38c-0.6-1-1.9-1.2-2.9-0.6c-0.9,0.6-1.2,1.9-0.6,2.8c0.6,0.9,1.8,1.2,2.8,0.6C171.2,40.3,171.5,39,170.9,38
		L170.9,38z"/>
	<path d="M161.1,39.1c0.9-0.7,1.1-2,0.4-2.9c-0.7-0.9-2.1-1.1-2.9-0.3c-0.9,0.7-1,2-0.3,2.9C158.9,39.6,160.1,39.8,161.1,39.1
		L161.1,39.1z"/>
	<path d="M143.2,48.4c0.9-0.7,1-2.1,0.1-2.9c-0.8-0.9-2.1-0.9-2.9-0.1c-0.8,0.8-0.8,2.1-0.1,2.9C141.1,49,142.3,49.1,143.2,48.4
		L143.2,48.4z"/>
	<path d="M157.2,53.9c-0.6-1-1.8-1.4-2.8-0.8c-1,0.6-1.4,1.8-0.8,2.7c0.5,1,1.7,1.4,2.7,0.9C157.3,56.2,157.7,55,157.2,53.9
		L157.2,53.9z"/>
	<path d="M162.1,49.2c-0.5-1-1.8-1.3-2.8-0.8c-1,0.6-1.3,1.8-0.8,2.7c0.5,0.9,1.8,1.3,2.8,0.8C162.3,51.4,162.7,50.2,162.1,49.2
		L162.1,49.2z"/>
	<path d="M166,42.7c-0.6-1-1.9-1.3-2.9-0.7c-0.9,0.6-1.2,1.9-0.6,2.8c0.6,0.9,1.8,1.2,2.8,0.7C166.3,45,166.6,43.7,166,42.7
		L166,42.7z"/>
	<path d="M157.5,45.5c0.9-0.6,1.2-1.9,0.5-2.8c-0.7-0.9-2-1.1-2.9-0.4c-0.9,0.7-1.1,1.9-0.4,2.8C155.3,45.9,156.5,46.1,157.5,45.5
		L157.5,45.5z"/>
	<path d="M138.3,52.9c0.9-0.7,1-2.1,0.1-3c-0.8-0.9-2.2-0.9-2.9-0.1c-0.7,0.7-0.8,1.8-0.3,2.6c0.1,0.1,0.1,0.2,0.2,0.3
		C136.2,53.5,137.4,53.6,138.3,52.9L138.3,52.9z"/>
	<path d="M89.9,6.9c1.1-0.2,1.8-1.2,1.6-2.3c-0.2-1.1-1.2-1.9-2.4-1.7c-1.2,0.2-1.9,1.3-1.6,2.4C87.8,6.4,88.9,7.1,89.9,6.9
		L89.9,6.9z"/>
	<path d="M155.6,23.3c0.8-0.8,0.7-2.2-0.2-2.9c-0.9-0.7-2.2-0.6-2.9,0.3c-0.7,0.9-0.6,2.2,0.3,2.9S154.8,24.2,155.6,23.3L155.6,23.3
		z"/>
	<path d="M149.1,15.6c-1-0.6-2.2-0.4-2.9,0.6c-0.6,1-0.4,2.2,0.6,2.8c0.9,0.6,2.1,0.4,2.8-0.5C150.3,17.6,150.1,16.3,149.1,15.6
		L149.1,15.6z"/>
	<path d="M143.9,20.1c-1-0.7-2.3-0.4-2.9,0.6c-0.6,1-0.3,2.2,0.6,2.8c0.9,0.6,2.2,0.4,2.8-0.6S144.9,20.8,143.9,20.1L143.9,20.1z"/>
	<path d="M150.6,27.7c0.8-0.9,0.6-2.2-0.3-2.9c-0.9-0.7-2.2-0.6-2.9,0.3c-0.7,0.9-0.5,2.2,0.3,2.9C148.6,28.7,149.9,28.6,150.6,27.7
		L150.6,27.7z"/>
	<path d="M75.2,30.9c0.6,1,1.8,1.3,2.7,0.8c1-0.5,1.4-1.7,0.9-2.7s-1.7-1.4-2.8-0.9C75.1,28.7,74.7,29.9,75.2,30.9L75.2,30.9z"/>
	<path d="M93.2,33.2c1.1-0.2,1.8-1.3,1.6-2.4c-0.2-1.1-1.3-1.9-2.5-1.6c-1.2,0.2-1.9,1.4-1.6,2.5C91,32.8,92.1,33.5,93.2,33.2z"/>
	<path d="M73.9,24.1c0.5,1,1.7,1.4,2.7,1c1-0.5,1.4-1.7,0.9-2.7s-1.7-1.5-2.7-1C73.8,21.9,73.4,23.1,73.9,24.1L73.9,24.1z"/>
	<path d="M129.9,53.6c0.8-0.8,0.7-2.1-0.2-2.9c-0.9-0.8-2.2-0.6-2.9,0.3c-0.7,0.9-0.6,2.2,0.2,2.8C127.9,54.5,129.1,54.4,129.9,53.6
		L129.9,53.6z"/>
	<path d="M94.6,39.7c1.1-0.2,1.8-1.3,1.6-2.4c-0.2-1.1-1.3-1.9-2.5-1.6c-1.2,0.2-1.9,1.4-1.6,2.5C92.4,39.3,93.5,39.9,94.6,39.7
		L94.6,39.7z"/>
	<path d="M73,9.9c0.4,1,1.6,1.5,2.6,1.1c1-0.4,1.5-1.6,1.2-2.6c-0.4-1.1-1.6-1.6-2.7-1.2C73.1,7.7,72.6,8.9,73,9.9L73,9.9z"/>
	<path d="M82.7,8.6c1.1-0.3,1.7-1.4,1.4-2.5s-1.4-1.7-2.5-1.4c-1.1,0.3-1.7,1.5-1.4,2.6C80.5,8.3,81.7,8.9,82.7,8.6L82.7,8.6z"/>
	<path d="M91.4,13.4c1.1-0.2,1.8-1.2,1.7-2.3c-0.2-1.1-1.2-1.9-2.4-1.7s-1.9,1.3-1.7,2.4C89.2,12.9,90.3,13.5,91.4,13.4z"/>
	<path d="M66.1,13.3c0.6,1,1.8,1.4,2.7,0.8c1-0.5,1.4-1.7,0.9-2.7c-0.5-1-1.7-1.4-2.8-0.9C66,11.1,65.6,12.3,66.1,13.3L66.1,13.3z"
		/>
	<path d="M91.8,26.8c1.1-0.2,1.8-1.3,1.6-2.4c-0.2-1.1-1.3-1.8-2.4-1.6c-1.2,0.2-1.8,1.4-1.5,2.5S90.7,27,91.8,26.8z"/>
	<path d="M77,17.6c1-0.5,1.5-1.6,1.1-2.6c-0.4-1.1-1.6-1.6-2.7-1.1c-1.1,0.5-1.6,1.7-1.1,2.7S76,18.1,77,17.6L77,17.6z"/>
	<path d="M61.3,75.9c0.1-1.1-0.6-2.1-1.7-2.3c-1.1-0.2-2.2,0.6-2.3,1.8c-0.2,1.2,0.7,2.3,1.8,2.3C60.1,77.8,61.1,76.9,61.3,75.9
		L61.3,75.9z"/>
	<path d="M65,92.8c0.3,1.1,1.5,1.7,2.6,1.3c1.1-0.4,1.7-1.5,1.3-2.5c-0.3-1-1.4-1.6-2.5-1.4C65.3,90.5,64.7,91.6,65,92.8z"/>
	<path d="M69.2,70.6c0.3-1-0.2-2.1-1.3-2.5c-1.1-0.4-2.2,0.2-2.6,1.3c-0.3,1.1,0.3,2.3,1.4,2.6C67.8,72.2,68.9,71.6,69.2,70.6z"/>
	<path d="M63.7,77.1c-0.1,1.2,0.7,2.2,1.8,2.2c1.1,0.1,2.1-0.7,2.2-1.8c0.1-1-0.7-2-1.8-2.2C64.8,75.1,63.8,75.9,63.7,77.1
		L63.7,77.1z"/>
	<path d="M63,68.6c0.4-1-0.2-2.2-1.3-2.6c-1.1-0.4-2.2,0.2-2.6,1.3c-0.3,1.1,0.3,2.3,1.4,2.6C61.6,70.3,62.7,69.7,63,68.6L63,68.6z"
		/>
	<path d="M114.1,55.9c-0.3,1-1.4,1.7-2.5,1.3s-1.7-1.5-1.4-2.6c0.4-1.1,1.6-1.7,2.6-1.3C113.8,53.7,114.4,54.8,114.1,55.9
		L114.1,55.9z"/>
	<path d="M131.3,61.4c-0.3,1-1.4,1.6-2.5,1.3s-1.7-1.4-1.4-2.5c0.4-1.1,1.5-1.7,2.6-1.3C131.1,59.3,131.6,60.4,131.3,61.4z"/>
	<path d="M118.8,57.4c0.4-1.2,1.6-1.8,2.6-1.4c1.1,0.4,1.6,1.6,1.3,2.6c-0.3,1-1.4,1.7-2.5,1.4C119.1,59.7,118.4,58.5,118.8,57.4
		L118.8,57.4z"/>
	<path d="M119.8,52.7c-0.3,1-1.4,1.7-2.5,1.3c-1.1-0.3-1.7-1.5-1.4-2.6c0.4-1.1,1.6-1.7,2.6-1.3S120.2,51.7,119.8,52.7z"/>
	<path d="M67.9,100.1c0.6,1,1.8,1.4,2.8,0.8c0.9-0.6,1.3-1.8,0.8-2.7c-0.4-0.9-1.7-1.3-2.7-0.9C67.8,97.8,67.4,99.1,67.9,100.1z"/>
	<path d="M168.1,63.5c-0.3-1.1-1.5-1.7-2.5-1.4c-1.1,0.3-1.6,1.4-1.4,2.5c0.3,1,1.4,1.7,2.5,1.4C167.7,65.7,168.4,64.6,168.1,63.5
		L168.1,63.5z"/>
	<path d="M172.9,57c-0.4-1.1-1.6-1.7-2.6-1.2c-1.1,0.4-1.6,1.6-1.2,2.6c0.4,1,1.5,1.6,2.6,1.3C172.7,59.3,173.3,58.1,172.9,57z"/>
	<path d="M152.2,58.8c-0.5-1.1-1.8-1.5-2.8-1c-1,0.5-1.4,1.7-0.9,2.7c0.5,1,1.6,1.5,2.7,1C152.2,61.1,152.7,59.8,152.2,58.8
		L152.2,58.8z"/>
	<path d="M143.4,56.5c-0.1-0.1-0.2-0.2-0.3-0.3c-0.3-0.3-0.7-0.5-1.1-0.6c-0.5-0.1-1.1,0-1.5,0.3c-0.7,0.5-1,1.3-0.9,2
		c0,0.3,0.1,0.6,0.3,0.8c0.5,0.8,1.5,1.2,2.4,0.9c0.1,0,0.2-0.1,0.4-0.2C143.8,58.8,144,57.5,143.4,56.5L143.4,56.5z"/>
	<path d="M155.1,66.2c-0.4-1.1-1.5-1.8-2.6-1.4s-1.7,1.5-1.3,2.6c0.3,1,1.4,1.7,2.5,1.4C154.8,68.6,155.4,67.4,155.1,66.2
		L155.1,66.2z"/>
	<path d="M66.6,52.9c-0.7,1-0.6,2.3,0.4,2.9c0.9,0.6,2.2,0.4,2.8-0.4c0.7-0.8,0.6-2.1-0.3-2.9C68.6,51.8,67.3,51.9,66.6,52.9
		L66.6,52.9z"/>
	<path d="M32.7,118.3c0.6,1,1.8,1.4,2.8,0.9c1-0.6,1.4-1.8,0.8-2.7c-0.5-1-1.7-1.4-2.7-0.9S32.2,117.3,32.7,118.3L32.7,118.3z"/>
	<path d="M45.3,114c0.5,1,1.8,1.3,2.8,0.8c1-0.6,1.3-1.8,0.8-2.7c-0.5-0.9-1.8-1.3-2.8-0.8C45.2,111.7,44.8,113,45.3,114z"/>
	<path d="M50.3,109.2c0.6,1,1.8,1.4,2.8,0.8c1-0.6,1.3-1.8,0.8-2.7c-0.5-1-1.7-1.4-2.7-0.9C50.2,106.9,49.8,108.2,50.3,109.2
		L50.3,109.2z"/>
	<path d="M59.2,111.3c0.7,1,2,1.2,2.9,0.6c0.9-0.7,1.1-1.9,0.5-2.8c-0.6-0.9-1.8-1.2-2.8-0.6C58.9,109,58.5,110.4,59.2,111.3
		L59.2,111.3z"/>
	<path d="M54.4,116c0.6,1,2,1.2,2.9,0.5c0.9-0.7,1.1-1.9,0.5-2.8c-0.6-0.9-1.9-1.1-2.8-0.5C53.9,113.7,53.7,115,54.4,116z"/>
	<path d="M29.4,111.2c0.5,1.1,1.7,1.6,2.7,1.1c1-0.4,1.5-1.6,1.1-2.6c-0.4-1-1.5-1.6-2.6-1.2C29.5,108.9,29,110.1,29.4,111.2
		L29.4,111.2z"/>
	<path d="M52.4,96.9c0.4,1.1,1.5,1.8,2.6,1.4c1.1-0.4,1.7-1.5,1.3-2.6c-0.3-1-1.4-1.7-2.5-1.4C52.7,94.6,52.1,95.8,52.4,96.9
		L52.4,96.9z"/>
	<path d="M64.1,97.9c-0.4-1-1.6-1.6-2.6-1.2c-0.5,0.2-0.9,0.6-1.1,1.1c-0.2,0.4-0.2,0.8-0.1,1.2c0,0.1,0.1,0.3,0.1,0.4
		c0.5,1.1,1.7,1.6,2.7,1.1C64.1,100.1,64.5,98.9,64.1,97.9L64.1,97.9z"/>
	<path d="M26.2,90.2c1.1-0.1,1.9-1.1,1.8-2.2c-0.1-1.1-1-1.9-2.2-1.9c-1.1,0.1-2,1.1-1.9,2.2C24.1,89.5,25.1,90.3,26.2,90.2
		L26.2,90.2z"/>
	<path d="M37.7,113.5c0.5,1.1,1.7,1.5,2.8,1c1-0.5,1.4-1.8,0.9-2.7c-0.5-1-1.7-1.4-2.7-1C37.6,111.2,37.1,112.5,37.7,113.5z"/>
	<path d="M42,107c0.5,1.1,1.7,1.5,2.7,1.1c1-0.5,1.5-1.6,1.1-2.6c-0.4-1-1.5-1.5-2.6-1.1C42.1,104.7,41.5,105.9,42,107L42,107z"/>
	<path d="M34.6,106.2c0.4,1.1,1.6,1.7,2.7,1.2c1-0.4,1.6-1.6,1.2-2.6c-0.4-1-1.5-1.6-2.6-1.3C34.8,103.9,34.2,105.1,34.6,106.2
		L34.6,106.2z"/>
	<path d="M39.4,99.6c0.3,1.1,1.5,1.7,2.5,1.4c1.1-0.3,1.6-1.4,1.4-2.5c-0.3-1-1.4-1.7-2.5-1.4C39.8,97.4,39.1,98.5,39.4,99.6
		L39.4,99.6z"/>
	<path d="M37.8,92.1c0.2,1.1,1.2,1.9,2.3,1.7c1.1-0.2,1.9-1.2,1.7-2.3c-0.2-1.1-1.2-1.8-2.3-1.7S37.6,90.9,37.8,92.1z"/>
	<path d="M47.2,102c0.4,1.1,1.6,1.6,2.6,1.2c1-0.4,1.6-1.6,1.2-2.6c-0.4-1-1.5-1.6-2.6-1.2C47.4,99.7,46.7,100.9,47.2,102L47.2,102z
		"/>
	<path d="M64.1,106.7c0.7,1,2,1.3,2.9,0.7c0.9-0.7,1.2-1.9,0.6-2.8c-0.6-0.9-1.8-1.2-2.8-0.7C63.7,104.4,63.4,105.7,64.1,106.7
		L64.1,106.7z"/>
</g>
<g>
	<g>
		<path d="M100.1,109.1l1.4-13.4c1-9.4-1-16.6-5.9-21.8c-4.2-4.3-10.2-7-18-8c-7.7-1-13.7-0.3-18.2,2.2c-3.8,2.2-5.9,5.2-6.3,8.9
			l-0.5,4.7l0.6,0.1c1.7-1.5,4-2.7,7.1-3.4c4-1.1,8.5-1.2,13.6-0.6c9.1,1.2,13.2,5.4,12.5,12.6l-0.1,0.8l-5.5-0.8
			c-11-1.5-19.3-0.9-24.9,1.9c-5,2.5-7.8,6.5-8.4,12.1c-0.6,5.4,1.3,10.2,5.7,14.2c4.4,4.1,10.3,6.7,17.7,7.7l3.2,0.4
			c7,1,13-0.2,17.8-3.5S99.5,115.3,100.1,109.1L100.1,109.1z"/>
	</g>
</g>
<g>
	<path style="fill:#F8AC1C;" d="M98.9,103.1l1.7-13.7c1.2-9.6-0.5-16.9-5.1-22.1c-3.8-4.3-9.5-6.9-16.9-7.8c-7.2-0.9-13,0-17.3,2.8
		c-3.7,2.3-5.7,5.4-6.2,9.2l-0.6,4.8l0.5,0.1c1.6-1.6,3.9-2.8,6.8-3.7c3.8-1.2,8.1-1.5,12.9-0.9c8.6,1,12.4,5.2,11.5,12.5l-0.1,0.8
		L81,84.4C70.6,83.2,62.7,84,57.4,87c-4.8,2.6-7.6,6.8-8.2,12.6c-0.7,5.5,1,10.3,5,14.4c4.1,4.1,9.6,6.6,16.6,7.4l3,0.4
		c6.6,0.8,12.3-0.5,17-4C95.4,114.2,98.1,109.4,98.9,103.1L98.9,103.1z"/>
	<g>
		<g>
			<path style="fill:#FCEE21;" d="M98.9,103.1l1.7-13.7c1.2-9.6-0.5-16.9-5.1-22.1c-3.8-4.3-9.5-6.9-16.9-7.8c-7.2-0.9-13,0-17.3,2.8
				c-3.7,2.3-5.7,5.4-6.2,9.2l-0.6,4.8l0.5,0.1c1.6-1.6,3.9-2.8,6.8-3.7c3.8-1.2,8.1-1.5,12.9-0.9c8.6,1,12.4,5.2,11.5,12.5
				l-0.1,0.8L81,84.4C70.6,83.2,62.7,84,57.4,87c-4.8,2.6-7.6,6.8-8.2,12.6c-0.7,5.5,1,10.3,5,14.4c4.1,4.1,9.6,6.6,16.6,7.4l3,0.4
				c6.6,0.8,12.3-0.5,17-4C95.4,114.2,98.1,109.4,98.9,103.1L98.9,103.1z"/>
		</g>
	</g>
</g>
<g>
	<g>
		<path d="M188.2,117.8c-0.2,1.9-1.3,3.5-3.2,4.9c-1.8,1.3-3.8,1.8-5.9,1.6l-31.2-3.6c-7.3-0.8-10.6-4.1-10-9.7
			c0.5-4.8,4.5-10.2,11.8-16.5l18.2-15.7c1.3-1.2,2.5-2.3,3.5-3.3c1.3-1.3,2.2-2.4,2.8-3.3l-31.5-3.6l0.6-4.9
			c0.6-5.6,4.5-8,11.5-7.2l29.1,3.3c3.4,0.4,5.9,1.6,7.5,3.6c1.2,1.7,1.8,3.6,1.5,5.7c-0.6,5.4-4,10.7-10.1,16.1l-18,15.5
			c-3.2,2.8-5.5,5.3-7,7.3l31.1,3.6L188.2,117.8L188.2,117.8z"/>
	</g>
</g>
<g>
	<g>
		<path d="M146.7,120.3c-0.1,1.9-1.2,3.6-3.1,5c-1.8,1.4-3.7,2-5.8,1.8l-31.3-2.5c-7.3-0.6-10.7-3.7-10.3-9.3
			c0.4-4.8,4.1-10.4,11.2-16.8L125.1,82c1.3-1.2,2.4-2.4,3.4-3.4c1.2-1.3,2.1-2.5,2.7-3.4l-31.6-2.6l0.4-4.9
			c0.5-5.6,4.2-8.2,11.3-7.6l29.2,2.4c3.4,0.3,6,1.4,7.6,3.4c1.3,1.6,1.9,3.5,1.7,5.7c-0.4,5.4-3.6,10.9-9.6,16.4l-17.5,16.1
			c-3.1,2.9-5.4,5.4-6.7,7.5l31.2,2.5L146.7,120.3L146.7,120.3z"/>
	</g>
</g>
<g>
	<path style="fill:#FAAE1A;" d="M187,112.1c-0.2,1.9-1.3,3.5-3.2,4.9c-1.8,1.3-3.8,1.9-5.8,1.6l-31.2-3.6c-7.3-0.8-10.6-4.1-10-9.7
		c0.5-4.8,4.5-10.2,11.8-16.5l18.2-15.7c1.3-1.2,2.5-2.3,3.5-3.3c1.3-1.3,2.2-2.4,2.8-3.3L141.4,63l0.6-4.9c0.6-5.6,4.5-8,11.5-7.2
		l29.1,3.3c3.4,0.4,5.9,1.6,7.5,3.6c1.2,1.7,1.8,3.6,1.5,5.7c-0.6,5.4-4,10.7-10.1,16.1l-18,15.5c-3.2,2.8-5.5,5.3-7,7.3l31.1,3.6
		L187,112.1L187,112.1z"/>
	<g>
		<g>
			<path style="fill:#FCEE21;" d="M187,112.1c-0.2,1.9-1.3,3.5-3.2,4.9c-1.8,1.3-3.8,1.9-5.8,1.6l-31.2-3.6c-7.3-0.8-10.6-4.1-10-9.7
				c0.5-4.8,4.5-10.2,11.8-16.5l18.2-15.7c1.3-1.2,2.5-2.3,3.5-3.3c1.3-1.3,2.2-2.4,2.8-3.3L141.4,63l0.6-4.9
				c0.6-5.6,4.5-8,11.5-7.2l29.1,3.3c3.4,0.4,5.9,1.6,7.5,3.6c1.2,1.7,1.8,3.6,1.5,5.7c-0.6,5.4-4,10.7-10.1,16.1l-18,15.5
				c-3.2,2.8-5.5,5.3-7,7.3l31.1,3.6L187,112.1L187,112.1z"/>
		</g>
	</g>
</g>
<g>
	<path style="fill:#FAAE1A;" d="M145.4,114.5c-0.2,1.9-1.2,3.6-3.1,5c-1.8,1.4-3.7,2-5.8,1.8l-31.3-2.5c-7.3-0.6-10.7-3.7-10.3-9.3
		c0.4-4.8,4.1-10.4,11.2-16.8l17.6-16.3c1.3-1.2,2.4-2.4,3.4-3.4c1.2-1.3,2.1-2.5,2.7-3.4l-31.6-2.6l0.4-4.9
		c0.5-5.6,4.2-8.2,11.3-7.6l29.2,2.4c3.4,0.3,6,1.4,7.6,3.4c1.3,1.6,1.9,3.5,1.7,5.7c-0.4,5.4-3.6,10.9-9.6,16.4l-17.5,16.1
		c-3.1,2.9-5.4,5.4-6.7,7.5l31.2,2.5L145.4,114.5L145.4,114.5z"/>
	<g>
		<g>
			<path style="fill:#FCEE21;" d="M145.4,114.5c-0.2,1.9-1.2,3.6-3.1,5c-1.8,1.4-3.7,2-5.8,1.8l-31.3-2.5c-7.3-0.6-10.7-3.7-10.3-9.3
				c0.4-4.8,4.1-10.4,11.2-16.8l17.6-16.3c1.3-1.2,2.4-2.4,3.4-3.4c1.2-1.3,2.1-2.5,2.7-3.4l-31.6-2.6l0.4-4.9
				c0.5-5.6,4.2-8.2,11.3-7.6l29.2,2.4c3.4,0.3,6,1.4,7.6,3.4c1.3,1.6,1.9,3.5,1.7,5.7c-0.4,5.4-3.6,10.9-9.6,16.4l-17.5,16.1
				c-3.1,2.9-5.4,5.4-6.7,7.5l31.2,2.5L145.4,114.5L145.4,114.5z"/>
		</g>
	</g>
</g>
<g>
	<path style="fill:#EC2127;" d="M79,93.1c-4.4-2.1-8.4-0.7-9.9,0.2c-1.4,0.8-1.5,2-1.5,2.1c0,0,0.1,0,0.1,0l0,0c0-0.1,0.4-2,3-2.2
		c3.4-0.2,6.7,2,8.4,3.1c3.2,2.2,4.5,4,4.8,4.4c0.3,0.4,0.7,1,0.8,1.1s0.2,0.1,0.2-0.3C84.7,99,82.9,94.9,79,93.1L79,93.1z"/>
	
		<linearGradient id="SVGID_00000062870784681385667820000016938760946825367989_" gradientUnits="userSpaceOnUse" x1="1669.1117" y1="-680.4943" x2="1672.9617" y2="-688.7143" gradientTransform="matrix(0.9998 -2.076793e-02 -2.076793e-02 -0.9998 -1609.7626 -540.957)">
		<stop  offset="6.000000e-02" style="stop-color:#EE3331"/>
		<stop  offset="0.13" style="stop-color:#EC272A"/>
		<stop  offset="0.2" style="stop-color:#EC2127"/>
		<stop  offset="0.51" style="stop-color:#811517"/>
		<stop  offset="0.96" style="stop-color:#5B0B0C"/>
	</linearGradient>
	<path style="fill:url(#SVGID_00000062870784681385667820000016938760946825367989_);" d="M78.8,111.4c0,0-0.1-0.2-0.3-0.4
		c-0.2-0.2-0.4-0.5-0.5-0.7c-0.5-0.6-1.3-1.4-2.5-2.4c-1.3-1.1-2.6-2.1-4-3c-0.1-0.1-0.4-0.2-0.9-0.5c0,0.1,1.1,1.9,2.8,3.7
		c0.1,0.1,0.2,0.2,0.2,0.3l0,0l0,0c1.8,1.8,4.5,4,5.2,3.7C79.1,112,79,111.8,78.8,111.4L78.8,111.4z"/>
	
		<linearGradient id="SVGID_00000068641929059733787620000000697949603729031047_" gradientUnits="userSpaceOnUse" x1="1676.2712" y1="-672.6935" x2="1681.0012" y2="-677.6135" gradientTransform="matrix(0.9998 -2.076793e-02 -2.076793e-02 -0.9998 -1609.7626 -540.957)">
		<stop  offset="0.17" style="stop-color:#EC2127"/>
		<stop  offset="0.72" style="stop-color:#811517"/>
		<stop  offset="1" style="stop-color:#8A181A"/>
	</linearGradient>
	<path style="fill:url(#SVGID_00000068641929059733787620000000697949603729031047_);" d="M83.7,100c0.6,0.8,1.2,1.4,1.2,1.6l0,0
		c-0.1,0.1-0.2,0.1-0.2,0.1c-0.1-0.1-0.4-0.7-0.8-1.1c-0.3-0.4-1.4-1.9-3.9-3.8c0.3,0.1,0.8,0.4,1.3,0.8l0,0
		c0.4,0.3,0.9,0.7,1.4,1.3C83,99.3,83.4,99.7,83.7,100L83.7,100z"/>
	
		<linearGradient id="SVGID_00000179648543525542639600000013047092362051962024_" gradientUnits="userSpaceOnUse" x1="1667.8497" y1="-681.0219" x2="1664.1514" y2="-686.5793" gradientTransform="matrix(0.9998 -2.076793e-02 -2.076793e-02 -0.9998 -1609.7626 -540.957)">
		<stop  offset="5.000000e-02" style="stop-color:#FACACC"/>
		<stop  offset="0.3" style="stop-color:#EF413B"/>
		<stop  offset="0.53" style="stop-color:#EF413B"/>
		<stop  offset="0.8" style="stop-color:#EE3331"/>
		<stop  offset="1" style="stop-color:#EE3331"/>
	</linearGradient>
	<path style="fill:url(#SVGID_00000179648543525542639600000013047092362051962024_);" d="M74.6,113.1c-0.1-0.1-0.2-0.1-0.2-0.1
		c-0.7-0.3-1.9-1-3.1-1.5c-0.7-0.3-2.7-1.1-3.8-1.5c-0.4-0.1-1-0.5-1.4-0.9c-0.5-0.5-0.8-1.1-0.9-1.2c-0.5-0.9-0.8-2.2-0.7-2.9
		c0.1-0.7,0.6-1.2,1.1-1.5l0,0c0.3-0.2,0.7-0.3,1-0.3c0.7,0,1.6,0.2,2.1,0.4c0.8,0.3,1.4,0.6,1.9,0.8l-0.1-0.1
		c-0.5-0.3-1-0.5-1.5-0.7c-0.8-0.3-1.6-0.5-2.2-0.6c-0.5,0-1.1,0.1-1.6,0.4c-0.2,0.1-0.3,0.2-0.4,0.4c-0.2,0.3-0.4,0.6-0.5,1
		c-0.1,0.7,0.2,2.1,0.7,3v0c0.3,0.5,0.6,0.9,0.9,1.2c0.5,0.5,1.1,0.8,1.5,1c1.1,0.4,3.1,1.2,3.8,1.5c0.7,0.3,1.5,0.7,2.2,1.1
		c0.2,0.1,0.4,0.2,0.6,0.3c0,0,0.4,0.2,0.5,0.2c0,0,0.1,0,0.1,0.1c0.1,0,0.1,0,0.2,0c0,0,0,0,0.1,0
		C74.8,113.2,74.7,113.1,74.6,113.1L74.6,113.1z"/>
	
		<linearGradient id="SVGID_00000065063537545218704610000000845005748300603012_" gradientUnits="userSpaceOnUse" x1="1669.5845" y1="-689.7014" x2="1660.5245" y2="-680.0013" gradientTransform="matrix(0.9998 -2.076793e-02 -2.076793e-02 -0.9998 -1609.7626 -540.957)">
		<stop  offset="9.000000e-02" style="stop-color:#5B0B0C"/>
		<stop  offset="0.57" style="stop-color:#8A181A"/>
		<stop  offset="0.63" style="stop-color:#7D1415"/>
		<stop  offset="0.73" style="stop-color:#6B0E0F"/>
		<stop  offset="0.81" style="stop-color:#650D0D"/>
	</linearGradient>
	<path style="fill:url(#SVGID_00000065063537545218704610000000845005748300603012_);" d="M65.6,103.5L65.6,103.5
		c-0.5,0.3-1,0.8-1.1,1.5c-0.1,0.7,0.2,2,0.7,2.9c0.1,0.1,0.4,0.7,0.9,1.2c0.4,0.4,1.1,0.8,1.4,0.9c1.1,0.4,3.1,1.2,3.8,1.5
		c1.2,0.6,2.4,1.2,3.1,1.5c0,0,0.1,0,0.2,0.1l0,0l0,0c-5.3-2.7-8.1-9.4-8.3-9.8C66.1,103.3,65.8,103.3,65.6,103.5L65.6,103.5z"/>
	
		<linearGradient id="SVGID_00000171717443588699907800000017487485681789830577_" gradientUnits="userSpaceOnUse" x1="1665.4281" y1="-678.5668" x2="1675.3781" y2="-688.9767" gradientTransform="matrix(0.9998 -2.076793e-02 -2.076793e-02 -0.9998 -1609.7626 -540.957)">
		<stop  offset="0.44" style="stop-color:#FACACC"/>
		<stop  offset="1" style="stop-color:#C9756D"/>
	</linearGradient>
	<path style="fill:url(#SVGID_00000171717443588699907800000017487485681789830577_);" d="M78.9,111.3
		C78.9,111.3,78.9,111.3,78.9,111.3c-0.4-0.6-1.2-1.6-3.2-3.3c-1.3-1.1-2.6-2.2-3.9-3c-0.2-0.1-0.5-0.3-0.6-0.4
		c-0.2-0.1-0.4-0.2-0.6-0.3l0.1,0.1l0,0c0.5,0.2,0.8,0.4,0.9,0.5c1.4,0.8,2.7,1.9,4,3c1.2,1.1,2,1.8,2.5,2.4
		c0.2,0.2,0.4,0.4,0.5,0.7S78.8,111.3,78.9,111.3c0.2,0.5,0.2,0.7,0,0.8c-0.8,0.4-3.5-1.9-5.2-3.7l0,0l0,0c-0.1-0.1-0.2-0.2-0.2-0.3
		l0.1,0.1c1.3,1.4,3.4,3.2,4.7,3.8l0.1,0l0,0c0.4,0.2,0.7,0.3,0.9,0.2C79.3,112.2,79.2,111.8,78.9,111.3z"/>
	
		<radialGradient id="SVGID_00000134937753606393677220000000274142809189258135_" cx="-1745.7123" cy="808.7052" r="2.02" gradientTransform="matrix(4.17 2.9362 3.0564 -4.3299 4873.2007 8726.2041)" gradientUnits="userSpaceOnUse">
		<stop  offset="4.000000e-02" style="stop-color:#F7A1A2"/>
		<stop  offset="0.23" style="stop-color:#F26D6B"/>
		<stop  offset="0.48" style="stop-color:#EC2127"/>
		<stop  offset="0.93" style="stop-color:#A81D21"/>
		<stop  offset="1" style="stop-color:#9D1D20"/>
	</radialGradient>
	<path style="fill:url(#SVGID_00000134937753606393677220000000274142809189258135_);" d="M83.9,105.4c-0.1-0.3-0.3-0.5-0.5-0.8
		c-1.4-1.9-3.6-3.7-3.6-3.7c-2.8-2.4-5.9-4.3-8.4-5.1c-1.3-0.4-2.4-0.5-3-0.5c-0.2,0-0.4,0-0.6,0.1c-0.3,0-0.6,0.1-0.9,0.2
		c-0.1,0-0.3,0.1-0.4,0.2c-0.6,0.3-1,0.8-1,0.8s-1.5,1.9-1.9,4.5c-0.4,2.6,0.2,5.8,2.2,8.4c0,0,1.9,2.5,5.2,3.5
		c1.8,0.5,2.9,0.6,3.5,0.5h0c0,0,0,0,0.1,0h0c0.2,0,0.2-0.1,0.2-0.1c0,0,0,0,0,0l0,0c0,0,0,0,0,0c0,0-0.1,0-0.2,0c0,0-0.1,0-0.1-0.1
		c-0.1,0-0.4-0.2-0.5-0.2c-0.2-0.1-0.4-0.2-0.6-0.3c-0.6-0.3-1.4-0.7-2.2-1.1c-0.7-0.3-2.7-1.1-3.8-1.5c-0.4-0.2-1.1-0.5-1.5-1
		c-0.3-0.3-0.6-0.7-0.9-1.2v0c-0.5-0.9-0.9-2.3-0.7-3c0.1-0.4,0.2-0.8,0.5-1c0.1-0.1,0.3-0.2,0.4-0.4c0.5-0.3,1.1-0.5,1.6-0.4
		c0.6,0,1.4,0.2,2.2,0.6c0.5,0.2,1,0.4,1.5,0.7l0,0c0.2,0.1,0.4,0.2,0.6,0.3c0.1,0,0.4,0.2,0.6,0.4c1.4,0.8,2.7,1.9,3.9,3
		c2,1.7,2.8,2.8,3.2,3.3c0,0,0,0,0,0c0.3,0.5,0.4,0.9,0.2,1c0,0,0,0-0.1,0l0,0c0.4-0.1,2.2-1.1,3.5-2.7c1.3-1.6,1.7-2.8,1.7-3
		C84.2,106.5,84.4,106.3,83.9,105.4L83.9,105.4z"/>
	
		<linearGradient id="SVGID_00000142870755468635501300000014007209579823735445_" gradientUnits="userSpaceOnUse" x1="1665.353" y1="-686.02" x2="1664.283" y2="-688.7299" gradientTransform="matrix(0.9998 -2.076793e-02 -2.076793e-02 -0.9998 -1609.7626 -540.957)">
		<stop  offset="0" style="stop-color:#BA2025"/>
		<stop  offset="0.21" style="stop-color:#E01F26"/>
		<stop  offset="0.35" style="stop-color:#CF3928"/>
		<stop  offset="0.67" style="stop-color:#781214"/>
	</linearGradient>
	<path style="fill:url(#SVGID_00000142870755468635501300000014007209579823735445_);" d="M74.8,113.3c0,0-0.1,0-0.2,0
		c0,0-0.1,0-0.1-0.1c-0.1,0-0.4-0.2-0.5-0.2c-0.2-0.1-0.4-0.2-0.6-0.3c-0.6-0.3-1.4-0.7-2.2-1.1c-0.7-0.3-2.7-1.1-3.8-1.5
		c-0.4-0.2-1.1-0.5-1.5-1c-0.3-0.3-0.6-0.7-0.9-1.2v0c-0.1-0.2-0.2-0.4-0.3-0.7c0-0.1-0.1-0.1-0.1-0.2c-0.1,0-0.3-0.1-0.3-0.1
		c0.4,0.8,0.8,1.7,1.5,2.4c0,0,1.9,2.5,5.2,3.5c1.8,0.5,2.9,0.6,3.5,0.5h0c0,0,0,0,0.1,0h0C74.7,113.4,74.7,113.4,74.8,113.3
		C74.8,113.3,74.8,113.3,74.8,113.3L74.8,113.3C74.8,113.3,74.8,113.3,74.8,113.3L74.8,113.3z"/>
	
		<linearGradient id="SVGID_00000148622032128551213370000015102629016310276781_" gradientUnits="userSpaceOnUse" x1="1670.653" y1="-669.4515" x2="1663.783" y2="-669.9316" gradientTransform="matrix(0.9998 -2.076793e-02 -2.076793e-02 -0.9998 -1609.7626 -540.957)">
		<stop  offset="0" style="stop-color:#EC2127"/>
		<stop  offset="0.28" style="stop-color:#C61F24"/>
		<stop  offset="0.51" style="stop-color:#AE1E22"/>
		<stop  offset="0.65" style="stop-color:#A61E22"/>
	</linearGradient>
	<path style="fill:url(#SVGID_00000148622032128551213370000015102629016310276781_);" d="M72.2,93c-0.3,0-0.6-0.1-0.9-0.1
		c-0.1,0-0.3,0-0.4,0c-0.1,0-0.1,0-0.2,0c-1,0-1.9,0.4-2.5,1c0,0,0,0-0.1,0.1c-0.6,0.7-0.7,1.3-0.7,1.4c0,0,0.1,0,0.1,0l0,0
		c0-0.1,0.4-2,3-2.2c1.4-0.1,2.8,0.2,4.1,0.8c0-0.1,0-0.2,0.1-0.2C73.3,93.1,72.3,93,72.2,93L72.2,93z"/>
	
		<linearGradient id="SVGID_00000124876494434804621650000005146072005039240870_" gradientUnits="userSpaceOnUse" x1="1666.9142" y1="-669.9621" x2="1670.7742" y2="-672.9721" gradientTransform="matrix(0.9998 -2.076793e-02 -2.076793e-02 -0.9998 -1609.7626 -540.957)">
		<stop  offset="2.000000e-02" style="stop-color:#650D0D"/>
		<stop  offset="0.29" style="stop-color:#781214"/>
		<stop  offset="0.94" style="stop-color:#8A181A"/>
	</linearGradient>
	<path style="fill:url(#SVGID_00000124876494434804621650000005146072005039240870_);" d="M74.8,93.9c-1.3-0.5-2.7-0.9-4.1-0.8
		c-2.6,0.2-3,2.1-3,2.2l0,0c0.2-0.1,0.5-0.1,0.7-0.1c0.6,0,1.7,0,3.1,0.5c1.3,0.4,2.7,1.1,4.2,2c-0.6-1.4-0.8-2.1-0.9-2.7
		C74.6,94.6,74.7,94.1,74.8,93.9L74.8,93.9z"/>
	
		<radialGradient id="SVGID_00000128466575751453277050000016346963647378378942_" cx="-1756.7922" cy="-118.827" r="0.77" gradientTransform="matrix(4.7179 1.9369 0.1177 -0.2868 8366.6602 3478.1914)" gradientUnits="userSpaceOnUse">
		<stop  offset="1.000000e-02" style="stop-color:#F8B6B9"/>
		<stop  offset="0.32" style="stop-color:#F7A1A2"/>
		<stop  offset="0.45" style="stop-color:#F48484"/>
		<stop  offset="0.75" style="stop-color:#EF4948"/>
		<stop  offset="0.89" style="stop-color:#EE3331"/>
	</radialGradient>
	<path style="fill:url(#SVGID_00000128466575751453277050000016346963647378378942_);" d="M74.6,113.1c-0.1-0.1-0.2-0.1-0.2-0.1
		c-0.7-0.3-1.9-1-3.1-1.5c-0.7-0.3-2.7-1.1-3.8-1.5c-0.1,0-0.2-0.1-0.4-0.2c-0.2-0.1-0.4-0.2-0.6-0.4c-0.1,0-0.2,0-0.3,0
		c0.4,0.3,0.9,0.6,1.2,0.7c1.1,0.4,3.1,1.2,3.8,1.5c0.7,0.3,1.5,0.7,2.2,1.1c0.2,0.1,0.4,0.2,0.6,0.3c0,0,0.4,0.2,0.5,0.2
		c0,0,0.1,0,0.1,0.1c0.1,0,0.1,0,0.2,0c0,0,0,0,0.1,0C74.8,113.2,74.7,113.1,74.6,113.1L74.6,113.1z"/>
	
		<radialGradient id="SVGID_00000090282020745446731710000016033281345672104379_" cx="206.6127" cy="150.2939" r="6.8115" gradientTransform="matrix(0.9541 0.2994 0.2994 -0.9541 -164.9492 177.3607)" gradientUnits="userSpaceOnUse">
		<stop  offset="0.28" style="stop-color:#F26D6B"/>
		<stop  offset="0.72" style="stop-color:#EE3331"/>
		<stop  offset="0.94" style="stop-color:#EC2127"/>
	</radialGradient>
	<path style="fill:url(#SVGID_00000090282020745446731710000016033281345672104379_);" d="M69,93.3c-0.3,0.2-0.6,0.4-0.8,0.6
		c0,0,0,0,0,0c0.6-0.6,1.5-0.9,2.4-1h0c0.1,0,0.1,0,0.2,0c0.1,0,0.3,0,0.4,0c0.3,0,0.6,0,0.9,0.1c0.1,0,1.3,0.1,3.1,0.9
		c1.4,0.6,3.4,1.7,5.5,3.4c0,0,0,0,0.1,0h0v0h0v0c0,0,0,0,0,0l0,0c0.1,0.1,0.3,0.2,0.4,0.3c0.4,0.3,0.9,0.7,1.4,1.3
		c0.3,0.3,0.7,0.7,1,1.1c0.6,0.8,1.2,1.4,1.2,1.6l0,0c0,0,0-0.1,0-0.2c-0.2-2.5-2-6.5-5.9-8.4c-3.8-1.8-7.3-1-9.2-0.2
		C69.5,93,69.3,93.2,69,93.3C69.1,93.3,69,93.3,69,93.3"/>
	
		<linearGradient id="SVGID_00000052091418136626509840000005987569810623670921_" gradientUnits="userSpaceOnUse" x1="1668.4644" y1="-668.7217" x2="1668.4644" y2="-668.7217" gradientTransform="matrix(0.9998 -2.076793e-02 -2.076793e-02 -0.9998 -1609.7626 -540.957)">
		<stop  offset="0" style="stop-color:#F7A1A2"/>
		<stop  offset="1" style="stop-color:#EC2127"/>
	</linearGradient>
	<path style="fill:url(#SVGID_00000052091418136626509840000005987569810623670921_);" d="M72.2,93L72.2,93z"/>
	
		<linearGradient id="SVGID_00000144321516309274454320000012964286894594354354_" gradientUnits="userSpaceOnUse" x1="1674.1617" y1="-671.2365" x2="1674.0518" y2="-671.4064" gradientTransform="matrix(0.9998 -2.076793e-02 -2.076793e-02 -0.9998 -1609.7626 -540.957)">
		<stop  offset="0" style="stop-color:#F7A1A2"/>
		<stop  offset="1" style="stop-color:#EC2127"/>
	</linearGradient>
	<path style="fill:url(#SVGID_00000144321516309274454320000012964286894594354354_);" d="M80.8,97.3c-2.2-1.8-4.1-2.8-5.6-3.4
		c-0.1-0.1-0.3-0.1-0.4-0.2c0,0,2.6,1.5,3,1.8C78.3,95.8,80.9,97.4,80.8,97.3C80.9,97.3,80.8,97.3,80.8,97.3L80.8,97.3z"/>
	
		<linearGradient id="SVGID_00000105424497492404333620000014392504055775402911_" gradientUnits="userSpaceOnUse" x1="1663.1681" y1="-675.7451" x2="1678.8038" y2="-675.7451" gradientTransform="matrix(0.9998 -2.076793e-02 -2.076793e-02 -0.9998 -1609.7626 -540.957)">
		<stop  offset="0" style="stop-color:#FFFFFF"/>
		<stop  offset="9.000000e-02" style="stop-color:#FCE6E6"/>
		<stop  offset="0.21" style="stop-color:#FACDCD"/>
		<stop  offset="0.34" style="stop-color:#F9B9BA"/>
		<stop  offset="0.49" style="stop-color:#F7ABAC"/>
		<stop  offset="0.67" style="stop-color:#F7A3A4"/>
		<stop  offset="1" style="stop-color:#F7A1A2"/>
	</linearGradient>
	<path style="fill:url(#SVGID_00000105424497492404333620000014392504055775402911_);" d="M79.6,100.7c-2.8-2.3-5.8-4.2-8.2-4.9
		c-1.3-0.4-2.4-0.5-3.1-0.5c-0.2,0-0.4,0-0.7,0.1c0,0-0.1,0-0.1,0c0,0,0,0,0,0c0.1,0,0.1,0,0.2,0c0.2,0,0.4,0,0.6-0.1
		c0.7,0,1.7,0.1,3,0.5c2.5,0.8,5.5,2.7,8.4,5.1c0,0,2.2,1.8,3.7,3.7C82,102.6,79.6,100.7,79.6,100.7L79.6,100.7z"/>
</g>
<g>
	<g>
		<path d="M54.1,102.1l-3.9-49.8c-0.6-7.2-3.6-11.7-8.9-13.4c-2.1-0.7-4.6-0.9-7.4-0.7l-7.1,0.6c-0.4,0-0.8,0.4-0.7,0.8l5,63.3
			c0.3,4-0.5,7.1-2.3,9.2c-1.9,2.1-4.9,3.4-9.1,3.7c-6.6,0.5-12-0.2-15.8-2.1c-0.1-0.1-0.3-0.1-0.4-0.1l-0.8,0.1
			c-0.4,0-0.8,0.4-0.7,0.8l0.8,9.8c0.3,3.6,2.5,6.5,6.5,8.7c1.2,0.6,2.5,1.2,3.8,1.6c3.3,1,7,1.4,11.1,1.1
			c10.6-0.8,18.7-4.5,23.9-10.9C52.8,119,54.9,111.3,54.1,102.1L54.1,102.1z"/>
	</g>
</g>
<g>
	<path style="fill:#F8AC1C;" d="M52.2,96.7l-3.9-49.8c-0.6-7.2-3.6-11.7-8.9-13.4c-2.1-0.7-4.6-0.9-7.4-0.7l-7.1,0.6c-0.4,0-0.8,0.4-0.7,0.8
		l5,63.3c0.3,4-0.5,7.1-2.3,9.2c-1.9,2.1-4.9,3.4-9.1,3.7c-6.6,0.5-12-0.2-15.8-2.1c-0.1-0.1-0.3-0.1-0.4-0.1l-0.8,0.1
		c-0.4,0-0.8,0.4-0.7,0.8l0.8,9.8c0.3,3.6,2.5,6.5,6.5,8.7c1.2,0.6,2.5,1.2,3.8,1.6c3.3,1,7,1.4,11.1,1.1
		c10.6-0.8,18.7-4.5,23.9-10.9C50.9,113.6,52.9,105.9,52.2,96.7L52.2,96.7z"/>
	<g>
		<g>
			<path style="fill:#FCEE21;" d="M52.2,96.7l-3.9-49.8c-0.6-7.2-3.6-11.7-8.9-13.4c-2.1-0.7-4.6-0.9-7.4-0.7l-7.1,0.6c-0.4,0-0.8,0.4-0.7,0.8
				l5,63.3c0.3,4-0.5,7.1-2.3,9.2c-1.9,2.1-4.9,3.4-9.1,3.7c-6.6,0.5-12-0.2-15.8-2.1c-0.1-0.1-0.3-0.1-0.4-0.1l-0.8,0.1
				c-0.4,0-0.8,0.4-0.7,0.8l0.8,9.8c0.3,3.6,2.5,6.5,6.5,8.7c1.2,0.6,2.5,1.2,3.8,1.6c3.3,1,7,1.4,11.1,1.1
				c10.6-0.8,18.7-4.5,23.9-10.9C50.9,113.6,52.9,105.9,52.2,96.7L52.2,96.7z"/>
		</g>
	</g>
</g>
<g>
	<path style="fill:#FAB816;" d="M280.8,125.1c-3.7-1.2-6.9-2.9-9.6-5.3c-4.6-4.2-6.7-9.3-6.3-15.4c0.4-6.3,3.2-11.1,8.2-14.2
		c5.5-3.4,13.8-4.8,24.6-4.2l4.1,0.2c0.2-4.9-1.9-8-6.4-9.4c-1.4-0.4-3-0.7-4.9-0.8c-4.7-0.3-8.9,0.2-12.6,1.6
		c-2.8,1-4.9,2.2-6.3,3.8l-0.4,0.4l-2.4-0.2l0.4-6.1c0.3-4.3,2.4-7.9,6.2-10.7c4.4-3.2,10.6-4.5,18.2-4c3.2,0.2,6.1,0.7,8.7,1.5
		c3.9,1.2,7.2,3.2,9.8,5.7c5.2,5.2,7.5,12.9,6.8,23.1l-0.9,14.1c-0.4,6.7-3.1,12.2-7.9,16.2c-4.8,4-10.8,5.8-17.9,5.4l-3.1-0.2
		C286.2,126.4,283.3,125.9,280.8,125.1L280.8,125.1z M296.9,99.3c-5.3-0.3-9.1,0-11.3,1.1c-1.7,0.9-2.6,2.3-2.7,4.6
		c-0.2,3.2,1.2,5.2,4.5,6.2l0,0c1.2,0.4,2.7,0.6,4.4,0.7c2.9,0.2,5.1-0.4,6.6-1.6c1.5-1.2,2.3-3.3,2.4-6l0.3-4.7L296.9,99.3
		L296.9,99.3z"/>
	<path style="fill:#C32126;" d="M302.1,63.5c3.7,1.2,6.8,3,9.3,5.4c4.9,4.9,7.1,12.3,6.5,22.1l-0.9,14.1c-0.4,6.4-2.9,11.5-7.4,15.3
		c-4.6,3.8-10.2,5.5-17,5.1l-3.1-0.2c-3-0.2-5.7-0.7-8.2-1.4c-3.5-1.1-6.6-2.8-9.1-5.1c-4.3-3.9-6.3-8.7-5.9-14.4
		c0.4-5.9,2.9-10.3,7.7-13.3c5.3-3.3,13.3-4.6,23.9-4l5.3,0.3l0-0.8c0.4-5.8-2-9.5-7.2-11.2c-1.5-0.5-3.2-0.8-5.2-0.9
		c-4.9-0.3-9.3,0.3-13.1,1.7c-3,1-5.2,2.4-6.7,4.1l-0.6,0l0.3-4.9c0.2-3.9,2.2-7.2,5.7-9.8c4.2-3,10-4.3,17.4-3.8
		C296.7,62.3,299.5,62.7,302.1,63.5 M287.1,112.3c1.3,0.4,2.9,0.7,4.7,0.8c6.5,0.4,9.9-2.5,10.3-8.8l0.4-5.9l-5.4-0.3
		c-5.5-0.3-9.5,0.1-11.9,1.2c-2.1,1.1-3.3,2.9-3.4,5.6C281.4,108.7,283.2,111.2,287.1,112.3 M302.8,61.2L302.8,61.2
		c-2.7-0.8-5.7-1.4-9-1.6c-8-0.5-14.3,0.9-19,4.2c-4.2,3-6.5,6.9-6.8,11.6l-0.3,4.9l-0.1,2.5l2.5,0.2l0.6,0l1.2,0.1l0.8-0.9
		c1.3-1.4,3.2-2.6,5.7-3.4c3.5-1.3,7.6-1.8,12.1-1.6c1.8,0.1,3.3,0.4,4.6,0.8c3.6,1.1,5.3,3.3,5.5,7l-2.8-0.2
		c-11.3-0.7-19.6,0.7-25.4,4.3c-5.4,3.4-8.4,8.5-8.8,15.2c-0.4,6.4,1.9,11.9,6.7,16.3c2.8,2.5,6.2,4.4,10,5.6
		c2.7,0.8,5.6,1.4,8.8,1.6l3.1,0.2c7.4,0.5,13.7-1.4,18.8-5.6c5.1-4.2,7.9-10,8.3-17.1l0.9-14.1c0.7-10.5-1.8-18.6-7.2-24
		C310.3,64.5,306.9,62.5,302.8,61.2L302.8,61.2L302.8,61.2z M287.8,110c-2.7-0.9-3.8-2.3-3.7-4.9c0.1-2.3,1.2-3.1,2.1-3.5
		c1.3-0.6,4.3-1.3,10.6-0.9l3,0.2l-0.2,3.4c-0.1,2.4-0.8,4.2-2,5.2c-1.2,1-3.1,1.5-5.7,1.3C290.3,110.6,288.9,110.3,287.8,110
		L287.8,110L287.8,110z"/>
</g>
<g>
	<g>
		<path style="fill:#FCEE21;" d="M316.9,105.2c-0.4,6.4-2.9,11.5-7.4,15.3c-4.6,3.8-10.2,5.5-17,5.1l-3.1-0.2c-7.2-0.4-13-2.6-17.3-6.5
			c-4.3-3.9-6.3-8.7-5.9-14.4c0.4-5.9,2.9-10.3,7.7-13.3c5.3-3.3,13.3-4.6,23.9-4l5.3,0.3l0-0.8c0.5-7.5-3.7-11.5-12.4-12
			c-4.9-0.3-9.3,0.3-13.1,1.7c-3,1-5.2,2.4-6.7,4.1l-0.6,0l0.3-4.9c0.2-3.9,2.2-7.2,5.7-9.8c4.2-3,10-4.3,17.4-3.8
			c7.6,0.5,13.5,2.8,17.6,6.9c4.9,4.9,7.1,12.3,6.5,22.1L316.9,105.2L316.9,105.2z M302.4,98.5l-5.4-0.3c-5.5-0.3-9.5,0.1-11.9,1.2
			c-2.1,1.1-3.3,2.9-3.4,5.6c-0.3,5.1,3,7.8,10.1,8.2c6.5,0.4,9.9-2.5,10.3-8.8L302.4,98.5L302.4,98.5z"/>
	</g>
</g>
<g>
	<path style="fill:#FAB816;" d="M328.2,124.7c-2.5-0.8-4.8-1.9-6.8-3.4c-3.8-2.9-5.5-6.1-5.3-9.6l0.6-7.9l2.3,0.2l0.3,0.3
		c2.1,2.2,4.9,3.9,8.4,5c2.4,0.8,5.1,1.2,8.2,1.4c9.5,0.7,9.8-3.3,9.9-4.6c0.1-1.3-0.4-2.3-1.5-3c-0.8-0.6-2.1-1.1-3.9-1.7
		c-1.5-0.5-3.4-0.9-5.5-1.4c-1.5-0.3-2.9-0.7-4.2-1.1c-10-3.1-14.8-8.9-14.2-17.2c0.4-6.1,3.3-11,8.4-14.8
		c5.3-3.9,11.8-5.6,19.5-5.1c2.7,0.2,5.2,0.6,7.4,1.3c3,0.9,5.5,2.4,7.5,4.2c3,2.8,4.5,6.1,4.2,9.8l-0.5,6.8l-2.3-0.2l-0.3-0.4
		c-1.9-2.2-4.6-3.8-8-4.9c-2.2-0.7-4.8-1.2-7.7-1.4c-3.7-0.3-6.5,0-8.4,0.9c-1.6,0.8-2.5,1.9-2.6,3.7c-0.1,1.1,0.3,1.8,1.4,2.4
		c0.7,0.5,2,1,3.7,1.5c1.5,0.5,3.3,0.9,5.5,1.5c1.2,0.3,2.3,0.6,3.4,0.9c10.8,3.4,15.9,9.6,15.2,18.5c-0.5,7-3.1,12.2-7.8,15.5
		c-4.6,3.2-11.2,4.5-19.7,3.9C332.8,125.9,330.4,125.4,328.2,124.7z"/>
	<path style="fill:#C32126;" d="M351.3,64.5c2.8,0.9,5.2,2.2,7.1,3.9c2.8,2.6,4,5.5,3.8,8.8l-0.4,5.6l-0.5,0c-2.1-2.4-4.9-4.1-8.5-5.3
		c-2.3-0.7-5-1.2-8-1.4c-7.9-0.6-12,1.4-12.3,5.8c-0.1,1.5,0.5,2.7,2,3.6c0.8,0.5,2.1,1,4,1.6c1.5,0.5,3.3,1,5.5,1.5
		c1.2,0.3,2.3,0.6,3.3,0.9c10.2,3.2,15,8.9,14.4,17.2c-0.9,13.3-9.6,19.4-26.1,18.2c-2.5-0.2-4.8-0.6-6.9-1.3
		c-2.4-0.8-4.6-1.8-6.5-3.2c-3.4-2.6-5-5.4-4.8-8.5l0.5-6.7l0.5,0c2.2,2.4,5.2,4.2,8.9,5.4c2.5,0.8,5.3,1.3,8.5,1.5
		c7.2,0.5,10.9-1.4,11.2-5.7c0.1-1.8-0.5-3.1-2-4.1c-0.9-0.6-2.3-1.2-4.2-1.8c-1.5-0.5-3.4-1-5.6-1.4c-1.5-0.3-2.8-0.7-4.1-1.1
		c-9.4-3-13.9-8.3-13.3-15.9c0.4-5.7,3-10.3,7.9-13.9c5-3.8,11.3-5.4,18.7-4.9C346.8,63.4,349.2,63.8,351.3,64.5 M352.1,62.1
		c-2.3-0.7-4.9-1.2-7.7-1.4c-8-0.6-14.8,1.2-20.3,5.3c-5.5,4-8.5,9.3-8.9,15.7c-0.4,6.1,1.8,14.3,15,18.5c1.4,0.4,2.8,0.8,4.3,1.1
		c2.1,0.4,4,0.9,5.4,1.4c2,0.6,3,1.2,3.5,1.5c0.8,0.5,1,1,1,1.9c-0.1,1.1-0.3,4-8.6,3.4c-2.9-0.2-5.6-0.7-7.9-1.4
		c-3.3-1-5.9-2.6-7.9-4.7l-0.7-0.7l-1-0.1l-0.5,0l-2.5-0.2l-0.2,2.5l-0.5,6.7c-0.3,3.9,1.7,7.5,5.8,10.7c2.1,1.6,4.6,2.8,7.2,3.6
		c2.3,0.7,4.8,1.2,7.5,1.4c8.8,0.6,15.7-0.8,20.5-4.1c5-3.5,7.8-9,8.3-16.4c0.5-6.6-2-15.3-16.1-19.8c-1.1-0.3-2.3-0.7-3.5-0.9
		c-2.1-0.5-3.9-1-5.4-1.4c-2-0.6-3-1.1-3.4-1.4c-0.7-0.4-0.8-0.8-0.8-1.3c0.1-1,0.3-4.1,9.7-3.5c2.8,0.2,5.3,0.6,7.4,1.3
		c3.1,1,5.6,2.5,7.4,4.5l0.7,0.8l1,0.1l0.5,0l2.5,0.2l0.2-2.5l0.4-5.6c0.3-4.1-1.2-7.7-4.6-10.8C357.9,64.6,355.2,63.1,352.1,62.1
		L352.1,62.1L352.1,62.1z"/>
</g>
<g>
	<g>
		<path style="fill:#FCEE21;" d="M335.4,124.8c-5.4-0.4-9.8-1.9-13.4-4.5c-3.4-2.6-5-5.4-4.8-8.5l0.5-6.7l0.5,0c3.8,4,9.6,6.3,17.4,6.9
			c7.2,0.5,10.9-1.4,11.2-5.7c0.1-1.8-0.5-3.1-2-4.1c-1.7-1.2-5-2.2-9.8-3.2c-12.2-2.6-18.1-8.3-17.4-17c0.4-5.7,3-10.3,7.9-13.9
			c5-3.8,11.3-5.4,18.7-4.9c6.1,0.4,10.9,2.2,14.2,5.2c2.8,2.6,4,5.5,3.8,8.8l-0.4,5.6l-0.5,0c-3.4-3.9-8.9-6.2-16.5-6.7
			c-7.9-0.6-12,1.4-12.3,5.8c-0.1,1.5,0.5,2.7,2,3.6c1.5,0.9,4.6,1.9,9.5,3.1c12.5,2.9,18.4,9,17.7,18.1
			C360.6,119.9,351.9,126,335.4,124.8L335.4,124.8z"/>
	</g>
</g>
<g>
	<path style="fill:#FAB816;" d="M367.7,126.6c-4.7-1.5-7.1-5.2-6.9-11.1l1.8-73.3l6,0.2c1.9,0,3.5,0.3,4.9,0.7c3.2,1,7.1,3.7,6.9,10.6l-0.3,14
		c1-1,2.2-2,3.5-2.8c2.9-1.9,5.9-2.8,8.8-2.7c3.7,0.1,7,0.6,9.9,1.5c10.9,3.4,16.3,12.6,16,27.4l-0.9,37.4l-6.3-0.1
		c-1.7,0-3.2-0.3-4.5-0.7c-4.7-1.5-7-5.2-6.9-11.1l0.6-25.2c0.1-4.4-0.9-7.8-3-10.1c-1.1-1.1-2.4-1.9-4-2.4
		c-1.1-0.3-2.4-0.6-3.8-0.6c-2.6-0.1-4.7,0.8-6.5,2.7c-2.4,2.3-3.6,5.8-3.7,10.4l-0.9,36.2l-6.3-0.2
		C370.6,127.3,369.1,127.1,367.7,126.6L367.7,126.6z"/>
	<path style="fill:#C32126;" d="M373.2,44.2c4.1,1.3,6.2,4.4,6,9.4l-0.4,17.6c1.4-2.1,3.2-3.9,5.5-5.4c2.7-1.8,5.4-2.6,8.1-2.5
		c3.6,0.1,6.8,0.6,9.6,1.5c10.4,3.3,15.4,12,15.1,26.2l-0.9,36.2l-5-0.1c-1.6,0-3-0.2-4.1-0.6c-4.1-1.3-6.1-4.6-6-9.9l0.6-25.2
		c0.1-4.8-1-8.5-3.3-11c-1.2-1.3-2.7-2.2-4.5-2.8c-1.2-0.4-2.6-0.6-4.1-0.6c-2.9-0.1-5.4,0.9-7.4,3c-2.6,2.5-3.9,6.3-4,11.2l-0.9,35
		l-5-0.1c-1.6,0-3-0.2-4.2-0.6c-4.2-1.3-6.2-4.6-6.1-9.9l1.8-72.1l4.8,0.1C370.4,43.6,371.9,43.9,373.2,44.2 M374,41.9
		c-1.5-0.5-3.3-0.8-5.3-0.8l-4.8-0.1l-2.5-0.1l-0.1,2.5l-1.8,72.1c-0.2,8.1,4.1,11.2,7.8,12.3c1.4,0.4,3.1,0.7,4.9,0.8l5,0.1
		l2.5,0.1l0.1-2.5l0.9-35c0.1-4.3,1.2-7.5,3.3-9.5c1.6-1.6,3.4-2.4,5.6-2.3c1.3,0,2.4,0.2,3.4,0.5c1.4,0.4,2.5,1.1,3.5,2.1
		c1.8,2,2.7,5.1,2.6,9.2l-0.6,25.2c-0.2,8.1,4.1,11.2,7.8,12.3c1.4,0.4,3,0.7,4.8,0.7l5,0.1l2.5,0.1l0.1-2.5l0.9-36.2
		c0.4-15.4-5.3-25-16.8-28.6c-3-0.9-6.5-1.5-10.2-1.6c-3.2-0.1-6.4,0.9-9.5,3c-0.5,0.3-1,0.7-1.5,1.1l0.3-11.2
		C381.9,46,377.6,43,374,41.9L374,41.9L374,41.9z"/>
</g>
<g>
	<g>
		<path style="fill:#FCEE21;" d="M411.1,127c-7-0.2-10.3-3.7-10.2-10.6l0.6-25.2c0.1-4.8-1-8.5-3.3-11c-2.1-2.2-5-3.3-8.6-3.4
			c-2.9-0.1-5.4,0.9-7.4,3c-2.6,2.5-3.9,6.3-4,11.2l-0.9,35l-5-0.1c-7-0.2-10.4-3.7-10.3-10.6l1.8-72.1l4.8,0.1
			c7.2,0.2,10.8,3.5,10.6,10.1l-0.4,17.6c1.4-2.1,3.2-3.9,5.5-5.4c2.7-1.8,5.4-2.6,8.1-2.5c16.9,0.4,25.1,9.6,24.6,27.6l-0.9,36.2
			L411.1,127L411.1,127z"/>
	</g>
</g>
</svg>
