<?xml version="1.0" encoding="UTF-8"?><svg xmlns="http://www.w3.org/2000/svg" viewBox="0 0 266 216.74"><defs></defs><g id="a"/><g id="b"><g id="c"><g><g><path id="d" style="fill:#312d3c;" d="M135.45,0c33.92,0,61.42,22.75,61.42,50.85s-27.49,45.17-61.42,45.17c-33.45-.68-56.74-11.58-69.95-32.71C72.61,23.23,95.97,2.17,135.45,0Zm-2.3,31.62c-19.5,1.96-31.42,11.24-35.82,27.83,5.96,5.21,17.88,8.13,35.82,8.74,18.01-.27,28.91-5.55,29.12-17.74-1.15-13.48-14.22-19.37-29.12-18.82Z"/><path id="e" style="fill:#2cb45f;" d="M62.93,76.65c10.02,28.85,37.78,44.89,66.29,44.89,23.63,0,39.34-10.22,47.54-25.66l26.48,16.59c-9.21,22.62-36.63,39-68.93,39-39.95,0-74.15-26.88-71.37-73.67v-1.15Z"/></g><g><path style="fill:#312d3c;" d="M97.55,205.02c5.09,6.3,9.92,6.17,13.84,4.46,3.59-1.58,5.46-5.8,4.84-10.51-.08,.04-.25,.04-.25,.13-2.29,5.59-8.09,6.38-12.63,5.13-4.04-1.08-6.13-4-6.75-8.01-.21-1.46-.33-2.96-.33-4.46-.04-6.05,0-12.05,0-18.22h7.21c.04,.54,.08,1.13,.08,1.71v14.76c0,1.04,.08,2.08,.25,3.13,.58,3.92,3,5.46,6.92,4.42,3.17-.83,5.3-3.75,5.5-8.05,.21-4.59,.17-9.17,.21-13.76v-2.25h7c.08,.25,.13,.5,.17,.79,0,8.96,.21,17.93-.08,26.89-.38,10.59-9.38,17.05-19.81,14.59-3.46-.83-6.63-2.21-9.13-4.84-.75-.79-.88-1.38-.08-2.25,1.08-1.08,1.96-2.33,3.04-3.67Z"/><path style="fill:#312d3c;" d="M54.1,173.87v4.59c-2.25-3.25-5.46-5.3-9.05-5.3-6.71,0-12.18,7.21-12.18,16.09s5.46,16.09,12.18,16.09c3.59,0,6.8-2.04,9.05-5.3v5.3h7.34v-31.48h-7.34Zm-6.96,24.85c-3.96,0-7.21-4.25-7.21-9.51s3.21-9.51,7.21-9.51,7.21,4.25,7.21,9.51-3.21,9.51-7.21,9.51Z"/><path style="fill:#312d3c;" d="M181.94,173.87v4.59c-2.21-3.25-5.46-5.3-9.05-5.3-6.71,0-12.18,7.21-12.18,16.09s5.46,16.09,12.18,16.09c3.59,0,6.8-2.04,9.05-5.3v5.3h7.34v-31.48h-7.34Zm-6.92,24.85c-3.96,0-7.21-4.25-7.21-9.51s3.21-9.51,7.21-9.51,7.21,4.25,7.21,9.51-3.25,9.51-7.21,9.51Z"/><path style="fill:#312d3c;" d="M258.66,173.87v4.59c-2.21-3.25-5.46-5.3-9.05-5.3-6.71,0-12.18,7.21-12.18,16.09s5.46,16.09,12.18,16.09c3.59,0,6.8-2.04,9.05-5.3v5.3h7.34v-31.48h-7.34Zm-6.92,24.85c-3.96,0-7.21-4.25-7.21-9.51s3.21-9.51,7.21-9.51,7.21,4.25,7.21,9.51-3.25,9.51-7.21,9.51Z"/><rect style="fill:#312d3c;" x="194.7" y="173.16" width="7.51" height="32.19"/><circle style="fill:#2cb45f;" cx="198.45" cy="165.49" r="4.63"/><path style="fill:#312d3c;" d="M145.58,173.66c-3.5,0-6.67,1.83-8.92,4.79v-5.3h-7.38v43.57h7.38v-16.14c2.25,2.96,5.42,4.79,8.92,4.79,6.88,0,12.47-7.09,12.47-15.84s-5.59-15.89-12.47-15.89Zm-2.08,25.06c-3.13,0-5.75-2.38-6.84-5.8v-6.75c1.08-3.38,3.75-5.8,6.84-5.8,4.09,0,7.38,4.09,7.38,9.17s-3.34,9.17-7.38,9.17h0Z"/><path style="fill:#312d3c;" d="M86.79,184.55h0l5.25-2.75c-.08-2.42-1.71-4.63-3.75-5.92s-4.5-1.83-6.96-2.08c-3.92-.42-8.13-.08-11.34,2.13-3.21,2.21-5.13,6.8-3.29,10.26,1.5,2.88,4.84,4.21,8.01,4.79s6.5,.79,9.34,2.25c.71,.38,1.46,.92,1.5,1.71s-.5,1.42-1.04,1.92c-3.75,3.13-9.34,2.63-12.47-1.13-.88-1.08-1.54-2.33-1.83-3.71l-5.8,3.04c-1.21,.67,3.29,6.25,3.88,6.75,4.29,3.75,10.76,4.34,16.05,2.59,3.71-1.25,7.21-4,7.96-7.84,.46-2.46-.25-5-1.92-6.88-1.79-1.96-4.42-2.88-7.05-3.42s-5.25-.71-7.8-1.5c-1.08-.33-2.33-1.08-2.29-2.25,.04-1.04,1.21-1.71,2.21-2.04,2.13-.71,4.46-1,6.63-.38s4.13,2.33,4.71,4.46Z"/><path style="fill:#312d3c;" d="M228.47,184.55h0l5.25-2.75c-.08-2.42-1.71-4.63-3.75-5.92s-4.5-1.83-6.96-2.08c-3.92-.42-8.13-.08-11.34,2.13-3.21,2.21-5.13,6.8-3.29,10.26,1.5,2.88,4.84,4.21,8.01,4.79s6.5,.79,9.34,2.25c.71,.38,1.46,.92,1.5,1.71s-.5,1.42-1.04,1.92c-3.75,3.13-9.34,2.63-12.47-1.13-.88-1.08-1.54-2.33-1.83-3.71l-5.8,3.04c-1.21,.67,3.29,6.25,3.88,6.75,4.29,3.75,10.76,4.34,16.05,2.59,3.71-1.25,7.21-4,7.96-7.84,.46-2.46-.25-5-1.96-6.88-1.79-1.96-4.42-2.88-7.05-3.42s-5.25-.67-7.76-1.46c-1.08-.33-2.33-1.08-2.29-2.25,.04-1.04,1.21-1.71,2.21-2.04,2.13-.71,4.46-1,6.63-.38s4.13,2.29,4.71,4.42Z"/><path style="fill:#312d3c;" d="M26.63,178.63s-5.46-8.34-17.3-4.17c0,0-6.42,1.75-9.3,12.01,0,0,5.92,9.46,20.35,6.42,0,0,12.34-3.21,6.25-14.26Zm-7.76,8.34c-2.42,1.13-6.09,.83-8.63,.17-.17-.04-3.46-1.21-3.29-1.5,2.42-4.46,8.71-8.55,13.09-4,.46,.42,.79,1,.96,1.58,.38,1.58-.75,3.13-2.13,3.75h0Z"/><path style="fill:#2cb45f;" d="M.07,189.55s-1.42,11.17,8.96,14.84,18.55-3.04,20.97-7.21l-5.92-3.5s-4.63,9.59-17.93,3.38c0,0-4.84-2.84-6.09-7.51Z"/></g></g></g></g></svg>