<svg xmlns="http://www.w3.org/2000/svg" xmlns:xlink="http://www.w3.org/1999/xlink" width="18.5" height="22.617" viewBox="0 0 18.5 22.617">
  <defs>
    <clipPath id="clip-path">
      <rect id="Rectangle_29984" data-name="Rectangle 29984" width="12.428" height="12.428" fill="#6d51bb"/>
    </clipPath>
  </defs>
  <g id="other_location_ico" transform="translate(0 0.05)">
    <g id="Group_43331" data-name="Group 43331" transform="translate(0.001 -0.05)">
      <g id="Group_43332" data-name="Group 43332">
        <path id="Path_43009" data-name="Path 43009" d="M18.5,9.062a9.307,9.307,0,0,1-3.926,7.683,13.243,13.243,0,0,0-3.669,4.014q-.365.62-.741,1.236a1.027,1.027,0,0,1-1.846-.009,20.027,20.027,0,0,0-2.158-3.114A16.729,16.729,0,0,0,3.75,16.638,9.1,9.1,0,0,1,.072,10.323,9.236,9.236,0,0,1,18.314,7.48c.108.571.138,1.158.186,1.582M9.245,16.641a7.407,7.407,0,1,0-5.3-2.228,7.423,7.423,0,0,0,5.3,2.228" transform="translate(-0.001 0.05)" fill="#6d51bb"/>
      </g>
    </g>
    <g id="Group_43334" data-name="Group 43334" transform="translate(3.036 2.684)">
      <g id="Group_43333" data-name="Group 43333" clip-path="url(#clip-path)">
        <path id="Path_43010" data-name="Path 43010" d="M5.78,0h.872c.2.027.4.048.6.083a6.239,6.239,0,0,1,5.08,5.036c.039.214.065.437.1.656v.874c-.026.191-.046.383-.08.571a6.084,6.084,0,0,1-2.3,3.874A6,6,0,0,1,4.9,12.277,6.022,6.022,0,0,1,.915,9.442,6.011,6.011,0,0,1,.088,5.185,6.034,6.034,0,0,1,1.8,1.847,6.088,6.088,0,0,1,5.122.1c.214-.039.438-.065.657-.1M5.7,5.7H5.548c-.675,0-1.35,0-2.026,0a.662.662,0,0,0-.327.1.485.485,0,0,0-.186.567.5.5,0,0,0,.483.357H5.7v.151c0,.675,0,1.35,0,2.026a.666.666,0,0,0,.1.327.484.484,0,0,0,.566.19.5.5,0,0,0,.357-.48V6.724h.148c.675,0,1.35,0,2.026,0a.673.673,0,0,0,.328-.1.485.485,0,0,0,.193-.565A.5.5,0,0,0,8.943,5.7H6.728V3.561a.759.759,0,0,0-.014-.18A.512.512,0,0,0,5.7,3.5V5.709" transform="translate(0.002)" fill="#6d51bb"/>
      </g>
    </g>
  </g>
</svg>
