<svg xmlns="http://www.w3.org/2000/svg" width="17.398" height="18.16" viewBox="0 0 17.398 18.16">
  <g id="Group_15076" data-name="Group 15076" transform="translate(40.776 -93.596)">
    <g id="Group_15077" data-name="Group 15077" transform="translate(-40.776 93.596)">
      <path id="Path_27017" data-name="Path 27017" d="M25.3,29.284c-.3,0-.605,0-.908,0a1.366,1.366,0,0,1-1.295-.929c-.21-.606-.4-1.22-.6-1.827a.513.513,0,0,0-.167-.234c-.48-.358-.967-.7-1.451-1.057a1.4,1.4,0,0,1-.552-1.709c.184-.568.372-1.136.548-1.707a.517.517,0,0,0,0-.289c-.179-.577-.369-1.15-.555-1.724a1.4,1.4,0,0,1,.541-1.681c.488-.357.982-.707,1.467-1.068a.512.512,0,0,0,.168-.233c.2-.578.38-1.16.57-1.739a1.394,1.394,0,0,1,1.4-1.02c.6,0,1.2,0,1.8-.005a.62.62,0,0,0,.326-.1c.5-.345.983-.7,1.474-1.057a1.369,1.369,0,0,1,1.716-.007c.5.354.989.717,1.49,1.067a.586.586,0,0,0,.308.1c.6.009,1.21,0,1.815.005a1.391,1.391,0,0,1,1.393,1.008c.192.579.374,1.161.571,1.739a.546.546,0,0,0,.177.248c.479.358.967.7,1.451,1.057a1.4,1.4,0,0,1,.547,1.695c-.186.575-.375,1.148-.555,1.725a.483.483,0,0,0,0,.271c.179.577.369,1.15.554,1.725a1.4,1.4,0,0,1-.561,1.707c-.484.352-.971.7-1.451,1.057a.48.48,0,0,0-.159.218c-.2.578-.38,1.16-.57,1.739a1.393,1.393,0,0,1-1.415,1.029c-.605,0-1.21,0-1.815,0a.517.517,0,0,0-.274.089c-.505.355-1,.72-1.505,1.079a1.377,1.377,0,0,1-1.718,0c-.5-.356-.987-.72-1.487-1.072a.568.568,0,0,0-.292-.094c-.327-.012-.655,0-.983,0ZM31.869,16.8a.964.964,0,0,0-.79.444q-2.229,3.053-4.464,6.1c-.439.6-.884,1.2-1.316,1.8a.872.872,0,0,0,.556,1.4.9.9,0,0,0,.917-.436q2.262-3.1,4.532-6.191c.413-.564.828-1.127,1.238-1.693a.86.86,0,0,0,.077-.961.847.847,0,0,0-.751-.463m-2.038,7.277a1.507,1.507,0,1,0,1.52-1.488,1.517,1.517,0,0,0-1.52,1.488m-3.332-3.3a1.507,1.507,0,1,0-1.5-1.51,1.513,1.513,0,0,0,1.5,1.51" transform="translate(-20.224 -12.596)" fill="#f94e41"/>
    </g>
  </g>
</svg>
